<svg xmlns="http://www.w3.org/2000/svg" width="1600" height="1600" viewBox="0 0 1600 1600" version="1.1"><path d="M 700 25 L 700 50 625 50 L 550 50 550 75 L 550 100 675 100 L 800 100 800 75 L 800 50 775 50 L 750 50 750 25 L 750 0 725 0 L 700 0 700 25 M 850 50 L 850 100 900 100 L 950 100 950 75 L 950 50 925 50 L 900 50 900 25 L 900 0 875 0 L 850 0 850 50 M 1000 25 L 1000 50 1025 50 L 1050 50 1050 25 L 1050 0 1025 0 L 1000 0 1000 25 M 1100 25 L 1100 50 1350 50 L 1600 50 1600 74.667 L 1600 99.333 1600.622 98.711 L 1601.244 98.089 1600.501 49.045 L 1599.758 -0 1349.879 -0 L 1100 0 1100 25 M 1 75 L 1 100 25.500 100 L 50 100 50 75 L 50 50 25.500 50 L 1 50 1 75 M 100 75 L 100 100 300 100 L 500 100 500 75 L 500 50 300 50 L 100 50 100 75 M 1250 150 L 1250 200 1300 200 L 1350 200 1350 175 L 1350 150 1325 150 L 1300 150 1300 125 L 1300 100 1275 100 L 1250 100 1250 150 M 1450 125 L 1450 150 1425 150 L 1400 150 1400 175 L 1400 200 1425 200 L 1450 200 1450 225 L 1450 250 1500 250 L 1550 250 1550 275 L 1550 300 1500 300 L 1450 300 1450 350 L 1450 400 1475 400 L 1500 400 1500 425 L 1500 450 1525 450 L 1550 450 1550 475 L 1550 500 1450 500 L 1350 500 1350 525 L 1350 550 1450 550 L 1550 550 1550 575 L 1550 600 1525 600 L 1500 600 1500 625 L 1500 650 1525 650 L 1550 650 1550 675 L 1550 700 1500 700 L 1450 700 1450 725 L 1450 750 1500 750 L 1550 750 1550 775 L 1550 800 1575 800 L 1600 800 1600 575 L 1600 350 1575 350 L 1550 350 1550 325 L 1550 300 1575 300 L 1600 300 1600 275 L 1600 250 1575 250 L 1550 250 1550 225 L 1550 200 1575 200 L 1600 200 1600 150 L 1600 100 1525 100 L 1450 100 1450 125 M 100 175 L 100 200 225 200 L 350 200 350 175 L 350 150 225 150 L 100 150 100 175 M 400 175 L 400 200 450 200 L 500 200 500 175 L 500 150 450 150 L 400 150 400 175 M 950 175 L 950 200 1025 200 L 1100 200 1100 175 L 1100 150 1025 150 L 950 150 950 175 M 1150 175 L 1150 200 1175 200 L 1200 200 1200 175 L 1200 150 1175 150 L 1150 150 1150 175 M 1500 175 L 1500 200 1525 200 L 1550 200 1550 175 L 1550 150 1525 150 L 1500 150 1500 175 M 50 275 L 50 300 75 300 L 100 300 100 275 L 100 250 75 250 L 50 250 50 275 M 200 275 L 200 300 250 300 L 300 300 300 275 L 300 250 250 250 L 200 250 200 275 M 500 325 L 500 350 550 350 L 600 350 600 325 L 600 300 550 300 L 500 300 500 325 M 700 325 L 700 350 725 350 L 750 350 750 325 L 750 300 725 300 L 700 300 700 325 M 1100 375 L 1100 400 1125 400 L 1150 400 1150 375 L 1150 350 1125 350 L 1100 350 1100 375 M 1500 375 L 1500 400 1525 400 L 1550 400 1550 375 L 1550 350 1525 350 L 1500 350 1500 375 M 1300 825 L 1300 850 1325 850 L 1350 850 1350 825 L 1350 800 1325 800 L 1300 800 1300 825 M 1550 875 L 1550 900 1500 900 L 1450 900 1450 925 L 1450 950 1500 950 L 1550 950 1550 925 L 1550 900 1575 900 L 1600 900 1600 875 L 1600 850 1575 850 L 1550 850 1550 875 M 1550 1125 L 1550 1150 1575 1150 L 1600 1150 1600 1125 L 1600 1100 1575 1100 L 1550 1100 1550 1125 M 100 1175 L 100 1200 125 1200 L 150 1200 150 1175 L 150 1150 125 1150 L 100 1150 100 1175 M 250 1175 L 250 1200 275 1200 L 300 1200 300 1175 L 300 1150 275 1150 L 250 1150 250 1175 M 1550 1225 L 1550 1250 1575 1250 L 1600 1250 1600 1274.667 L 1600 1299.333 1600.622 1298.711 L 1601.244 1298.089 1600.501 1249.045 L 1599.758 1200 1574.879 1200 L 1550 1200 1550 1225 M 1 1275 L 1 1300 25.500 1300 L 50 1300 50 1275 L 50 1250 25.500 1250 L 1 1250 1 1275 M 1550 1400 L 1550 1500 1525 1500 L 1500 1500 1500 1475 L 1500 1450 1375 1450 L 1250 1450 1250 1475 L 1250 1500 1375 1500 L 1500 1500 1500 1525 L 1500 1550 1350 1550 L 1200 1550 1200 1575 L 1200 1600 1350 1600 L 1500 1600 1500 1575 L 1500 1550 1549.860 1550 L 1599.720 1550 1600.202 1455.686 L 1600.683 1361.373 1600.205 1330.686 L 1599.726 1300 1574.863 1300 L 1550 1300 1550 1400 M 1 1375 L 1 1400 200.500 1400 L 400 1400 400 1375 L 400 1350 200.500 1350 L 1 1350 1 1375 M 500 1375 L 500 1400 525 1400 L 550 1400 550 1375 L 550 1350 525 1350 L 500 1350 500 1375 M 1450 1375 L 1450 1400 1475 1400 L 1500 1400 1500 1375 L 1500 1350 1475 1350 L 1450 1350 1450 1375 M 50 1525 L 50 1600 525 1600 L 1000 1600 1000 1575 L 1000 1550 850 1550 L 700 1550 700 1525 L 700 1500 725 1500 L 750 1500 750 1475 L 750 1450 400 1450 L 50 1450 50 1525 M 100 1525 L 100 1550 125 1550 L 150 1550 150 1525 L 150 1500 125 1500 L 100 1500 100 1525 M 250 1525 L 250 1550 275 1550 L 300 1550 300 1525 L 300 1500 275 1500 L 250 1500 250 1525 M 450 1525 L 450 1550 475 1550 L 500 1550 500 1525 L 500 1500 475 1500 L 450 1500 450 1525 M 550 1525 L 550 1550 575 1550 L 600 1550 600 1525 L 600 1500 575 1500 L 550 1500 550 1525 M 1100 1575 L 1100 1600 1125 1600 L 1150 1600 1150 1575 L 1150 1550 1125 1550 L 1100 1550 1100 1575" stroke="none" fill="#b8b989" fill-rule="evenodd"/><path d="M 700 25 L 700 50 625 50 L 550 50 550 75 L 550 100 675 100 L 800 100 800 75 L 800 50 775 50 L 750 50 750 25 L 750 0 725 0 L 700 0 700 25 M 850 50 L 850 100 900 100 L 950 100 950 75 L 950 50 925 50 L 900 50 900 25 L 900 0 875 0 L 850 0 850 50 M 1000 25 L 1000 50 1025 50 L 1050 50 1050 25 L 1050 0 1025 0 L 1000 0 1000 25 M 1100 25 L 1100 50 1350 50 L 1600 50 1600 74.667 L 1600 99.333 1600.622 98.711 L 1601.244 98.089 1600.501 49.045 L 1599.758 -0 1349.879 -0 L 1100 0 1100 25 M 1 75 L 1 100 25.500 100 L 50 100 50 75 L 50 50 25.500 50 L 1 50 1 75 M 100 75 L 100 100 300 100 L 500 100 500 75 L 500 50 300 50 L 100 50 100 75 M 1250 150 L 1250 200 1300 200 L 1350 200 1350 175 L 1350 150 1325 150 L 1300 150 1300 125 L 1300 100 1275 100 L 1250 100 1250 150 M 1450 125 L 1450 150 1425 150 L 1400 150 1400 175 L 1400 200 1425 200 L 1450 200 1450 225 L 1450 250 1500 250 L 1550 250 1550 275 L 1550 300 1500 300 L 1450 300 1450 350 L 1450 400 1475 400 L 1500 400 1500 425 L 1500 450 1525 450 L 1550 450 1550 475 L 1550 500 1450 500 L 1350 500 1350 525 L 1350 550 1450 550 L 1550 550 1550 575 L 1550 600 1525 600 L 1500 600 1500 625 L 1500 650 1525 650 L 1550 650 1550 675 L 1550 700 1500 700 L 1450 700 1450 725 L 1450 750 1500 750 L 1550 750 1550 775 L 1550 800 1575 800 L 1600 800 1600 575 L 1600 350 1575 350 L 1550 350 1550 325 L 1550 300 1575 300 L 1600 300 1600 275 L 1600 250 1575 250 L 1550 250 1550 225 L 1550 200 1575 200 L 1600 200 1600 150 L 1600 100 1525 100 L 1450 100 1450 125 M 100 175 L 100 200 225 200 L 350 200 350 175 L 350 150 225 150 L 100 150 100 175 M 400 175 L 400 200 450 200 L 500 200 500 175 L 500 150 450 150 L 400 150 400 175 M 950 175 L 950 200 1025 200 L 1100 200 1100 175 L 1100 150 1025 150 L 950 150 950 175 M 1150 175 L 1150 200 1175 200 L 1200 200 1200 175 L 1200 150 1175 150 L 1150 150 1150 175 M 1500 175 L 1500 200 1525 200 L 1550 200 1550 175 L 1550 150 1525 150 L 1500 150 1500 175 M 50 275 L 50 300 75 300 L 100 300 100 275 L 100 250 75 250 L 50 250 50 275 M 200 275 L 200 300 250 300 L 300 300 300 275 L 300 250 250 250 L 200 250 200 275 M 500 325 L 500 350 550 350 L 600 350 600 325 L 600 300 550 300 L 500 300 500 325 M 700 325 L 700 350 725 350 L 750 350 750 325 L 750 300 725 300 L 700 300 700 325 M 1100 375 L 1100 400 1125 400 L 1150 400 1150 375 L 1150 350 1125 350 L 1100 350 1100 375 M 1500 375 L 1500 400 1525 400 L 1550 400 1550 375 L 1550 350 1525 350 L 1500 350 1500 375 M 1300 825 L 1300 850 1325 850 L 1350 850 1350 825 L 1350 800 1325 800 L 1300 800 1300 825 M 1550 875 L 1550 900 1500 900 L 1450 900 1450 925 L 1450 950 1500 950 L 1550 950 1550 925 L 1550 900 1575 900 L 1600 900 1600 875 L 1600 850 1575 850 L 1550 850 1550 875 M 1550 1125 L 1550 1150 1575 1150 L 1600 1150 1600 1125 L 1600 1100 1575 1100 L 1550 1100 1550 1125 M 100 1175 L 100 1200 125 1200 L 150 1200 150 1175 L 150 1150 125 1150 L 100 1150 100 1175 M 250 1175 L 250 1200 275 1200 L 300 1200 300 1175 L 300 1150 275 1150 L 250 1150 250 1175 M 1550 1225 L 1550 1250 1575 1250 L 1600 1250 1600 1274.667 L 1600 1299.333 1600.622 1298.711 L 1601.244 1298.089 1600.501 1249.045 L 1599.758 1200 1574.879 1200 L 1550 1200 1550 1225 M 1 1275 L 1 1300 25.500 1300 L 50 1300 50 1275 L 50 1250 25.500 1250 L 1 1250 1 1275 M 1550 1400 L 1550 1500 1525 1500 L 1500 1500 1500 1475 L 1500 1450 1375 1450 L 1250 1450 1250 1475 L 1250 1500 1375 1500 L 1500 1500 1500 1525 L 1500 1550 1350 1550 L 1200 1550 1200 1575 L 1200 1600 1350 1600 L 1500 1600 1500 1575 L 1500 1550 1549.860 1550 L 1599.720 1550 1600.202 1455.686 L 1600.683 1361.373 1600.205 1330.686 L 1599.726 1300 1574.863 1300 L 1550 1300 1550 1400 M 1 1375 L 1 1400 200.500 1400 L 400 1400 400 1375 L 400 1350 200.500 1350 L 1 1350 1 1375 M 500 1375 L 500 1400 525 1400 L 550 1400 550 1375 L 550 1350 525 1350 L 500 1350 500 1375 M 1450 1375 L 1450 1400 1475 1400 L 1500 1400 1500 1375 L 1500 1350 1475 1350 L 1450 1350 1450 1375 M 50 1525 L 50 1600 525 1600 L 1000 1600 1000 1575 L 1000 1550 850 1550 L 700 1550 700 1525 L 700 1500 725 1500 L 750 1500 750 1475 L 750 1450 400 1450 L 50 1450 50 1525 M 100 1525 L 100 1550 125 1550 L 150 1550 150 1525 L 150 1500 125 1500 L 100 1500 100 1525 M 250 1525 L 250 1550 275 1550 L 300 1550 300 1525 L 300 1500 275 1500 L 250 1500 250 1525 M 450 1525 L 450 1550 475 1550 L 500 1550 500 1525 L 500 1500 475 1500 L 450 1500 450 1525 M 550 1525 L 550 1550 575 1550 L 600 1550 600 1525 L 600 1500 575 1500 L 550 1500 550 1525 M 1100 1575 L 1100 1600 1125 1600 L 1150 1600 1150 1575 L 1150 1550 1125 1550 L 1100 1550 1100 1575" stroke="none" fill="#b8b989" fill-rule="evenodd"/><path d="M 700 25 L 700 50 625 50 L 550 50 550 75 L 550 100 675 100 L 800 100 800 75 L 800 50 775 50 L 750 50 750 25 L 750 0 725 0 L 700 0 700 25 M 850 50 L 850 100 900 100 L 950 100 950 75 L 950 50 925 50 L 900 50 900 25 L 900 0 875 0 L 850 0 850 50 M 1000 25 L 1000 50 1025 50 L 1050 50 1050 25 L 1050 0 1025 0 L 1000 0 1000 25 M 1100 25 L 1100 50 1350 50 L 1600 50 1600 74.667 L 1600 99.333 1600.622 98.711 L 1601.244 98.089 1600.501 49.045 L 1599.758 -0 1349.879 -0 L 1100 0 1100 25 M 1 75 L 1 100 25.500 100 L 50 100 50 75 L 50 50 25.500 50 L 1 50 1 75 M 100 75 L 100 100 300 100 L 500 100 500 75 L 500 50 300 50 L 100 50 100 75 M 1250 150 L 1250 200 1300 200 L 1350 200 1350 175 L 1350 150 1325 150 L 1300 150 1300 125 L 1300 100 1275 100 L 1250 100 1250 150 M 1450 125 L 1450 150 1425 150 L 1400 150 1400 175 L 1400 200 1425 200 L 1450 200 1450 225 L 1450 250 1500 250 L 1550 250 1550 275 L 1550 300 1500 300 L 1450 300 1450 350 L 1450 400 1475 400 L 1500 400 1500 425 L 1500 450 1525 450 L 1550 450 1550 475 L 1550 500 1450 500 L 1350 500 1350 525 L 1350 550 1450 550 L 1550 550 1550 575 L 1550 600 1525 600 L 1500 600 1500 625 L 1500 650 1525 650 L 1550 650 1550 675 L 1550 700 1500 700 L 1450 700 1450 725 L 1450 750 1500 750 L 1550 750 1550 775 L 1550 800 1575 800 L 1600 800 1600 575 L 1600 350 1575 350 L 1550 350 1550 325 L 1550 300 1575 300 L 1600 300 1600 275 L 1600 250 1575 250 L 1550 250 1550 225 L 1550 200 1575 200 L 1600 200 1600 150 L 1600 100 1525 100 L 1450 100 1450 125 M 100 175 L 100 200 225 200 L 350 200 350 175 L 350 150 225 150 L 100 150 100 175 M 400 175 L 400 200 450 200 L 500 200 500 175 L 500 150 450 150 L 400 150 400 175 M 950 175 L 950 200 1025 200 L 1100 200 1100 175 L 1100 150 1025 150 L 950 150 950 175 M 1150 175 L 1150 200 1175 200 L 1200 200 1200 175 L 1200 150 1175 150 L 1150 150 1150 175 M 1500 175 L 1500 200 1525 200 L 1550 200 1550 175 L 1550 150 1525 150 L 1500 150 1500 175 M 50 275 L 50 300 75 300 L 100 300 100 275 L 100 250 75 250 L 50 250 50 275 M 200 275 L 200 300 250 300 L 300 300 300 275 L 300 250 250 250 L 200 250 200 275 M 500 325 L 500 350 550 350 L 600 350 600 325 L 600 300 550 300 L 500 300 500 325 M 700 325 L 700 350 725 350 L 750 350 750 325 L 750 300 725 300 L 700 300 700 325 M 1100 375 L 1100 400 1125 400 L 1150 400 1150 375 L 1150 350 1125 350 L 1100 350 1100 375 M 1500 375 L 1500 400 1525 400 L 1550 400 1550 375 L 1550 350 1525 350 L 1500 350 1500 375 M 1300 825 L 1300 850 1325 850 L 1350 850 1350 825 L 1350 800 1325 800 L 1300 800 1300 825 M 1550 875 L 1550 900 1500 900 L 1450 900 1450 925 L 1450 950 1500 950 L 1550 950 1550 925 L 1550 900 1575 900 L 1600 900 1600 875 L 1600 850 1575 850 L 1550 850 1550 875 M 1550 1125 L 1550 1150 1575 1150 L 1600 1150 1600 1125 L 1600 1100 1575 1100 L 1550 1100 1550 1125 M 100 1175 L 100 1200 125 1200 L 150 1200 150 1175 L 150 1150 125 1150 L 100 1150 100 1175 M 250 1175 L 250 1200 275 1200 L 300 1200 300 1175 L 300 1150 275 1150 L 250 1150 250 1175 M 1550 1225 L 1550 1250 1575 1250 L 1600 1250 1600 1274.667 L 1600 1299.333 1600.622 1298.711 L 1601.244 1298.089 1600.501 1249.045 L 1599.758 1200 1574.879 1200 L 1550 1200 1550 1225 M 1 1275 L 1 1300 25.500 1300 L 50 1300 50 1275 L 50 1250 25.500 1250 L 1 1250 1 1275 M 1550 1400 L 1550 1500 1525 1500 L 1500 1500 1500 1475 L 1500 1450 1375 1450 L 1250 1450 1250 1475 L 1250 1500 1375 1500 L 1500 1500 1500 1525 L 1500 1550 1350 1550 L 1200 1550 1200 1575 L 1200 1600 1350 1600 L 1500 1600 1500 1575 L 1500 1550 1549.860 1550 L 1599.720 1550 1600.202 1455.686 L 1600.683 1361.373 1600.205 1330.686 L 1599.726 1300 1574.863 1300 L 1550 1300 1550 1400 M 1 1375 L 1 1400 200.500 1400 L 400 1400 400 1375 L 400 1350 200.500 1350 L 1 1350 1 1375 M 500 1375 L 500 1400 525 1400 L 550 1400 550 1375 L 550 1350 525 1350 L 500 1350 500 1375 M 1450 1375 L 1450 1400 1475 1400 L 1500 1400 1500 1375 L 1500 1350 1475 1350 L 1450 1350 1450 1375 M 50 1525 L 50 1600 525 1600 L 1000 1600 1000 1575 L 1000 1550 850 1550 L 700 1550 700 1525 L 700 1500 725 1500 L 750 1500 750 1475 L 750 1450 400 1450 L 50 1450 50 1525 M 100 1525 L 100 1550 125 1550 L 150 1550 150 1525 L 150 1500 125 1500 L 100 1500 100 1525 M 250 1525 L 250 1550 275 1550 L 300 1550 300 1525 L 300 1500 275 1500 L 250 1500 250 1525 M 450 1525 L 450 1550 475 1550 L 500 1550 500 1525 L 500 1500 475 1500 L 450 1500 450 1525 M 550 1525 L 550 1550 575 1550 L 600 1550 600 1525 L 600 1500 575 1500 L 550 1500 550 1525 M 1100 1575 L 1100 1600 1125 1600 L 1150 1600 1150 1575 L 1150 1550 1125 1550 L 1100 1550 1100 1575" stroke="none" fill="#b8b989" fill-rule="evenodd"/><path d="M 800 75 L 800 100 825 100 L 850 100 850 75 L 850 50 825 50 L 800 50 800 75 M 950 75 L 950 100 1275 100 L 1600 100 1600 75 L 1600 50 1275 50 L 950 50 950 75 M 1100 175 L 1100 200 1125 200 L 1150 200 1150 175 L 1150 150 1125 150 L 1100 150 1100 175 M 1350 175 L 1350 200 1375 200 L 1400 200 1400 175 L 1400 150 1375 150 L 1350 150 1350 175 M 1500 175 L 1500 200 1525 200 L 1550 200 1550 175 L 1550 150 1525 150 L 1500 150 1500 175 M 100 275 L 100 300 125 300 L 150 300 150 275 L 150 250 125 250 L 100 250 100 275 M 1350 825 L 1350 850 1475 850 L 1600 850 1600 825 L 1600 800 1475 800 L 1350 800 1350 825 M 1550 925 L 1550 950 1575 950 L 1600 950 1600 925 L 1600 900 1575 900 L 1550 900 1550 925 M 1550 1025 L 1550 1050 1575 1050 L 1600 1050 1600 1025 L 1600 1000 1575 1000 L 1550 1000 1550 1025 M 0 1475 L 0 1500 25 1500 L 50 1500 50 1475 L 50 1450 25 1450 L 0 1450 0 1475 M 1500 1475 L 1500 1500 1525 1500 L 1550 1500 1550 1475 L 1550 1450 1525 1450 L 1500 1450 1500 1475 M 450 1525 L 450 1550 475 1550 L 500 1550 500 1525 L 500 1500 475 1500 L 450 1500 450 1525 M 0 1575 L 0 1600 25 1600 L 50 1600 50 1575 L 50 1550 25 1550 L 0 1550 0 1575 M 1500 1575 L 1500 1600 1550 1600 L 1600 1600 1600 1575 L 1600 1550 1550 1550 L 1500 1550 1500 1575" stroke="none" fill="#b6b695" fill-rule="evenodd"/><path d="M 800 75 L 800 100 825 100 L 850 100 850 75 L 850 50 825 50 L 800 50 800 75 M 950 75 L 950 100 1275 100 L 1600 100 1600 75 L 1600 50 1275 50 L 950 50 950 75 M 1100 175 L 1100 200 1125 200 L 1150 200 1150 175 L 1150 150 1125 150 L 1100 150 1100 175 M 1350 175 L 1350 200 1375 200 L 1400 200 1400 175 L 1400 150 1375 150 L 1350 150 1350 175 M 1500 175 L 1500 200 1525 200 L 1550 200 1550 175 L 1550 150 1525 150 L 1500 150 1500 175 M 100 275 L 100 300 125 300 L 150 300 150 275 L 150 250 125 250 L 100 250 100 275 M 1350 825 L 1350 850 1475 850 L 1600 850 1600 825 L 1600 800 1475 800 L 1350 800 1350 825 M 1550 925 L 1550 950 1575 950 L 1600 950 1600 925 L 1600 900 1575 900 L 1550 900 1550 925 M 1550 1025 L 1550 1050 1575 1050 L 1600 1050 1600 1025 L 1600 1000 1575 1000 L 1550 1000 1550 1025 M 0 1475 L 0 1500 25 1500 L 50 1500 50 1475 L 50 1450 25 1450 L 0 1450 0 1475 M 1500 1475 L 1500 1500 1525 1500 L 1550 1500 1550 1475 L 1550 1450 1525 1450 L 1500 1450 1500 1475 M 450 1525 L 450 1550 475 1550 L 500 1550 500 1525 L 500 1500 475 1500 L 450 1500 450 1525 M 0 1575 L 0 1600 25 1600 L 50 1600 50 1575 L 50 1550 25 1550 L 0 1550 0 1575 M 1500 1575 L 1500 1600 1550 1600 L 1600 1600 1600 1575 L 1600 1550 1550 1550 L 1500 1550 1500 1575" stroke="none" fill="#b6b695" fill-rule="evenodd"/><path d="M 800 75 L 800 100 825 100 L 850 100 850 75 L 850 50 825 50 L 800 50 800 75 M 950 75 L 950 100 1275 100 L 1600 100 1600 75 L 1600 50 1275 50 L 950 50 950 75 M 1100 175 L 1100 200 1125 200 L 1150 200 1150 175 L 1150 150 1125 150 L 1100 150 1100 175 M 1350 175 L 1350 200 1375 200 L 1400 200 1400 175 L 1400 150 1375 150 L 1350 150 1350 175 M 1500 175 L 1500 200 1525 200 L 1550 200 1550 175 L 1550 150 1525 150 L 1500 150 1500 175 M 100 275 L 100 300 125 300 L 150 300 150 275 L 150 250 125 250 L 100 250 100 275 M 1350 825 L 1350 850 1475 850 L 1600 850 1600 825 L 1600 800 1475 800 L 1350 800 1350 825 M 1550 925 L 1550 950 1575 950 L 1600 950 1600 925 L 1600 900 1575 900 L 1550 900 1550 925 M 1550 1025 L 1550 1050 1575 1050 L 1600 1050 1600 1025 L 1600 1000 1575 1000 L 1550 1000 1550 1025 M 0 1475 L 0 1500 25 1500 L 50 1500 50 1475 L 50 1450 25 1450 L 0 1450 0 1475 M 1500 1475 L 1500 1500 1525 1500 L 1550 1500 1550 1475 L 1550 1450 1525 1450 L 1500 1450 1500 1475 M 450 1525 L 450 1550 475 1550 L 500 1550 500 1525 L 500 1500 475 1500 L 450 1500 450 1525 M 0 1575 L 0 1600 25 1600 L 50 1600 50 1575 L 50 1550 25 1550 L 0 1550 0 1575 M 1500 1575 L 1500 1600 1550 1600 L 1600 1600 1600 1575 L 1600 1550 1550 1550 L 1500 1550 1500 1575" stroke="none" fill="#b6b695" fill-rule="evenodd"/><path d="M 0 25 L 0 50 25 50 L 50 50 50 75 L 50 100 25 100 L 0 100 0 675 L 0 1250 25 1250 L 50 1250 50 1275 L 50 1300 25 1300 L 0 1300 0 1325 L 0 1350 200 1350 L 400 1350 400 1375 L 400 1400 200 1400 L 0 1400 0 1425 L 0 1450 375 1450 L 750 1450 750 1475 L 750 1500 725 1500 L 700 1500 700 1525 L 700 1550 850 1550 L 1000 1550 1000 1575 L 1000 1600 1050 1600 L 1100 1600 1100 1575 L 1100 1550 1125 1550 L 1150 1550 1150 1575 L 1150 1600 1175 1600 L 1200 1600 1200 1575 L 1200 1550 1350 1550 L 1500 1550 1500 1525 L 1500 1500 1375 1500 L 1250 1500 1250 1475 L 1250 1450 1400 1450 L 1550 1450 1550 1375 L 1550 1300 1575 1300 L 1600 1300 1600 1324.667 L 1600 1349.333 1600.622 1348.711 L 1601.244 1348.089 1600.501 1299.045 L 1599.758 1250 1574.879 1250 L 1550 1250 1550 1225 L 1550 1200 1574.983 1200 L 1599.965 1200 1600.251 1224.750 L 1600.537 1249.500 1600.528 674 L 1600.519 98.500 1600.250 149.250 L 1599.982 200 1574.991 200 L 1550 200 1550 225 L 1550 250 1500 250 L 1450 250 1450 225 L 1450 200 1350 200 L 1250 200 1250 150 L 1250 100 900 100 L 550 100 550 75 L 550 50 625 50 L 700 50 700 25 L 700 0 350 0 L 0 0 0 25 M 750 25 L 750 50 800 50 L 850 50 850 25 L 850 0 800 0 L 750 0 750 25 M 900 25 L 900 50 950 50 L 1000 50 1000 25 L 1000 0 950 0 L 900 0 900 25 M 1050 25 L 1050 50 1075 50 L 1100 50 1100 25 L 1100 0 1075 0 L 1050 0 1050 25 M 100 75 L 100 100 300 100 L 500 100 500 75 L 500 50 300 50 L 100 50 100 75 M 0.497 675 L 0.497 1250.500 0.750 962.750 L 1.003 675 0.750 387.250 L 0.497 99.500 0.497 675 M 1300 125 L 1300 150 1375 150 L 1450 150 1450 125 L 1450 100 1375 100 L 1300 100 1300 125 M 100 175 L 100 200 225 200 L 350 200 350 175 L 350 150 225 150 L 100 150 100 175 M 400 175 L 400 200 450 200 L 500 200 500 175 L 500 150 450 150 L 400 150 400 175 M 950 175 L 950 200 1075 200 L 1200 200 1200 175 L 1200 150 1075 150 L 950 150 950 175 M 50 275 L 50 300 100 300 L 150 300 150 275 L 150 250 100 250 L 50 250 50 275 M 200 275 L 200 300 250 300 L 300 300 300 275 L 300 250 250 250 L 200 250 200 275 M 1550 275 L 1550 300 1500 300 L 1450 300 1450 350 L 1450 400 1475 400 L 1500 400 1500 425 L 1500 450 1525 450 L 1550 450 1550 475 L 1550 500 1450 500 L 1350 500 1350 525 L 1350 550 1450 550 L 1550 550 1550 575 L 1550 600 1525 600 L 1500 600 1500 625 L 1500 650 1525 650 L 1550 650 1550 675 L 1550 700 1500 700 L 1450 700 1450 725 L 1450 750 1500 750 L 1550 750 1550 775 L 1550 800 1425 800 L 1300 800 1300 825 L 1300 850 1425 850 L 1550 850 1550 875 L 1550 900 1500 900 L 1450 900 1450 925 L 1450 950 1525 950 L 1600 950 1600 650 L 1600 350 1575 350 L 1550 350 1550 325 L 1550 300 1575 300 L 1600 300 1600 275 L 1600 250 1575 250 L 1550 250 1550 275 M 500 325 L 500 350 550 350 L 600 350 600 325 L 600 300 550 300 L 500 300 500 325 M 700 325 L 700 350 725 350 L 750 350 750 325 L 750 300 725 300 L 700 300 700 325 M 1100 375 L 1100 400 1125 400 L 1150 400 1150 375 L 1150 350 1125 350 L 1100 350 1100 375 M 1500 375 L 1500 400 1525 400 L 1550 400 1550 375 L 1550 350 1525 350 L 1500 350 1500 375 M 1550 1025 L 1550 1050 1575 1050 L 1600 1050 1600 1025 L 1600 1000 1575 1000 L 1550 1000 1550 1025 M 1550 1125 L 1550 1150 1575 1150 L 1600 1150 1600 1125 L 1600 1100 1575 1100 L 1550 1100 1550 1125 M 100 1175 L 100 1200 125 1200 L 150 1200 150 1175 L 150 1150 125 1150 L 100 1150 100 1175 M 250 1175 L 250 1200 275 1200 L 300 1200 300 1175 L 300 1150 275 1150 L 250 1150 250 1175 M 0.435 1325 L 0.435 1350.500 0.747 1337.750 L 1.060 1325 0.747 1312.250 L 0.435 1299.500 0.435 1325 M 500 1375 L 500 1400 525 1400 L 550 1400 550 1375 L 550 1350 525 1350 L 500 1350 500 1375 M 1450 1375 L 1450 1400 1475 1400 L 1500 1400 1500 1375 L 1500 1350 1475 1350 L 1450 1350 1450 1375 M 0 1525 L 0 1550 25 1550 L 50 1550 50 1525 L 50 1500 25 1500 L 0 1500 0 1525 M 100 1525 L 100 1550 125 1550 L 150 1550 150 1525 L 150 1500 125 1500 L 100 1500 100 1525 M 250 1525 L 250 1550 275 1550 L 300 1550 300 1525 L 300 1500 275 1500 L 250 1500 250 1525 M 550 1525 L 550 1550 575 1550 L 600 1550 600 1525 L 600 1500 575 1500 L 550 1500 550 1525" stroke="none" fill="#dbdbb4" fill-rule="evenodd"/><path d="M 0 25 L 0 50 25 50 L 50 50 50 75 L 50 100 25 100 L 0 100 0 675 L 0 1250 25 1250 L 50 1250 50 1275 L 50 1300 25 1300 L 0 1300 0 1325 L 0 1350 200 1350 L 400 1350 400 1375 L 400 1400 200 1400 L 0 1400 0 1425 L 0 1450 375 1450 L 750 1450 750 1475 L 750 1500 725 1500 L 700 1500 700 1525 L 700 1550 850 1550 L 1000 1550 1000 1575 L 1000 1600 1050 1600 L 1100 1600 1100 1575 L 1100 1550 1125 1550 L 1150 1550 1150 1575 L 1150 1600 1175 1600 L 1200 1600 1200 1575 L 1200 1550 1350 1550 L 1500 1550 1500 1525 L 1500 1500 1375 1500 L 1250 1500 1250 1475 L 1250 1450 1400 1450 L 1550 1450 1550 1375 L 1550 1300 1575 1300 L 1600 1300 1600 1324.667 L 1600 1349.333 1600.622 1348.711 L 1601.244 1348.089 1600.501 1299.045 L 1599.758 1250 1574.879 1250 L 1550 1250 1550 1225 L 1550 1200 1574.983 1200 L 1599.965 1200 1600.251 1224.750 L 1600.537 1249.500 1600.528 674 L 1600.519 98.500 1600.250 149.250 L 1599.982 200 1574.991 200 L 1550 200 1550 225 L 1550 250 1500 250 L 1450 250 1450 225 L 1450 200 1350 200 L 1250 200 1250 150 L 1250 100 900 100 L 550 100 550 75 L 550 50 625 50 L 700 50 700 25 L 700 0 350 0 L 0 0 0 25 M 750 25 L 750 50 800 50 L 850 50 850 25 L 850 0 800 0 L 750 0 750 25 M 900 25 L 900 50 950 50 L 1000 50 1000 25 L 1000 0 950 0 L 900 0 900 25 M 1050 25 L 1050 50 1075 50 L 1100 50 1100 25 L 1100 0 1075 0 L 1050 0 1050 25 M 100 75 L 100 100 300 100 L 500 100 500 75 L 500 50 300 50 L 100 50 100 75 M 0.497 675 L 0.497 1250.500 0.750 962.750 L 1.003 675 0.750 387.250 L 0.497 99.500 0.497 675 M 1300 125 L 1300 150 1375 150 L 1450 150 1450 125 L 1450 100 1375 100 L 1300 100 1300 125 M 100 175 L 100 200 225 200 L 350 200 350 175 L 350 150 225 150 L 100 150 100 175 M 400 175 L 400 200 450 200 L 500 200 500 175 L 500 150 450 150 L 400 150 400 175 M 950 175 L 950 200 1075 200 L 1200 200 1200 175 L 1200 150 1075 150 L 950 150 950 175 M 50 275 L 50 300 100 300 L 150 300 150 275 L 150 250 100 250 L 50 250 50 275 M 200 275 L 200 300 250 300 L 300 300 300 275 L 300 250 250 250 L 200 250 200 275 M 1550 275 L 1550 300 1500 300 L 1450 300 1450 350 L 1450 400 1475 400 L 1500 400 1500 425 L 1500 450 1525 450 L 1550 450 1550 475 L 1550 500 1450 500 L 1350 500 1350 525 L 1350 550 1450 550 L 1550 550 1550 575 L 1550 600 1525 600 L 1500 600 1500 625 L 1500 650 1525 650 L 1550 650 1550 675 L 1550 700 1500 700 L 1450 700 1450 725 L 1450 750 1500 750 L 1550 750 1550 775 L 1550 800 1425 800 L 1300 800 1300 825 L 1300 850 1425 850 L 1550 850 1550 875 L 1550 900 1500 900 L 1450 900 1450 925 L 1450 950 1525 950 L 1600 950 1600 650 L 1600 350 1575 350 L 1550 350 1550 325 L 1550 300 1575 300 L 1600 300 1600 275 L 1600 250 1575 250 L 1550 250 1550 275 M 500 325 L 500 350 550 350 L 600 350 600 325 L 600 300 550 300 L 500 300 500 325 M 700 325 L 700 350 725 350 L 750 350 750 325 L 750 300 725 300 L 700 300 700 325 M 1100 375 L 1100 400 1125 400 L 1150 400 1150 375 L 1150 350 1125 350 L 1100 350 1100 375 M 1500 375 L 1500 400 1525 400 L 1550 400 1550 375 L 1550 350 1525 350 L 1500 350 1500 375 M 1550 1025 L 1550 1050 1575 1050 L 1600 1050 1600 1025 L 1600 1000 1575 1000 L 1550 1000 1550 1025 M 1550 1125 L 1550 1150 1575 1150 L 1600 1150 1600 1125 L 1600 1100 1575 1100 L 1550 1100 1550 1125 M 100 1175 L 100 1200 125 1200 L 150 1200 150 1175 L 150 1150 125 1150 L 100 1150 100 1175 M 250 1175 L 250 1200 275 1200 L 300 1200 300 1175 L 300 1150 275 1150 L 250 1150 250 1175 M 0.435 1325 L 0.435 1350.500 0.747 1337.750 L 1.060 1325 0.747 1312.250 L 0.435 1299.500 0.435 1325 M 500 1375 L 500 1400 525 1400 L 550 1400 550 1375 L 550 1350 525 1350 L 500 1350 500 1375 M 1450 1375 L 1450 1400 1475 1400 L 1500 1400 1500 1375 L 1500 1350 1475 1350 L 1450 1350 1450 1375 M 0 1525 L 0 1550 25 1550 L 50 1550 50 1525 L 50 1500 25 1500 L 0 1500 0 1525 M 100 1525 L 100 1550 125 1550 L 150 1550 150 1525 L 150 1500 125 1500 L 100 1500 100 1525 M 250 1525 L 250 1550 275 1550 L 300 1550 300 1525 L 300 1500 275 1500 L 250 1500 250 1525 M 550 1525 L 550 1550 575 1550 L 600 1550 600 1525 L 600 1500 575 1500 L 550 1500 550 1525" stroke="none" fill="#dbdbb4" fill-rule="evenodd"/><path d="M 0 25 L 0 50 25 50 L 50 50 50 75 L 50 100 25 100 L 0 100 0 675 L 0 1250 25 1250 L 50 1250 50 1275 L 50 1300 25 1300 L 0 1300 0 1325 L 0 1350 200 1350 L 400 1350 400 1375 L 400 1400 200 1400 L 0 1400 0 1425 L 0 1450 375 1450 L 750 1450 750 1475 L 750 1500 725 1500 L 700 1500 700 1525 L 700 1550 850 1550 L 1000 1550 1000 1575 L 1000 1600 1050 1600 L 1100 1600 1100 1575 L 1100 1550 1125 1550 L 1150 1550 1150 1575 L 1150 1600 1175 1600 L 1200 1600 1200 1575 L 1200 1550 1350 1550 L 1500 1550 1500 1525 L 1500 1500 1375 1500 L 1250 1500 1250 1475 L 1250 1450 1400 1450 L 1550 1450 1550 1375 L 1550 1300 1575 1300 L 1600 1300 1600 1324.667 L 1600 1349.333 1600.622 1348.711 L 1601.244 1348.089 1600.501 1299.045 L 1599.758 1250 1574.879 1250 L 1550 1250 1550 1225 L 1550 1200 1574.983 1200 L 1599.965 1200 1600.251 1224.750 L 1600.537 1249.500 1600.528 674 L 1600.519 98.500 1600.250 149.250 L 1599.982 200 1574.991 200 L 1550 200 1550 225 L 1550 250 1500 250 L 1450 250 1450 225 L 1450 200 1350 200 L 1250 200 1250 150 L 1250 100 900 100 L 550 100 550 75 L 550 50 625 50 L 700 50 700 25 L 700 0 350 0 L 0 0 0 25 M 750 25 L 750 50 800 50 L 850 50 850 25 L 850 0 800 0 L 750 0 750 25 M 900 25 L 900 50 950 50 L 1000 50 1000 25 L 1000 0 950 0 L 900 0 900 25 M 1050 25 L 1050 50 1075 50 L 1100 50 1100 25 L 1100 0 1075 0 L 1050 0 1050 25 M 100 75 L 100 100 300 100 L 500 100 500 75 L 500 50 300 50 L 100 50 100 75 M 0.497 675 L 0.497 1250.500 0.750 962.750 L 1.003 675 0.750 387.250 L 0.497 99.500 0.497 675 M 1300 125 L 1300 150 1375 150 L 1450 150 1450 125 L 1450 100 1375 100 L 1300 100 1300 125 M 100 175 L 100 200 225 200 L 350 200 350 175 L 350 150 225 150 L 100 150 100 175 M 400 175 L 400 200 450 200 L 500 200 500 175 L 500 150 450 150 L 400 150 400 175 M 950 175 L 950 200 1075 200 L 1200 200 1200 175 L 1200 150 1075 150 L 950 150 950 175 M 50 275 L 50 300 100 300 L 150 300 150 275 L 150 250 100 250 L 50 250 50 275 M 200 275 L 200 300 250 300 L 300 300 300 275 L 300 250 250 250 L 200 250 200 275 M 1550 275 L 1550 300 1500 300 L 1450 300 1450 350 L 1450 400 1475 400 L 1500 400 1500 425 L 1500 450 1525 450 L 1550 450 1550 475 L 1550 500 1450 500 L 1350 500 1350 525 L 1350 550 1450 550 L 1550 550 1550 575 L 1550 600 1525 600 L 1500 600 1500 625 L 1500 650 1525 650 L 1550 650 1550 675 L 1550 700 1500 700 L 1450 700 1450 725 L 1450 750 1500 750 L 1550 750 1550 775 L 1550 800 1425 800 L 1300 800 1300 825 L 1300 850 1425 850 L 1550 850 1550 875 L 1550 900 1500 900 L 1450 900 1450 925 L 1450 950 1525 950 L 1600 950 1600 650 L 1600 350 1575 350 L 1550 350 1550 325 L 1550 300 1575 300 L 1600 300 1600 275 L 1600 250 1575 250 L 1550 250 1550 275 M 500 325 L 500 350 550 350 L 600 350 600 325 L 600 300 550 300 L 500 300 500 325 M 700 325 L 700 350 725 350 L 750 350 750 325 L 750 300 725 300 L 700 300 700 325 M 1100 375 L 1100 400 1125 400 L 1150 400 1150 375 L 1150 350 1125 350 L 1100 350 1100 375 M 1500 375 L 1500 400 1525 400 L 1550 400 1550 375 L 1550 350 1525 350 L 1500 350 1500 375 M 1550 1025 L 1550 1050 1575 1050 L 1600 1050 1600 1025 L 1600 1000 1575 1000 L 1550 1000 1550 1025 M 1550 1125 L 1550 1150 1575 1150 L 1600 1150 1600 1125 L 1600 1100 1575 1100 L 1550 1100 1550 1125 M 100 1175 L 100 1200 125 1200 L 150 1200 150 1175 L 150 1150 125 1150 L 100 1150 100 1175 M 250 1175 L 250 1200 275 1200 L 300 1200 300 1175 L 300 1150 275 1150 L 250 1150 250 1175 M 0.435 1325 L 0.435 1350.500 0.747 1337.750 L 1.060 1325 0.747 1312.250 L 0.435 1299.500 0.435 1325 M 500 1375 L 500 1400 525 1400 L 550 1400 550 1375 L 550 1350 525 1350 L 500 1350 500 1375 M 1450 1375 L 1450 1400 1475 1400 L 1500 1400 1500 1375 L 1500 1350 1475 1350 L 1450 1350 1450 1375 M 0 1525 L 0 1550 25 1550 L 50 1550 50 1525 L 50 1500 25 1500 L 0 1500 0 1525 M 100 1525 L 100 1550 125 1550 L 150 1550 150 1525 L 150 1500 125 1500 L 100 1500 100 1525 M 250 1525 L 250 1550 275 1550 L 300 1550 300 1525 L 300 1500 275 1500 L 250 1500 250 1525 M 550 1525 L 550 1550 575 1550 L 600 1550 600 1525 L 600 1500 575 1500 L 550 1500 550 1525" stroke="none" fill="#dbdbb4" fill-rule="evenodd"/></svg>