<svg xmlns="http://www.w3.org/2000/svg" width="1600" height="1600" viewBox="0 0 1600 1600" version="1.1"><path d="M 250 75 L 250 100 275 100 L 300 100 300 75 L 300 50 275 50 L 250 50 250 75 M 350 75 L 350 100 400 100 L 450 100 450 75 L 450 50 400 50 L 350 50 350 75 M 550 75 L 550 100 575 100 L 600 100 600 75 L 600 50 575 50 L 550 50 550 75 M 700 75 L 700 100 750 100 L 800 100 800 75 L 800 50 750 50 L 700 50 700 75 M 850 75 L 850 100 900 100 L 950 100 950 75 L 950 50 900 50 L 850 50 850 75 M 150 175 L 150 200 325 200 L 500 200 500 225 L 500 250 525 250 L 550 250 550 225 L 550 200 575 200 L 600 200 600 225 L 600 250 650 250 L 700 250 700 225 L 700 200 725 200 L 750 200 750 225 L 750 250 800 250 L 850 250 850 225 L 850 200 875 200 L 900 200 900 225 L 900 250 1200 250 L 1500 250 1500 225 L 1500 200 1225 200 L 950 200 950 175 L 950 150 900 150 L 850 150 850 175 L 850 200 825 200 L 800 200 800 175 L 800 150 750 150 L 700 150 700 175 L 700 200 650 200 L 600 200 600 175 L 600 150 575 150 L 550 150 550 175 L 550 200 525 200 L 500 200 500 175 L 500 150 325 150 L 150 150 150 175 M 500 325 L 500 350 525 350 L 550 350 550 325 L 550 300 525 300 L 500 300 500 325 M 600 325 L 600 350 650 350 L 700 350 700 375 L 700 400 650 400 L 600 400 600 425 L 600 450 650 450 L 700 450 700 425 L 700 400 725 400 L 750 400 750 425 L 750 450 900 450 L 1050 450 1050 475 L 1050 500 900 500 L 750 500 750 525 L 750 550 975 550 L 1200 550 1200 575 L 1200 600 1125 600 L 1050 600 1050 625 L 1050 650 1025 650 L 1000 650 1000 625 L 1000 600 950 600 L 900 600 900 625 L 900 650 550 650 L 200 650 200 675 L 200 700 350 700 L 500 700 500 725 L 500 750 325 750 L 150 750 150 775 L 150 800 350 800 L 550 800 550 825 L 550 850 350 850 L 150 850 150 875 L 150 900 175 900 L 200 900 200 925 L 200 950 350 950 L 500 950 500 975 L 500 1000 400 1000 L 300 1000 300 1025 L 300 1050 725 1050 L 1150 1050 1150 1025 L 1150 1000 1025 1000 L 900 1000 900 975 L 900 950 1200 950 L 1500 950 1500 925 L 1500 900 1100 900 L 700 900 700 875 L 700 850 1025 850 L 1350 850 1350 825 L 1350 800 1025 800 L 700 800 700 775 L 700 750 1100 750 L 1500 750 1500 725 L 1500 700 1400 700 L 1300 700 1300 675 L 1300 650 1375 650 L 1450 650 1450 625 L 1450 600 1375 600 L 1300 600 1300 575 L 1300 550 1400 550 L 1500 550 1500 525 L 1500 500 1475 500 L 1450 500 1450 475 L 1450 450 1475 450 L 1500 450 1500 425 L 1500 400 1375 400 L 1250 400 1250 375 L 1250 350 1300 350 L 1350 350 1350 325 L 1350 300 1125 300 L 900 300 900 325 L 900 350 875 350 L 850 350 850 325 L 850 300 800 300 L 750 300 750 325 L 750 350 725 350 L 700 350 700 325 L 700 300 650 300 L 600 300 600 325 M 1400 325 L 1400 350 1450 350 L 1500 350 1500 325 L 1500 300 1450 300 L 1400 300 1400 325 M 800 375 L 800 400 825 400 L 850 400 850 375 L 850 350 825 350 L 800 350 800 375 M 950 375 L 950 400 1000 400 L 1050 400 1050 375 L 1050 350 1000 350 L 950 350 950 375 M 1100 375 L 1100 400 1150 400 L 1200 400 1200 375 L 1200 350 1150 350 L 1100 350 1100 375 M 1550 425 L 1550 450 1575 450 L 1600 450 1600 425 L 1600 400 1575 400 L 1550 400 1550 425 M 1150 475 L 1150 500 1175 500 L 1200 500 1200 475 L 1200 450 1175 450 L 1150 450 1150 475 M 1300 475 L 1300 500 1325 500 L 1350 500 1350 475 L 1350 450 1325 450 L 1300 450 1300 475 M 600 525 L 600 550 475 550 L 350 550 350 575 L 350 600 500 600 L 650 600 650 575 L 650 550 675 550 L 700 550 700 525 L 700 500 650 500 L 600 500 600 525 M 1550 525 L 1550 550 1575 550 L 1600 550 1600 525 L 1600 500 1575 500 L 1550 500 1550 525 M 1150 675 L 1150 700 1175 700 L 1200 700 1200 675 L 1200 650 1175 650 L 1150 650 1150 675 M 550 775 L 550 800 600 800 L 650 800 650 775 L 650 750 600 750 L 550 750 550 775 M 1400 825 L 1400 850 1425 850 L 1450 850 1450 825 L 1450 800 1425 800 L 1400 800 1400 825 M 550 875 L 550 900 600 900 L 650 900 650 875 L 650 850 600 850 L 550 850 550 875 M 550 975 L 550 1000 700 1000 L 850 1000 850 975 L 850 950 700 950 L 550 950 550 975 M 1200 1075 L 1200 1100 1250 1100 L 1300 1100 1300 1075 L 1300 1050 1250 1050 L 1200 1050 1200 1075 M 950 1125 L 950 1150 1000 1150 L 1050 1150 1050 1125 L 1050 1100 1000 1100 L 950 1100 950 1125 M 150 1225 L 150 1250 175 1250 L 200 1250 200 1275 L 200 1300 475 1300 L 750 1300 750 1325 L 750 1350 775 1350 L 800 1350 800 1375 L 800 1400 825 1400 L 850 1400 850 1375 L 850 1350 825 1350 L 800 1350 800 1325 L 800 1300 875 1300 L 950 1300 950 1275 L 950 1250 725 1250 L 500 1250 500 1225 L 500 1200 475 1200 L 450 1200 450 1225 L 450 1250 400 1250 L 350 1250 350 1225 L 350 1200 325 1200 L 300 1200 300 1225 L 300 1250 275 1250 L 250 1250 250 1225 L 250 1200 200 1200 L 150 1200 150 1225 M 1400 1275 L 1400 1300 1425 1300 L 1450 1300 1450 1275 L 1450 1250 1425 1250 L 1400 1250 1400 1275 M 200 1375 L 200 1400 450 1400 L 700 1400 700 1375 L 700 1350 450 1350 L 200 1350 200 1375 M 900 1375 L 900 1400 925 1400 L 950 1400 950 1375 L 950 1350 925 1350 L 900 1350 900 1375 M 1400 1375 L 1400 1400 1425 1400 L 1450 1400 1450 1375 L 1450 1350 1425 1350 L 1400 1350 1400 1375 M 200 1475 L 200 1500 450 1500 L 700 1500 700 1475 L 700 1450 450 1450 L 200 1450 200 1475 M 600 1575 L 600 1600 625 1600 L 650 1600 650 1575 L 650 1550 625 1550 L 600 1550 600 1575" stroke="none" fill="#4e5a29" fill-rule="evenodd"/><path d="M 250 75 L 250 100 275 100 L 300 100 300 75 L 300 50 275 50 L 250 50 250 75 M 350 75 L 350 100 400 100 L 450 100 450 75 L 450 50 400 50 L 350 50 350 75 M 550 75 L 550 100 575 100 L 600 100 600 75 L 600 50 575 50 L 550 50 550 75 M 700 75 L 700 100 750 100 L 800 100 800 75 L 800 50 750 50 L 700 50 700 75 M 850 75 L 850 100 900 100 L 950 100 950 75 L 950 50 900 50 L 850 50 850 75 M 150 175 L 150 200 325 200 L 500 200 500 225 L 500 250 525 250 L 550 250 550 225 L 550 200 575 200 L 600 200 600 225 L 600 250 650 250 L 700 250 700 225 L 700 200 725 200 L 750 200 750 225 L 750 250 800 250 L 850 250 850 225 L 850 200 875 200 L 900 200 900 225 L 900 250 1200 250 L 1500 250 1500 225 L 1500 200 1225 200 L 950 200 950 175 L 950 150 900 150 L 850 150 850 175 L 850 200 825 200 L 800 200 800 175 L 800 150 750 150 L 700 150 700 175 L 700 200 650 200 L 600 200 600 175 L 600 150 575 150 L 550 150 550 175 L 550 200 525 200 L 500 200 500 175 L 500 150 325 150 L 150 150 150 175 M 500 325 L 500 350 525 350 L 550 350 550 325 L 550 300 525 300 L 500 300 500 325 M 600 325 L 600 350 650 350 L 700 350 700 375 L 700 400 650 400 L 600 400 600 425 L 600 450 650 450 L 700 450 700 425 L 700 400 725 400 L 750 400 750 425 L 750 450 900 450 L 1050 450 1050 475 L 1050 500 900 500 L 750 500 750 525 L 750 550 975 550 L 1200 550 1200 575 L 1200 600 1125 600 L 1050 600 1050 625 L 1050 650 1025 650 L 1000 650 1000 625 L 1000 600 950 600 L 900 600 900 625 L 900 650 550 650 L 200 650 200 675 L 200 700 350 700 L 500 700 500 725 L 500 750 325 750 L 150 750 150 775 L 150 800 350 800 L 550 800 550 825 L 550 850 350 850 L 150 850 150 875 L 150 900 175 900 L 200 900 200 925 L 200 950 350 950 L 500 950 500 975 L 500 1000 400 1000 L 300 1000 300 1025 L 300 1050 725 1050 L 1150 1050 1150 1025 L 1150 1000 1025 1000 L 900 1000 900 975 L 900 950 1200 950 L 1500 950 1500 925 L 1500 900 1100 900 L 700 900 700 875 L 700 850 1025 850 L 1350 850 1350 825 L 1350 800 1025 800 L 700 800 700 775 L 700 750 1100 750 L 1500 750 1500 725 L 1500 700 1400 700 L 1300 700 1300 675 L 1300 650 1375 650 L 1450 650 1450 625 L 1450 600 1375 600 L 1300 600 1300 575 L 1300 550 1400 550 L 1500 550 1500 525 L 1500 500 1475 500 L 1450 500 1450 475 L 1450 450 1475 450 L 1500 450 1500 425 L 1500 400 1375 400 L 1250 400 1250 375 L 1250 350 1300 350 L 1350 350 1350 325 L 1350 300 1125 300 L 900 300 900 325 L 900 350 875 350 L 850 350 850 325 L 850 300 800 300 L 750 300 750 325 L 750 350 725 350 L 700 350 700 325 L 700 300 650 300 L 600 300 600 325 M 1400 325 L 1400 350 1450 350 L 1500 350 1500 325 L 1500 300 1450 300 L 1400 300 1400 325 M 800 375 L 800 400 825 400 L 850 400 850 375 L 850 350 825 350 L 800 350 800 375 M 950 375 L 950 400 1000 400 L 1050 400 1050 375 L 1050 350 1000 350 L 950 350 950 375 M 1100 375 L 1100 400 1150 400 L 1200 400 1200 375 L 1200 350 1150 350 L 1100 350 1100 375 M 1550 425 L 1550 450 1575 450 L 1600 450 1600 425 L 1600 400 1575 400 L 1550 400 1550 425 M 1150 475 L 1150 500 1175 500 L 1200 500 1200 475 L 1200 450 1175 450 L 1150 450 1150 475 M 1300 475 L 1300 500 1325 500 L 1350 500 1350 475 L 1350 450 1325 450 L 1300 450 1300 475 M 600 525 L 600 550 475 550 L 350 550 350 575 L 350 600 500 600 L 650 600 650 575 L 650 550 675 550 L 700 550 700 525 L 700 500 650 500 L 600 500 600 525 M 1550 525 L 1550 550 1575 550 L 1600 550 1600 525 L 1600 500 1575 500 L 1550 500 1550 525 M 1150 675 L 1150 700 1175 700 L 1200 700 1200 675 L 1200 650 1175 650 L 1150 650 1150 675 M 550 775 L 550 800 600 800 L 650 800 650 775 L 650 750 600 750 L 550 750 550 775 M 1400 825 L 1400 850 1425 850 L 1450 850 1450 825 L 1450 800 1425 800 L 1400 800 1400 825 M 550 875 L 550 900 600 900 L 650 900 650 875 L 650 850 600 850 L 550 850 550 875 M 550 975 L 550 1000 700 1000 L 850 1000 850 975 L 850 950 700 950 L 550 950 550 975 M 1200 1075 L 1200 1100 1250 1100 L 1300 1100 1300 1075 L 1300 1050 1250 1050 L 1200 1050 1200 1075 M 950 1125 L 950 1150 1000 1150 L 1050 1150 1050 1125 L 1050 1100 1000 1100 L 950 1100 950 1125 M 150 1225 L 150 1250 175 1250 L 200 1250 200 1275 L 200 1300 475 1300 L 750 1300 750 1325 L 750 1350 775 1350 L 800 1350 800 1375 L 800 1400 825 1400 L 850 1400 850 1375 L 850 1350 825 1350 L 800 1350 800 1325 L 800 1300 875 1300 L 950 1300 950 1275 L 950 1250 725 1250 L 500 1250 500 1225 L 500 1200 475 1200 L 450 1200 450 1225 L 450 1250 400 1250 L 350 1250 350 1225 L 350 1200 325 1200 L 300 1200 300 1225 L 300 1250 275 1250 L 250 1250 250 1225 L 250 1200 200 1200 L 150 1200 150 1225 M 1400 1275 L 1400 1300 1425 1300 L 1450 1300 1450 1275 L 1450 1250 1425 1250 L 1400 1250 1400 1275 M 200 1375 L 200 1400 450 1400 L 700 1400 700 1375 L 700 1350 450 1350 L 200 1350 200 1375 M 900 1375 L 900 1400 925 1400 L 950 1400 950 1375 L 950 1350 925 1350 L 900 1350 900 1375 M 1400 1375 L 1400 1400 1425 1400 L 1450 1400 1450 1375 L 1450 1350 1425 1350 L 1400 1350 1400 1375 M 200 1475 L 200 1500 450 1500 L 700 1500 700 1475 L 700 1450 450 1450 L 200 1450 200 1475 M 600 1575 L 600 1600 625 1600 L 650 1600 650 1575 L 650 1550 625 1550 L 600 1550 600 1575" stroke="none" fill="#4e5a29" fill-rule="evenodd"/><path d="M 250 75 L 250 100 275 100 L 300 100 300 75 L 300 50 275 50 L 250 50 250 75 M 350 75 L 350 100 400 100 L 450 100 450 75 L 450 50 400 50 L 350 50 350 75 M 550 75 L 550 100 575 100 L 600 100 600 75 L 600 50 575 50 L 550 50 550 75 M 700 75 L 700 100 750 100 L 800 100 800 75 L 800 50 750 50 L 700 50 700 75 M 850 75 L 850 100 900 100 L 950 100 950 75 L 950 50 900 50 L 850 50 850 75 M 150 175 L 150 200 325 200 L 500 200 500 225 L 500 250 525 250 L 550 250 550 225 L 550 200 575 200 L 600 200 600 225 L 600 250 650 250 L 700 250 700 225 L 700 200 725 200 L 750 200 750 225 L 750 250 800 250 L 850 250 850 225 L 850 200 875 200 L 900 200 900 225 L 900 250 1200 250 L 1500 250 1500 225 L 1500 200 1225 200 L 950 200 950 175 L 950 150 900 150 L 850 150 850 175 L 850 200 825 200 L 800 200 800 175 L 800 150 750 150 L 700 150 700 175 L 700 200 650 200 L 600 200 600 175 L 600 150 575 150 L 550 150 550 175 L 550 200 525 200 L 500 200 500 175 L 500 150 325 150 L 150 150 150 175 M 500 325 L 500 350 525 350 L 550 350 550 325 L 550 300 525 300 L 500 300 500 325 M 600 325 L 600 350 650 350 L 700 350 700 375 L 700 400 650 400 L 600 400 600 425 L 600 450 650 450 L 700 450 700 425 L 700 400 725 400 L 750 400 750 425 L 750 450 900 450 L 1050 450 1050 475 L 1050 500 900 500 L 750 500 750 525 L 750 550 975 550 L 1200 550 1200 575 L 1200 600 1125 600 L 1050 600 1050 625 L 1050 650 1025 650 L 1000 650 1000 625 L 1000 600 950 600 L 900 600 900 625 L 900 650 550 650 L 200 650 200 675 L 200 700 350 700 L 500 700 500 725 L 500 750 325 750 L 150 750 150 775 L 150 800 350 800 L 550 800 550 825 L 550 850 350 850 L 150 850 150 875 L 150 900 175 900 L 200 900 200 925 L 200 950 350 950 L 500 950 500 975 L 500 1000 400 1000 L 300 1000 300 1025 L 300 1050 725 1050 L 1150 1050 1150 1025 L 1150 1000 1025 1000 L 900 1000 900 975 L 900 950 1200 950 L 1500 950 1500 925 L 1500 900 1100 900 L 700 900 700 875 L 700 850 1025 850 L 1350 850 1350 825 L 1350 800 1025 800 L 700 800 700 775 L 700 750 1100 750 L 1500 750 1500 725 L 1500 700 1400 700 L 1300 700 1300 675 L 1300 650 1375 650 L 1450 650 1450 625 L 1450 600 1375 600 L 1300 600 1300 575 L 1300 550 1400 550 L 1500 550 1500 525 L 1500 500 1475 500 L 1450 500 1450 475 L 1450 450 1475 450 L 1500 450 1500 425 L 1500 400 1375 400 L 1250 400 1250 375 L 1250 350 1300 350 L 1350 350 1350 325 L 1350 300 1125 300 L 900 300 900 325 L 900 350 875 350 L 850 350 850 325 L 850 300 800 300 L 750 300 750 325 L 750 350 725 350 L 700 350 700 325 L 700 300 650 300 L 600 300 600 325 M 1400 325 L 1400 350 1450 350 L 1500 350 1500 325 L 1500 300 1450 300 L 1400 300 1400 325 M 800 375 L 800 400 825 400 L 850 400 850 375 L 850 350 825 350 L 800 350 800 375 M 950 375 L 950 400 1000 400 L 1050 400 1050 375 L 1050 350 1000 350 L 950 350 950 375 M 1100 375 L 1100 400 1150 400 L 1200 400 1200 375 L 1200 350 1150 350 L 1100 350 1100 375 M 1550 425 L 1550 450 1575 450 L 1600 450 1600 425 L 1600 400 1575 400 L 1550 400 1550 425 M 1150 475 L 1150 500 1175 500 L 1200 500 1200 475 L 1200 450 1175 450 L 1150 450 1150 475 M 1300 475 L 1300 500 1325 500 L 1350 500 1350 475 L 1350 450 1325 450 L 1300 450 1300 475 M 600 525 L 600 550 475 550 L 350 550 350 575 L 350 600 500 600 L 650 600 650 575 L 650 550 675 550 L 700 550 700 525 L 700 500 650 500 L 600 500 600 525 M 1550 525 L 1550 550 1575 550 L 1600 550 1600 525 L 1600 500 1575 500 L 1550 500 1550 525 M 1150 675 L 1150 700 1175 700 L 1200 700 1200 675 L 1200 650 1175 650 L 1150 650 1150 675 M 550 775 L 550 800 600 800 L 650 800 650 775 L 650 750 600 750 L 550 750 550 775 M 1400 825 L 1400 850 1425 850 L 1450 850 1450 825 L 1450 800 1425 800 L 1400 800 1400 825 M 550 875 L 550 900 600 900 L 650 900 650 875 L 650 850 600 850 L 550 850 550 875 M 550 975 L 550 1000 700 1000 L 850 1000 850 975 L 850 950 700 950 L 550 950 550 975 M 1200 1075 L 1200 1100 1250 1100 L 1300 1100 1300 1075 L 1300 1050 1250 1050 L 1200 1050 1200 1075 M 950 1125 L 950 1150 1000 1150 L 1050 1150 1050 1125 L 1050 1100 1000 1100 L 950 1100 950 1125 M 150 1225 L 150 1250 175 1250 L 200 1250 200 1275 L 200 1300 475 1300 L 750 1300 750 1325 L 750 1350 775 1350 L 800 1350 800 1375 L 800 1400 825 1400 L 850 1400 850 1375 L 850 1350 825 1350 L 800 1350 800 1325 L 800 1300 875 1300 L 950 1300 950 1275 L 950 1250 725 1250 L 500 1250 500 1225 L 500 1200 475 1200 L 450 1200 450 1225 L 450 1250 400 1250 L 350 1250 350 1225 L 350 1200 325 1200 L 300 1200 300 1225 L 300 1250 275 1250 L 250 1250 250 1225 L 250 1200 200 1200 L 150 1200 150 1225 M 1400 1275 L 1400 1300 1425 1300 L 1450 1300 1450 1275 L 1450 1250 1425 1250 L 1400 1250 1400 1275 M 200 1375 L 200 1400 450 1400 L 700 1400 700 1375 L 700 1350 450 1350 L 200 1350 200 1375 M 900 1375 L 900 1400 925 1400 L 950 1400 950 1375 L 950 1350 925 1350 L 900 1350 900 1375 M 1400 1375 L 1400 1400 1425 1400 L 1450 1400 1450 1375 L 1450 1350 1425 1350 L 1400 1350 1400 1375 M 200 1475 L 200 1500 450 1500 L 700 1500 700 1475 L 700 1450 450 1450 L 200 1450 200 1475 M 600 1575 L 600 1600 625 1600 L 650 1600 650 1575 L 650 1550 625 1550 L 600 1550 600 1575" stroke="none" fill="#4e5a29" fill-rule="evenodd"/><path d="M 450 75 L 450 150 475 150 L 500 150 500 175 L 500 200 375 200 L 250 200 250 225 L 250 250 200 250 L 150 250 150 200 L 150 150 75 150 L 0 150 0 175 L 0 200 50 200 L 100 200 100 225 L 100 250 50 250 L 0 250 0 275 L 0 300 100 300 L 200 300 200 325 L 200 350 100 350 L 0 350 0 375 L 0 400 125 400 L 250 400 250 425 L 250 450 125 450 L 0 450 0 475 L 0 500 125 500 L 250 500 250 525 L 250 550 150 550 L 50 550 50 625 L 50 700 25 700 L 0 700 0 750 L 0 800 25 800 L 50 800 50 825 L 50 850 25 850 L 0 850 0 1000 L 0 1150 25 1150 L 50 1150 50 1175 L 50 1200 25 1200 L 0 1200 0 1375 L 0 1550 25 1550 L 50 1550 50 1575 L 50 1600 325 1600 L 600 1600 600 1575 L 600 1550 625 1550 L 650 1550 650 1575 L 650 1600 1124.856 1600 L 1599.713 1600 1600.410 1554.250 L 1601.107 1508.500 1601 1153 L 1600.894 797.500 1600.288 673.750 L 1599.683 550 1574.841 550 L 1550 550 1550 525.017 L 1550 500.034 1575.250 499.767 L 1600.500 499.500 1600.767 474.500 L 1601.035 449.500 1575.517 449.783 L 1550 450.066 1550 400.033 L 1550 350 1575 350 L 1600 350 1600 374.667 L 1600 399.333 1600.622 398.711 L 1601.244 398.089 1600.501 349.045 L 1599.758 300 1574.879 300 L 1550 300 1550 275 L 1550 250 1575 250 L 1600 250 1600 274.667 L 1600 299.333 1600.622 298.711 L 1601.244 298.089 1600.501 249.045 L 1599.758 200 1574.879 200 L 1550 200 1550 175 L 1550 150 1475 150 L 1400 150 1400 125 L 1400 100 1375 100 L 1350 100 1350 50 L 1350 0 1275 0 L 1200 0 1200 25 L 1200 50 1175 50 L 1150 50 1150 25 L 1150 0 1125 0 L 1100 0 1100 25 L 1100 50 1025 50 L 950 50 950 75 L 950 100 925 100 L 900 100 900 125 L 900 150 925 150 L 950 150 950 175 L 950 200 1225 200 L 1500 200 1500 225 L 1500 250 1325 250 L 1150 250 1150 275 L 1150 300 1250 300 L 1350 300 1350 325 L 1350 350 1300 350 L 1250 350 1250 375 L 1250 400 1375 400 L 1500 400 1500 425 L 1500 450 1475 450 L 1450 450 1450 475 L 1450 500 1475 500 L 1500 500 1500 525 L 1500 550 1400 550 L 1300 550 1300 575 L 1300 600 1375 600 L 1450 600 1450 625 L 1450 650 1375 650 L 1300 650 1300 675 L 1300 700 1400 700 L 1500 700 1500 725 L 1500 750 1100 750 L 700 750 700 775 L 700 800 1025 800 L 1350 800 1350 825 L 1350 850 1025 850 L 700 850 700 875 L 700 900 1100 900 L 1500 900 1500 925 L 1500 950 1200 950 L 900 950 900 975 L 900 1000 1025 1000 L 1150 1000 1150 1025 L 1150 1050 725 1050 L 300 1050 300 1025 L 300 1000 400 1000 L 500 1000 500 975 L 500 950 350 950 L 200 950 200 925 L 200 900 175 900 L 150 900 150 875 L 150 850 125 850 L 100 850 100 825 L 100 800 125 800 L 150 800 150 775 L 150 750 325 750 L 500 750 500 725 L 500 700 350 700 L 200 700 200 675 L 200 650 225 650 L 250 650 250 625 L 250 600 300 600 L 350 600 350 575 L 350 550 475 550 L 600 550 600 525 L 600 500 650 500 L 700 500 700 525 L 700 550 675 550 L 650 550 650 575 L 650 600 575 600 L 500 600 500 625 L 500 650 700 650 L 900 650 900 625 L 900 600 950 600 L 1000 600 1000 625 L 1000 650 1025 650 L 1050 650 1050 625 L 1050 600 1125 600 L 1200 600 1200 575 L 1200 550 975 550 L 750 550 750 525 L 750 500 900 500 L 1050 500 1050 475 L 1050 450 900 450 L 750 450 750 425 L 750 400 725 400 L 700 400 700 375 L 700 350 725 350 L 750 350 750 325 L 750 300 775 300 L 800 300 800 275 L 800 250 775 250 L 750 250 750 225 L 750 200 725 200 L 700 200 700 100 L 700 0 650 0 L 600 0 600 100 L 600 200 575 200 L 550 200 550 100 L 550 0 500 0 L 450 0 450 75 M 0 75 L 0 100 125 100 L 250 100 250 75 L 250 50 125 50 L 0 50 0 75 M 300 75 L 300 100 325 100 L 350 100 350 75 L 350 50 325 50 L 300 50 300 75 M 800 75 L 800 100 775 100 L 750 100 750 125 L 750 150 775 150 L 800 150 800 175 L 800 200 825 200 L 850 200 850 275 L 850 350 825 350 L 800 350 800 375 L 800 400 825 400 L 850 400 850 375 L 850 350 875 350 L 900 350 900 325 L 900 300 925 300 L 950 300 950 275 L 950 250 925 250 L 900 250 900 225 L 900 200 875 200 L 850 200 850 125 L 850 50 825 50 L 800 50 800 75 M 1100 75 L 1100 100 1125 100 L 1150 100 1150 75 L 1150 50 1125 50 L 1100 50 1100 75 M 1250 75 L 1250 100 1275 100 L 1300 100 1300 75 L 1300 50 1275 50 L 1250 50 1250 75 M 1450 75 L 1450 100 1475 100 L 1500 100 1500 75 L 1500 50 1475 50 L 1450 50 1450 75 M 500 275 L 500 350 525 350 L 550 350 550 275 L 550 200 525 200 L 500 200 500 275 M 600 275 L 600 350 650 350 L 700 350 700 275 L 700 200 650 200 L 600 200 600 275 M 0.435 275 L 0.435 300.500 0.747 287.750 L 1.060 275 0.747 262.250 L 0.435 249.500 0.435 275 M 1050 275 L 1050 300 1075 300 L 1100 300 1100 275 L 1100 250 1075 250 L 1050 250 1050 275 M 1400 325 L 1400 350 1450 350 L 1500 350 1500 325 L 1500 300 1450 300 L 1400 300 1400 325 M 0.435 375 L 0.435 400.500 0.747 387.750 L 1.060 375 0.747 362.250 L 0.435 349.500 0.435 375 M 950 375 L 950 400 1000 400 L 1050 400 1050 375 L 1050 350 1000 350 L 950 350 950 375 M 1100 375 L 1100 400 1150 400 L 1200 400 1200 375 L 1200 350 1150 350 L 1100 350 1100 375 M 300 425 L 300 450 325 450 L 350 450 350 425 L 350 400 325 400 L 300 400 300 425 M 600 425 L 600 450 650 450 L 700 450 700 425 L 700 400 650 400 L 600 400 600 425 M 0.435 475 L 0.435 500.500 0.747 487.750 L 1.060 475 0.747 462.250 L 0.435 449.500 0.435 475 M 1150 475 L 1150 500 1175 500 L 1200 500 1200 475 L 1200 450 1175 450 L 1150 450 1150 475 M 1300 475 L 1300 500 1325 500 L 1350 500 1350 475 L 1350 450 1325 450 L 1300 450 1300 475 M 300 525 L 300 550 325 550 L 350 550 350 525 L 350 500 325 500 L 300 500 300 525 M 100 625 L 100 650 150 650 L 200 650 200 625 L 200 600 150 600 L 100 600 100 625 M 1150 675 L 1150 700 1175 700 L 1200 700 1200 675 L 1200 650 1175 650 L 1150 650 1150 675 M 0.464 750 L 0.464 800.500 0.749 775.250 L 1.034 750 0.749 724.750 L 0.464 699.500 0.464 750 M 100 725 L 100 750 125 750 L 150 750 150 725 L 150 700 125 700 L 100 700 100 725 M 550 775 L 550 800 375 800 L 200 800 200 825 L 200 850 375 850 L 550 850 550 875 L 550 900 600 900 L 650 900 650 875 L 650 850 600 850 L 550 850 550 825 L 550 800 600 800 L 650 800 650 775 L 650 750 600 750 L 550 750 550 775 M 1400 825 L 1400 850 1425 850 L 1450 850 1450 825 L 1450 800 1425 800 L 1400 800 1400 825 M 0.487 1000 L 0.487 1150.500 0.750 1075.250 L 1.013 1000 0.750 924.750 L 0.487 849.500 0.487 1000 M 550 975 L 550 1000 700 1000 L 850 1000 850 975 L 850 950 700 950 L 550 950 550 975 M 1200 1075 L 1200 1100 1250 1100 L 1300 1100 1300 1075 L 1300 1050 1250 1050 L 1200 1050 1200 1075 M 950 1125 L 950 1150 1000 1150 L 1050 1150 1050 1125 L 1050 1100 1000 1100 L 950 1100 950 1125 M 750 1175 L 750 1200 775 1200 L 800 1200 800 1175 L 800 1150 775 1150 L 750 1150 750 1175 M 0.489 1375 L 0.489 1550.500 0.750 1462.750 L 1.011 1375 0.750 1287.250 L 0.489 1199.500 0.489 1375 M 150 1225 L 150 1250 175 1250 L 200 1250 200 1275 L 200 1300 475 1300 L 750 1300 750 1325 L 750 1350 775 1350 L 800 1350 800 1375 L 800 1400 825 1400 L 850 1400 850 1375 L 850 1350 825 1350 L 800 1350 800 1325 L 800 1300 875 1300 L 950 1300 950 1275 L 950 1250 725 1250 L 500 1250 500 1225 L 500 1200 475 1200 L 450 1200 450 1225 L 450 1250 400 1250 L 350 1250 350 1225 L 350 1200 325 1200 L 300 1200 300 1225 L 300 1250 275 1250 L 250 1250 250 1225 L 250 1200 200 1200 L 150 1200 150 1225 M 1400 1275 L 1400 1300 1425 1300 L 1450 1300 1450 1275 L 1450 1250 1425 1250 L 1400 1250 1400 1275 M 200 1375 L 200 1400 450 1400 L 700 1400 700 1375 L 700 1350 450 1350 L 200 1350 200 1375 M 900 1375 L 900 1400 925 1400 L 950 1400 950 1375 L 950 1350 925 1350 L 900 1350 900 1375 M 1400 1375 L 1400 1400 1425 1400 L 1450 1400 1450 1375 L 1450 1350 1425 1350 L 1400 1350 1400 1375 M 200 1475 L 200 1500 450 1500 L 700 1500 700 1475 L 700 1450 450 1450 L 200 1450 200 1475 M 950 1525 L 950 1550 1075 1550 L 1200 1550 1200 1525 L 1200 1500 1075 1500 L 950 1500 950 1525 M 1250 1525 L 1250 1550 1275 1550 L 1300 1550 1300 1525 L 1300 1500 1275 1500 L 1250 1500 1250 1525 M 1350 1525 L 1350 1550 1375 1550 L 1400 1550 1400 1525 L 1400 1500 1375 1500 L 1350 1500 1350 1525" stroke="none" fill="#5f743d" fill-rule="evenodd"/><path d="M 250 75 L 250 100 275 100 L 300 100 300 75 L 300 50 275 50 L 250 50 250 75 M 350 75 L 350 100 400 100 L 450 100 450 75 L 450 50 400 50 L 350 50 350 75 M 550 75 L 550 100 575 100 L 600 100 600 75 L 600 50 575 50 L 550 50 550 75 M 700 75 L 700 100 750 100 L 800 100 800 75 L 800 50 750 50 L 700 50 700 75 M 850 75 L 850 100 900 100 L 950 100 950 75 L 950 50 900 50 L 850 50 850 75 M 150 175 L 150 200 325 200 L 500 200 500 225 L 500 250 525 250 L 550 250 550 225 L 550 200 575 200 L 600 200 600 225 L 600 250 650 250 L 700 250 700 225 L 700 200 725 200 L 750 200 750 225 L 750 250 800 250 L 850 250 850 225 L 850 200 875 200 L 900 200 900 225 L 900 250 1200 250 L 1500 250 1500 225 L 1500 200 1225 200 L 950 200 950 175 L 950 150 900 150 L 850 150 850 175 L 850 200 825 200 L 800 200 800 175 L 800 150 750 150 L 700 150 700 175 L 700 200 650 200 L 600 200 600 175 L 600 150 575 150 L 550 150 550 175 L 550 200 525 200 L 500 200 500 175 L 500 150 325 150 L 150 150 150 175 M 500 325 L 500 350 525 350 L 550 350 550 325 L 550 300 525 300 L 500 300 500 325 M 600 325 L 600 350 650 350 L 700 350 700 375 L 700 400 650 400 L 600 400 600 425 L 600 450 650 450 L 700 450 700 425 L 700 400 725 400 L 750 400 750 425 L 750 450 900 450 L 1050 450 1050 475 L 1050 500 900 500 L 750 500 750 525 L 750 550 975 550 L 1200 550 1200 575 L 1200 600 1125 600 L 1050 600 1050 625 L 1050 650 1025 650 L 1000 650 1000 625 L 1000 600 950 600 L 900 600 900 625 L 900 650 550 650 L 200 650 200 675 L 200 700 350 700 L 500 700 500 725 L 500 750 325 750 L 150 750 150 775 L 150 800 350 800 L 550 800 550 825 L 550 850 350 850 L 150 850 150 875 L 150 900 175 900 L 200 900 200 925 L 200 950 350 950 L 500 950 500 975 L 500 1000 400 1000 L 300 1000 300 1025 L 300 1050 725 1050 L 1150 1050 1150 1025 L 1150 1000 1025 1000 L 900 1000 900 975 L 900 950 1200 950 L 1500 950 1500 925 L 1500 900 1100 900 L 700 900 700 875 L 700 850 1025 850 L 1350 850 1350 825 L 1350 800 1025 800 L 700 800 700 775 L 700 750 1100 750 L 1500 750 1500 725 L 1500 700 1400 700 L 1300 700 1300 675 L 1300 650 1375 650 L 1450 650 1450 625 L 1450 600 1375 600 L 1300 600 1300 575 L 1300 550 1400 550 L 1500 550 1500 525 L 1500 500 1475 500 L 1450 500 1450 475 L 1450 450 1475 450 L 1500 450 1500 425 L 1500 400 1375 400 L 1250 400 1250 375 L 1250 350 1300 350 L 1350 350 1350 325 L 1350 300 1125 300 L 900 300 900 325 L 900 350 875 350 L 850 350 850 325 L 850 300 800 300 L 750 300 750 325 L 750 350 725 350 L 700 350 700 325 L 700 300 650 300 L 600 300 600 325 M 1400 325 L 1400 350 1450 350 L 1500 350 1500 325 L 1500 300 1450 300 L 1400 300 1400 325 M 800 375 L 800 400 825 400 L 850 400 850 375 L 850 350 825 350 L 800 350 800 375 M 950 375 L 950 400 1000 400 L 1050 400 1050 375 L 1050 350 1000 350 L 950 350 950 375 M 1100 375 L 1100 400 1150 400 L 1200 400 1200 375 L 1200 350 1150 350 L 1100 350 1100 375 M 1550 425 L 1550 450 1575 450 L 1600 450 1600 425 L 1600 400 1575 400 L 1550 400 1550 425 M 1150 475 L 1150 500 1175 500 L 1200 500 1200 475 L 1200 450 1175 450 L 1150 450 1150 475 M 1300 475 L 1300 500 1325 500 L 1350 500 1350 475 L 1350 450 1325 450 L 1300 450 1300 475 M 600 525 L 600 550 475 550 L 350 550 350 575 L 350 600 500 600 L 650 600 650 575 L 650 550 675 550 L 700 550 700 525 L 700 500 650 500 L 600 500 600 525 M 1550 525 L 1550 550 1575 550 L 1600 550 1600 525 L 1600 500 1575 500 L 1550 500 1550 525 M 1150 675 L 1150 700 1175 700 L 1200 700 1200 675 L 1200 650 1175 650 L 1150 650 1150 675 M 550 775 L 550 800 600 800 L 650 800 650 775 L 650 750 600 750 L 550 750 550 775 M 1400 825 L 1400 850 1425 850 L 1450 850 1450 825 L 1450 800 1425 800 L 1400 800 1400 825 M 550 875 L 550 900 600 900 L 650 900 650 875 L 650 850 600 850 L 550 850 550 875 M 550 975 L 550 1000 700 1000 L 850 1000 850 975 L 850 950 700 950 L 550 950 550 975 M 1200 1075 L 1200 1100 1250 1100 L 1300 1100 1300 1075 L 1300 1050 1250 1050 L 1200 1050 1200 1075 M 950 1125 L 950 1150 1000 1150 L 1050 1150 1050 1125 L 1050 1100 1000 1100 L 950 1100 950 1125 M 150 1225 L 150 1250 175 1250 L 200 1250 200 1275 L 200 1300 475 1300 L 750 1300 750 1325 L 750 1350 775 1350 L 800 1350 800 1375 L 800 1400 825 1400 L 850 1400 850 1375 L 850 1350 825 1350 L 800 1350 800 1325 L 800 1300 875 1300 L 950 1300 950 1275 L 950 1250 725 1250 L 500 1250 500 1225 L 500 1200 475 1200 L 450 1200 450 1225 L 450 1250 400 1250 L 350 1250 350 1225 L 350 1200 325 1200 L 300 1200 300 1225 L 300 1250 275 1250 L 250 1250 250 1225 L 250 1200 200 1200 L 150 1200 150 1225 M 1400 1275 L 1400 1300 1425 1300 L 1450 1300 1450 1275 L 1450 1250 1425 1250 L 1400 1250 1400 1275 M 200 1375 L 200 1400 450 1400 L 700 1400 700 1375 L 700 1350 450 1350 L 200 1350 200 1375 M 900 1375 L 900 1400 925 1400 L 950 1400 950 1375 L 950 1350 925 1350 L 900 1350 900 1375 M 1400 1375 L 1400 1400 1425 1400 L 1450 1400 1450 1375 L 1450 1350 1425 1350 L 1400 1350 1400 1375 M 200 1475 L 200 1500 450 1500 L 700 1500 700 1475 L 700 1450 450 1450 L 200 1450 200 1475 M 600 1575 L 600 1600 625 1600 L 650 1600 650 1575 L 650 1550 625 1550 L 600 1550 600 1575" stroke="none" fill="#4e5a29" fill-rule="evenodd"/><path d="M 250 75 L 250 100 275 100 L 300 100 300 75 L 300 50 275 50 L 250 50 250 75 M 350 75 L 350 100 400 100 L 450 100 450 75 L 450 50 400 50 L 350 50 350 75 M 550 75 L 550 100 575 100 L 600 100 600 75 L 600 50 575 50 L 550 50 550 75 M 700 75 L 700 100 750 100 L 800 100 800 75 L 800 50 750 50 L 700 50 700 75 M 850 75 L 850 100 900 100 L 950 100 950 75 L 950 50 900 50 L 850 50 850 75 M 150 175 L 150 200 325 200 L 500 200 500 225 L 500 250 525 250 L 550 250 550 225 L 550 200 575 200 L 600 200 600 225 L 600 250 650 250 L 700 250 700 225 L 700 200 725 200 L 750 200 750 225 L 750 250 800 250 L 850 250 850 225 L 850 200 875 200 L 900 200 900 225 L 900 250 1200 250 L 1500 250 1500 225 L 1500 200 1225 200 L 950 200 950 175 L 950 150 900 150 L 850 150 850 175 L 850 200 825 200 L 800 200 800 175 L 800 150 750 150 L 700 150 700 175 L 700 200 650 200 L 600 200 600 175 L 600 150 575 150 L 550 150 550 175 L 550 200 525 200 L 500 200 500 175 L 500 150 325 150 L 150 150 150 175 M 500 325 L 500 350 525 350 L 550 350 550 325 L 550 300 525 300 L 500 300 500 325 M 600 325 L 600 350 650 350 L 700 350 700 375 L 700 400 650 400 L 600 400 600 425 L 600 450 650 450 L 700 450 700 425 L 700 400 725 400 L 750 400 750 425 L 750 450 900 450 L 1050 450 1050 475 L 1050 500 900 500 L 750 500 750 525 L 750 550 975 550 L 1200 550 1200 575 L 1200 600 1125 600 L 1050 600 1050 625 L 1050 650 1025 650 L 1000 650 1000 625 L 1000 600 950 600 L 900 600 900 625 L 900 650 550 650 L 200 650 200 675 L 200 700 350 700 L 500 700 500 725 L 500 750 325 750 L 150 750 150 775 L 150 800 350 800 L 550 800 550 825 L 550 850 350 850 L 150 850 150 875 L 150 900 175 900 L 200 900 200 925 L 200 950 350 950 L 500 950 500 975 L 500 1000 400 1000 L 300 1000 300 1025 L 300 1050 725 1050 L 1150 1050 1150 1025 L 1150 1000 1025 1000 L 900 1000 900 975 L 900 950 1200 950 L 1500 950 1500 925 L 1500 900 1100 900 L 700 900 700 875 L 700 850 1025 850 L 1350 850 1350 825 L 1350 800 1025 800 L 700 800 700 775 L 700 750 1100 750 L 1500 750 1500 725 L 1500 700 1400 700 L 1300 700 1300 675 L 1300 650 1375 650 L 1450 650 1450 625 L 1450 600 1375 600 L 1300 600 1300 575 L 1300 550 1400 550 L 1500 550 1500 525 L 1500 500 1475 500 L 1450 500 1450 475 L 1450 450 1475 450 L 1500 450 1500 425 L 1500 400 1375 400 L 1250 400 1250 375 L 1250 350 1300 350 L 1350 350 1350 325 L 1350 300 1125 300 L 900 300 900 325 L 900 350 875 350 L 850 350 850 325 L 850 300 800 300 L 750 300 750 325 L 750 350 725 350 L 700 350 700 325 L 700 300 650 300 L 600 300 600 325 M 1400 325 L 1400 350 1450 350 L 1500 350 1500 325 L 1500 300 1450 300 L 1400 300 1400 325 M 800 375 L 800 400 825 400 L 850 400 850 375 L 850 350 825 350 L 800 350 800 375 M 950 375 L 950 400 1000 400 L 1050 400 1050 375 L 1050 350 1000 350 L 950 350 950 375 M 1100 375 L 1100 400 1150 400 L 1200 400 1200 375 L 1200 350 1150 350 L 1100 350 1100 375 M 1550 425 L 1550 450 1575 450 L 1600 450 1600 425 L 1600 400 1575 400 L 1550 400 1550 425 M 1150 475 L 1150 500 1175 500 L 1200 500 1200 475 L 1200 450 1175 450 L 1150 450 1150 475 M 1300 475 L 1300 500 1325 500 L 1350 500 1350 475 L 1350 450 1325 450 L 1300 450 1300 475 M 600 525 L 600 550 475 550 L 350 550 350 575 L 350 600 500 600 L 650 600 650 575 L 650 550 675 550 L 700 550 700 525 L 700 500 650 500 L 600 500 600 525 M 1550 525 L 1550 550 1575 550 L 1600 550 1600 525 L 1600 500 1575 500 L 1550 500 1550 525 M 1150 675 L 1150 700 1175 700 L 1200 700 1200 675 L 1200 650 1175 650 L 1150 650 1150 675 M 550 775 L 550 800 600 800 L 650 800 650 775 L 650 750 600 750 L 550 750 550 775 M 1400 825 L 1400 850 1425 850 L 1450 850 1450 825 L 1450 800 1425 800 L 1400 800 1400 825 M 550 875 L 550 900 600 900 L 650 900 650 875 L 650 850 600 850 L 550 850 550 875 M 550 975 L 550 1000 700 1000 L 850 1000 850 975 L 850 950 700 950 L 550 950 550 975 M 1200 1075 L 1200 1100 1250 1100 L 1300 1100 1300 1075 L 1300 1050 1250 1050 L 1200 1050 1200 1075 M 950 1125 L 950 1150 1000 1150 L 1050 1150 1050 1125 L 1050 1100 1000 1100 L 950 1100 950 1125 M 150 1225 L 150 1250 175 1250 L 200 1250 200 1275 L 200 1300 475 1300 L 750 1300 750 1325 L 750 1350 775 1350 L 800 1350 800 1375 L 800 1400 825 1400 L 850 1400 850 1375 L 850 1350 825 1350 L 800 1350 800 1325 L 800 1300 875 1300 L 950 1300 950 1275 L 950 1250 725 1250 L 500 1250 500 1225 L 500 1200 475 1200 L 450 1200 450 1225 L 450 1250 400 1250 L 350 1250 350 1225 L 350 1200 325 1200 L 300 1200 300 1225 L 300 1250 275 1250 L 250 1250 250 1225 L 250 1200 200 1200 L 150 1200 150 1225 M 1400 1275 L 1400 1300 1425 1300 L 1450 1300 1450 1275 L 1450 1250 1425 1250 L 1400 1250 1400 1275 M 200 1375 L 200 1400 450 1400 L 700 1400 700 1375 L 700 1350 450 1350 L 200 1350 200 1375 M 900 1375 L 900 1400 925 1400 L 950 1400 950 1375 L 950 1350 925 1350 L 900 1350 900 1375 M 1400 1375 L 1400 1400 1425 1400 L 1450 1400 1450 1375 L 1450 1350 1425 1350 L 1400 1350 1400 1375 M 200 1475 L 200 1500 450 1500 L 700 1500 700 1475 L 700 1450 450 1450 L 200 1450 200 1475 M 600 1575 L 600 1600 625 1600 L 650 1600 650 1575 L 650 1550 625 1550 L 600 1550 600 1575" stroke="none" fill="#4e5a29" fill-rule="evenodd"/><path d="M 250 75 L 250 100 275 100 L 300 100 300 75 L 300 50 275 50 L 250 50 250 75 M 350 75 L 350 100 400 100 L 450 100 450 75 L 450 50 400 50 L 350 50 350 75 M 550 75 L 550 100 575 100 L 600 100 600 75 L 600 50 575 50 L 550 50 550 75 M 700 75 L 700 100 750 100 L 800 100 800 75 L 800 50 750 50 L 700 50 700 75 M 850 75 L 850 100 900 100 L 950 100 950 75 L 950 50 900 50 L 850 50 850 75 M 150 175 L 150 200 325 200 L 500 200 500 225 L 500 250 525 250 L 550 250 550 225 L 550 200 575 200 L 600 200 600 225 L 600 250 650 250 L 700 250 700 225 L 700 200 725 200 L 750 200 750 225 L 750 250 800 250 L 850 250 850 225 L 850 200 875 200 L 900 200 900 225 L 900 250 1200 250 L 1500 250 1500 225 L 1500 200 1225 200 L 950 200 950 175 L 950 150 900 150 L 850 150 850 175 L 850 200 825 200 L 800 200 800 175 L 800 150 750 150 L 700 150 700 175 L 700 200 650 200 L 600 200 600 175 L 600 150 575 150 L 550 150 550 175 L 550 200 525 200 L 500 200 500 175 L 500 150 325 150 L 150 150 150 175 M 500 325 L 500 350 525 350 L 550 350 550 325 L 550 300 525 300 L 500 300 500 325 M 600 325 L 600 350 650 350 L 700 350 700 375 L 700 400 650 400 L 600 400 600 425 L 600 450 650 450 L 700 450 700 425 L 700 400 725 400 L 750 400 750 425 L 750 450 900 450 L 1050 450 1050 475 L 1050 500 900 500 L 750 500 750 525 L 750 550 975 550 L 1200 550 1200 575 L 1200 600 1125 600 L 1050 600 1050 625 L 1050 650 1025 650 L 1000 650 1000 625 L 1000 600 950 600 L 900 600 900 625 L 900 650 550 650 L 200 650 200 675 L 200 700 350 700 L 500 700 500 725 L 500 750 325 750 L 150 750 150 775 L 150 800 350 800 L 550 800 550 825 L 550 850 350 850 L 150 850 150 875 L 150 900 175 900 L 200 900 200 925 L 200 950 350 950 L 500 950 500 975 L 500 1000 400 1000 L 300 1000 300 1025 L 300 1050 725 1050 L 1150 1050 1150 1025 L 1150 1000 1025 1000 L 900 1000 900 975 L 900 950 1200 950 L 1500 950 1500 925 L 1500 900 1100 900 L 700 900 700 875 L 700 850 1025 850 L 1350 850 1350 825 L 1350 800 1025 800 L 700 800 700 775 L 700 750 1100 750 L 1500 750 1500 725 L 1500 700 1400 700 L 1300 700 1300 675 L 1300 650 1375 650 L 1450 650 1450 625 L 1450 600 1375 600 L 1300 600 1300 575 L 1300 550 1400 550 L 1500 550 1500 525 L 1500 500 1475 500 L 1450 500 1450 475 L 1450 450 1475 450 L 1500 450 1500 425 L 1500 400 1375 400 L 1250 400 1250 375 L 1250 350 1300 350 L 1350 350 1350 325 L 1350 300 1125 300 L 900 300 900 325 L 900 350 875 350 L 850 350 850 325 L 850 300 800 300 L 750 300 750 325 L 750 350 725 350 L 700 350 700 325 L 700 300 650 300 L 600 300 600 325 M 1400 325 L 1400 350 1450 350 L 1500 350 1500 325 L 1500 300 1450 300 L 1400 300 1400 325 M 800 375 L 800 400 825 400 L 850 400 850 375 L 850 350 825 350 L 800 350 800 375 M 950 375 L 950 400 1000 400 L 1050 400 1050 375 L 1050 350 1000 350 L 950 350 950 375 M 1100 375 L 1100 400 1150 400 L 1200 400 1200 375 L 1200 350 1150 350 L 1100 350 1100 375 M 1550 425 L 1550 450 1575 450 L 1600 450 1600 425 L 1600 400 1575 400 L 1550 400 1550 425 M 1150 475 L 1150 500 1175 500 L 1200 500 1200 475 L 1200 450 1175 450 L 1150 450 1150 475 M 1300 475 L 1300 500 1325 500 L 1350 500 1350 475 L 1350 450 1325 450 L 1300 450 1300 475 M 600 525 L 600 550 475 550 L 350 550 350 575 L 350 600 500 600 L 650 600 650 575 L 650 550 675 550 L 700 550 700 525 L 700 500 650 500 L 600 500 600 525 M 1550 525 L 1550 550 1575 550 L 1600 550 1600 525 L 1600 500 1575 500 L 1550 500 1550 525 M 1150 675 L 1150 700 1175 700 L 1200 700 1200 675 L 1200 650 1175 650 L 1150 650 1150 675 M 550 775 L 550 800 600 800 L 650 800 650 775 L 650 750 600 750 L 550 750 550 775 M 1400 825 L 1400 850 1425 850 L 1450 850 1450 825 L 1450 800 1425 800 L 1400 800 1400 825 M 550 875 L 550 900 600 900 L 650 900 650 875 L 650 850 600 850 L 550 850 550 875 M 550 975 L 550 1000 700 1000 L 850 1000 850 975 L 850 950 700 950 L 550 950 550 975 M 1200 1075 L 1200 1100 1250 1100 L 1300 1100 1300 1075 L 1300 1050 1250 1050 L 1200 1050 1200 1075 M 950 1125 L 950 1150 1000 1150 L 1050 1150 1050 1125 L 1050 1100 1000 1100 L 950 1100 950 1125 M 150 1225 L 150 1250 175 1250 L 200 1250 200 1275 L 200 1300 475 1300 L 750 1300 750 1325 L 750 1350 775 1350 L 800 1350 800 1375 L 800 1400 825 1400 L 850 1400 850 1375 L 850 1350 825 1350 L 800 1350 800 1325 L 800 1300 875 1300 L 950 1300 950 1275 L 950 1250 725 1250 L 500 1250 500 1225 L 500 1200 475 1200 L 450 1200 450 1225 L 450 1250 400 1250 L 350 1250 350 1225 L 350 1200 325 1200 L 300 1200 300 1225 L 300 1250 275 1250 L 250 1250 250 1225 L 250 1200 200 1200 L 150 1200 150 1225 M 1400 1275 L 1400 1300 1425 1300 L 1450 1300 1450 1275 L 1450 1250 1425 1250 L 1400 1250 1400 1275 M 200 1375 L 200 1400 450 1400 L 700 1400 700 1375 L 700 1350 450 1350 L 200 1350 200 1375 M 900 1375 L 900 1400 925 1400 L 950 1400 950 1375 L 950 1350 925 1350 L 900 1350 900 1375 M 1400 1375 L 1400 1400 1425 1400 L 1450 1400 1450 1375 L 1450 1350 1425 1350 L 1400 1350 1400 1375 M 200 1475 L 200 1500 450 1500 L 700 1500 700 1475 L 700 1450 450 1450 L 200 1450 200 1475 M 600 1575 L 600 1600 625 1600 L 650 1600 650 1575 L 650 1550 625 1550 L 600 1550 600 1575" stroke="none" fill="#4e5a29" fill-rule="evenodd"/><path d="M 250 75 L 250 100 275 100 L 300 100 300 75 L 300 50 275 50 L 250 50 250 75 M 350 75 L 350 100 400 100 L 450 100 450 75 L 450 50 400 50 L 350 50 350 75 M 550 75 L 550 100 575 100 L 600 100 600 75 L 600 50 575 50 L 550 50 550 75 M 700 75 L 700 100 750 100 L 800 100 800 75 L 800 50 750 50 L 700 50 700 75 M 850 75 L 850 100 900 100 L 950 100 950 75 L 950 50 900 50 L 850 50 850 75 M 150 175 L 150 200 325 200 L 500 200 500 225 L 500 250 525 250 L 550 250 550 225 L 550 200 575 200 L 600 200 600 225 L 600 250 650 250 L 700 250 700 225 L 700 200 725 200 L 750 200 750 225 L 750 250 800 250 L 850 250 850 225 L 850 200 875 200 L 900 200 900 225 L 900 250 1200 250 L 1500 250 1500 225 L 1500 200 1225 200 L 950 200 950 175 L 950 150 900 150 L 850 150 850 175 L 850 200 825 200 L 800 200 800 175 L 800 150 750 150 L 700 150 700 175 L 700 200 650 200 L 600 200 600 175 L 600 150 575 150 L 550 150 550 175 L 550 200 525 200 L 500 200 500 175 L 500 150 325 150 L 150 150 150 175 M 500 325 L 500 350 525 350 L 550 350 550 325 L 550 300 525 300 L 500 300 500 325 M 600 325 L 600 350 650 350 L 700 350 700 375 L 700 400 650 400 L 600 400 600 425 L 600 450 650 450 L 700 450 700 425 L 700 400 725 400 L 750 400 750 425 L 750 450 900 450 L 1050 450 1050 475 L 1050 500 900 500 L 750 500 750 525 L 750 550 975 550 L 1200 550 1200 575 L 1200 600 1125 600 L 1050 600 1050 625 L 1050 650 1025 650 L 1000 650 1000 625 L 1000 600 950 600 L 900 600 900 625 L 900 650 550 650 L 200 650 200 675 L 200 700 350 700 L 500 700 500 725 L 500 750 325 750 L 150 750 150 775 L 150 800 350 800 L 550 800 550 825 L 550 850 350 850 L 150 850 150 875 L 150 900 175 900 L 200 900 200 925 L 200 950 350 950 L 500 950 500 975 L 500 1000 400 1000 L 300 1000 300 1025 L 300 1050 725 1050 L 1150 1050 1150 1025 L 1150 1000 1025 1000 L 900 1000 900 975 L 900 950 1200 950 L 1500 950 1500 925 L 1500 900 1100 900 L 700 900 700 875 L 700 850 1025 850 L 1350 850 1350 825 L 1350 800 1025 800 L 700 800 700 775 L 700 750 1100 750 L 1500 750 1500 725 L 1500 700 1400 700 L 1300 700 1300 675 L 1300 650 1375 650 L 1450 650 1450 625 L 1450 600 1375 600 L 1300 600 1300 575 L 1300 550 1400 550 L 1500 550 1500 525 L 1500 500 1475 500 L 1450 500 1450 475 L 1450 450 1475 450 L 1500 450 1500 425 L 1500 400 1375 400 L 1250 400 1250 375 L 1250 350 1300 350 L 1350 350 1350 325 L 1350 300 1125 300 L 900 300 900 325 L 900 350 875 350 L 850 350 850 325 L 850 300 800 300 L 750 300 750 325 L 750 350 725 350 L 700 350 700 325 L 700 300 650 300 L 600 300 600 325 M 1400 325 L 1400 350 1450 350 L 1500 350 1500 325 L 1500 300 1450 300 L 1400 300 1400 325 M 800 375 L 800 400 825 400 L 850 400 850 375 L 850 350 825 350 L 800 350 800 375 M 950 375 L 950 400 1000 400 L 1050 400 1050 375 L 1050 350 1000 350 L 950 350 950 375 M 1100 375 L 1100 400 1150 400 L 1200 400 1200 375 L 1200 350 1150 350 L 1100 350 1100 375 M 1550 425 L 1550 450 1575 450 L 1600 450 1600 425 L 1600 400 1575 400 L 1550 400 1550 425 M 1150 475 L 1150 500 1175 500 L 1200 500 1200 475 L 1200 450 1175 450 L 1150 450 1150 475 M 1300 475 L 1300 500 1325 500 L 1350 500 1350 475 L 1350 450 1325 450 L 1300 450 1300 475 M 600 525 L 600 550 475 550 L 350 550 350 575 L 350 600 500 600 L 650 600 650 575 L 650 550 675 550 L 700 550 700 525 L 700 500 650 500 L 600 500 600 525 M 1550 525 L 1550 550 1575 550 L 1600 550 1600 525 L 1600 500 1575 500 L 1550 500 1550 525 M 1150 675 L 1150 700 1175 700 L 1200 700 1200 675 L 1200 650 1175 650 L 1150 650 1150 675 M 550 775 L 550 800 600 800 L 650 800 650 775 L 650 750 600 750 L 550 750 550 775 M 1400 825 L 1400 850 1425 850 L 1450 850 1450 825 L 1450 800 1425 800 L 1400 800 1400 825 M 550 875 L 550 900 600 900 L 650 900 650 875 L 650 850 600 850 L 550 850 550 875 M 550 975 L 550 1000 700 1000 L 850 1000 850 975 L 850 950 700 950 L 550 950 550 975 M 1200 1075 L 1200 1100 1250 1100 L 1300 1100 1300 1075 L 1300 1050 1250 1050 L 1200 1050 1200 1075 M 950 1125 L 950 1150 1000 1150 L 1050 1150 1050 1125 L 1050 1100 1000 1100 L 950 1100 950 1125 M 150 1225 L 150 1250 175 1250 L 200 1250 200 1275 L 200 1300 475 1300 L 750 1300 750 1325 L 750 1350 775 1350 L 800 1350 800 1375 L 800 1400 825 1400 L 850 1400 850 1375 L 850 1350 825 1350 L 800 1350 800 1325 L 800 1300 875 1300 L 950 1300 950 1275 L 950 1250 725 1250 L 500 1250 500 1225 L 500 1200 475 1200 L 450 1200 450 1225 L 450 1250 400 1250 L 350 1250 350 1225 L 350 1200 325 1200 L 300 1200 300 1225 L 300 1250 275 1250 L 250 1250 250 1225 L 250 1200 200 1200 L 150 1200 150 1225 M 1400 1275 L 1400 1300 1425 1300 L 1450 1300 1450 1275 L 1450 1250 1425 1250 L 1400 1250 1400 1275 M 200 1375 L 200 1400 450 1400 L 700 1400 700 1375 L 700 1350 450 1350 L 200 1350 200 1375 M 900 1375 L 900 1400 925 1400 L 950 1400 950 1375 L 950 1350 925 1350 L 900 1350 900 1375 M 1400 1375 L 1400 1400 1425 1400 L 1450 1400 1450 1375 L 1450 1350 1425 1350 L 1400 1350 1400 1375 M 200 1475 L 200 1500 450 1500 L 700 1500 700 1475 L 700 1450 450 1450 L 200 1450 200 1475 M 600 1575 L 600 1600 625 1600 L 650 1600 650 1575 L 650 1550 625 1550 L 600 1550 600 1575" stroke="none" fill="#4e5a29" fill-rule="evenodd"/><path d="M 0 25 L 0 50 225 50 L 450 50 450 25 L 450 0 225 0 L 0 0 0 25 M 550 25 L 550 50 575 50 L 600 50 600 25 L 600 0 575 0 L 550 0 550 25 M 700 25 L 700 50 900 50 L 1100 50 1100 75 L 1100 100 1125 100 L 1150 100 1150 75 L 1150 50 1175 50 L 1200 50 1200 25 L 1200 0 1175 0 L 1150 0 1150 25 L 1150 50 1125 50 L 1100 50 1100 25 L 1100 0 900 0 L 700 0 700 25 M 1350 50 L 1350 100 1375 100 L 1400 100 1400 125 L 1400 150 1475 150 L 1550 150 1550 175 L 1550 200 1574.983 200 L 1599.965 200 1600.233 224.750 L 1600.500 249.500 1600.412 174 L 1600.325 98.500 1600.162 49.250 L 1600 0 1475 0 L 1350 0 1350 50 M 1250 75 L 1250 100 1275 100 L 1300 100 1300 75 L 1300 50 1275 50 L 1250 50 1250 75 M 1450 75 L 1450 100 1475 100 L 1500 100 1500 75 L 1500 50 1475 50 L 1450 50 1450 75 M 1 125 L 1 150 225.500 150 L 450 150 450 125 L 450 100 225.500 100 L 1 100 1 125 M 550 125 L 550 150 575 150 L 600 150 600 125 L 600 100 575 100 L 550 100 550 125 M 700 125 L 700 150 725 150 L 750 150 750 125 L 750 100 725 100 L 700 100 700 125 M 850 125 L 850 150 875 150 L 900 150 900 125 L 900 100 875 100 L 850 100 850 125 M 1 225 L 1 250 50.500 250 L 100 250 100 225 L 100 200 50.500 200 L 1 200 1 225 M 150 225 L 150 250 200 250 L 250 250 250 225 L 250 200 200 200 L 150 200 150 225 M 500 275 L 500 300 525 300 L 550 300 550 275 L 550 250 525 250 L 500 250 500 275 M 600 275 L 600 300 650 300 L 700 300 700 275 L 700 250 650 250 L 600 250 600 275 M 800 275 L 800 300 825 300 L 850 300 850 275 L 850 250 825 250 L 800 250 800 275 M 950 275 L 950 300 1000 300 L 1050 300 1050 275 L 1050 250 1000 250 L 950 250 950 275 M 1100 275 L 1100 300 1125 300 L 1150 300 1150 275 L 1150 250 1125 250 L 1100 250 1100 275 M 1550 275 L 1550 300 1575 300 L 1600 300 1600 324.667 L 1600 349.333 1600.622 348.711 L 1601.244 348.089 1600.501 299.045 L 1599.758 250 1574.879 250 L 1550 250 1550 275 M 1 325 L 1 350 100.500 350 L 200 350 200 325 L 200 300 100.500 300 L 1 300 1 325 M 1550 375 L 1550 400 1575 400 L 1600 400 1600 424.667 L 1600 449.333 1600.622 448.711 L 1601.244 448.089 1600.501 399.045 L 1599.758 350 1574.879 350 L 1550 350 1550 375 M 1 425 L 1 450 125.500 450 L 250 450 250 425 L 250 400 125.500 400 L 1 400 1 425 M 300 425 L 300 450 325 450 L 350 450 350 425 L 350 400 325 400 L 300 400 300 425 M 0 600 L 0 700 25 700 L 50 700 50 625 L 50 550 150 550 L 250 550 250 525 L 250 500 125 500 L 0 500 0 600 M 300 525 L 300 550 325 550 L 350 550 350 525 L 350 500 325 500 L 300 500 300 525 M 100 625 L 100 650 150 650 L 200 650 200 625 L 200 600 150 600 L 100 600 100 625 M 250 625 L 250 650 375 650 L 500 650 500 625 L 500 600 375 600 L 250 600 250 625 M 100 725 L 100 750 125 750 L 150 750 150 725 L 150 700 125 700 L 100 700 100 725 M 0 825 L 0 850 25 850 L 50 850 50 825 L 50 800 25 800 L 0 800 0 825 M 100 825 L 100 850 150 850 L 200 850 200 825 L 200 800 150 800 L 100 800 100 825 M 0 1175 L 0 1200 25 1200 L 50 1200 50 1175 L 50 1150 25 1150 L 0 1150 0 1175 M 750 1175 L 750 1200 775 1200 L 800 1200 800 1175 L 800 1150 775 1150 L 750 1150 750 1175 M 950 1525 L 950 1550 1075 1550 L 1200 1550 1200 1525 L 1200 1500 1075 1500 L 950 1500 950 1525 M 1250 1525 L 1250 1550 1275 1550 L 1300 1550 1300 1525 L 1300 1500 1275 1500 L 1250 1500 1250 1525 M 1350 1525 L 1350 1550 1375 1550 L 1400 1550 1400 1525 L 1400 1500 1375 1500 L 1350 1500 1350 1525 M 0 1575 L 0 1600 25 1600 L 50 1600 50 1575 L 50 1550 25 1550 L 0 1550 0 1575" stroke="none" fill="#779656" fill-rule="evenodd"/><path d="M 0 25 L 0 50 225 50 L 450 50 450 25 L 450 0 225 0 L 0 0 0 25 M 550 25 L 550 50 575 50 L 600 50 600 25 L 600 0 575 0 L 550 0 550 25 M 700 25 L 700 50 900 50 L 1100 50 1100 75 L 1100 100 1125 100 L 1150 100 1150 75 L 1150 50 1175 50 L 1200 50 1200 25 L 1200 0 1175 0 L 1150 0 1150 25 L 1150 50 1125 50 L 1100 50 1100 25 L 1100 0 900 0 L 700 0 700 25 M 1350 50 L 1350 100 1375 100 L 1400 100 1400 125 L 1400 150 1475 150 L 1550 150 1550 175 L 1550 200 1574.983 200 L 1599.965 200 1600.233 224.750 L 1600.500 249.500 1600.412 174 L 1600.325 98.500 1600.162 49.250 L 1600 0 1475 0 L 1350 0 1350 50 M 1250 75 L 1250 100 1275 100 L 1300 100 1300 75 L 1300 50 1275 50 L 1250 50 1250 75 M 1450 75 L 1450 100 1475 100 L 1500 100 1500 75 L 1500 50 1475 50 L 1450 50 1450 75 M 1 125 L 1 150 225.500 150 L 450 150 450 125 L 450 100 225.500 100 L 1 100 1 125 M 550 125 L 550 150 575 150 L 600 150 600 125 L 600 100 575 100 L 550 100 550 125 M 700 125 L 700 150 725 150 L 750 150 750 125 L 750 100 725 100 L 700 100 700 125 M 850 125 L 850 150 875 150 L 900 150 900 125 L 900 100 875 100 L 850 100 850 125 M 1 225 L 1 250 50.500 250 L 100 250 100 225 L 100 200 50.500 200 L 1 200 1 225 M 150 225 L 150 250 200 250 L 250 250 250 225 L 250 200 200 200 L 150 200 150 225 M 500 275 L 500 300 525 300 L 550 300 550 275 L 550 250 525 250 L 500 250 500 275 M 600 275 L 600 300 650 300 L 700 300 700 275 L 700 250 650 250 L 600 250 600 275 M 800 275 L 800 300 825 300 L 850 300 850 275 L 850 250 825 250 L 800 250 800 275 M 950 275 L 950 300 1000 300 L 1050 300 1050 275 L 1050 250 1000 250 L 950 250 950 275 M 1100 275 L 1100 300 1125 300 L 1150 300 1150 275 L 1150 250 1125 250 L 1100 250 1100 275 M 1550 275 L 1550 300 1575 300 L 1600 300 1600 324.667 L 1600 349.333 1600.622 348.711 L 1601.244 348.089 1600.501 299.045 L 1599.758 250 1574.879 250 L 1550 250 1550 275 M 1 325 L 1 350 100.500 350 L 200 350 200 325 L 200 300 100.500 300 L 1 300 1 325 M 1550 375 L 1550 400 1575 400 L 1600 400 1600 424.667 L 1600 449.333 1600.622 448.711 L 1601.244 448.089 1600.501 399.045 L 1599.758 350 1574.879 350 L 1550 350 1550 375 M 1 425 L 1 450 125.500 450 L 250 450 250 425 L 250 400 125.500 400 L 1 400 1 425 M 300 425 L 300 450 325 450 L 350 450 350 425 L 350 400 325 400 L 300 400 300 425 M 0 600 L 0 700 25 700 L 50 700 50 625 L 50 550 150 550 L 250 550 250 525 L 250 500 125 500 L 0 500 0 600 M 300 525 L 300 550 325 550 L 350 550 350 525 L 350 500 325 500 L 300 500 300 525 M 100 625 L 100 650 150 650 L 200 650 200 625 L 200 600 150 600 L 100 600 100 625 M 250 625 L 250 650 375 650 L 500 650 500 625 L 500 600 375 600 L 250 600 250 625 M 100 725 L 100 750 125 750 L 150 750 150 725 L 150 700 125 700 L 100 700 100 725 M 0 825 L 0 850 25 850 L 50 850 50 825 L 50 800 25 800 L 0 800 0 825 M 100 825 L 100 850 150 850 L 200 850 200 825 L 200 800 150 800 L 100 800 100 825 M 0 1175 L 0 1200 25 1200 L 50 1200 50 1175 L 50 1150 25 1150 L 0 1150 0 1175 M 750 1175 L 750 1200 775 1200 L 800 1200 800 1175 L 800 1150 775 1150 L 750 1150 750 1175 M 950 1525 L 950 1550 1075 1550 L 1200 1550 1200 1525 L 1200 1500 1075 1500 L 950 1500 950 1525 M 1250 1525 L 1250 1550 1275 1550 L 1300 1550 1300 1525 L 1300 1500 1275 1500 L 1250 1500 1250 1525 M 1350 1525 L 1350 1550 1375 1550 L 1400 1550 1400 1525 L 1400 1500 1375 1500 L 1350 1500 1350 1525 M 0 1575 L 0 1600 25 1600 L 50 1600 50 1575 L 50 1550 25 1550 L 0 1550 0 1575" stroke="none" fill="#779656" fill-rule="evenodd"/><path d="M 0 25 L 0 50 225 50 L 450 50 450 25 L 450 0 225 0 L 0 0 0 25 M 550 25 L 550 50 575 50 L 600 50 600 25 L 600 0 575 0 L 550 0 550 25 M 700 25 L 700 50 900 50 L 1100 50 1100 75 L 1100 100 1125 100 L 1150 100 1150 75 L 1150 50 1175 50 L 1200 50 1200 25 L 1200 0 1175 0 L 1150 0 1150 25 L 1150 50 1125 50 L 1100 50 1100 25 L 1100 0 900 0 L 700 0 700 25 M 1350 50 L 1350 100 1375 100 L 1400 100 1400 125 L 1400 150 1475 150 L 1550 150 1550 175 L 1550 200 1574.983 200 L 1599.965 200 1600.233 224.750 L 1600.500 249.500 1600.412 174 L 1600.325 98.500 1600.162 49.250 L 1600 0 1475 0 L 1350 0 1350 50 M 1250 75 L 1250 100 1275 100 L 1300 100 1300 75 L 1300 50 1275 50 L 1250 50 1250 75 M 1450 75 L 1450 100 1475 100 L 1500 100 1500 75 L 1500 50 1475 50 L 1450 50 1450 75 M 1 125 L 1 150 225.500 150 L 450 150 450 125 L 450 100 225.500 100 L 1 100 1 125 M 550 125 L 550 150 575 150 L 600 150 600 125 L 600 100 575 100 L 550 100 550 125 M 700 125 L 700 150 725 150 L 750 150 750 125 L 750 100 725 100 L 700 100 700 125 M 850 125 L 850 150 875 150 L 900 150 900 125 L 900 100 875 100 L 850 100 850 125 M 1 225 L 1 250 50.500 250 L 100 250 100 225 L 100 200 50.500 200 L 1 200 1 225 M 150 225 L 150 250 200 250 L 250 250 250 225 L 250 200 200 200 L 150 200 150 225 M 500 275 L 500 300 525 300 L 550 300 550 275 L 550 250 525 250 L 500 250 500 275 M 600 275 L 600 300 650 300 L 700 300 700 275 L 700 250 650 250 L 600 250 600 275 M 800 275 L 800 300 825 300 L 850 300 850 275 L 850 250 825 250 L 800 250 800 275 M 950 275 L 950 300 1000 300 L 1050 300 1050 275 L 1050 250 1000 250 L 950 250 950 275 M 1100 275 L 1100 300 1125 300 L 1150 300 1150 275 L 1150 250 1125 250 L 1100 250 1100 275 M 1550 275 L 1550 300 1575 300 L 1600 300 1600 324.667 L 1600 349.333 1600.622 348.711 L 1601.244 348.089 1600.501 299.045 L 1599.758 250 1574.879 250 L 1550 250 1550 275 M 1 325 L 1 350 100.500 350 L 200 350 200 325 L 200 300 100.500 300 L 1 300 1 325 M 1550 375 L 1550 400 1575 400 L 1600 400 1600 424.667 L 1600 449.333 1600.622 448.711 L 1601.244 448.089 1600.501 399.045 L 1599.758 350 1574.879 350 L 1550 350 1550 375 M 1 425 L 1 450 125.500 450 L 250 450 250 425 L 250 400 125.500 400 L 1 400 1 425 M 300 425 L 300 450 325 450 L 350 450 350 425 L 350 400 325 400 L 300 400 300 425 M 0 600 L 0 700 25 700 L 50 700 50 625 L 50 550 150 550 L 250 550 250 525 L 250 500 125 500 L 0 500 0 600 M 300 525 L 300 550 325 550 L 350 550 350 525 L 350 500 325 500 L 300 500 300 525 M 100 625 L 100 650 150 650 L 200 650 200 625 L 200 600 150 600 L 100 600 100 625 M 250 625 L 250 650 375 650 L 500 650 500 625 L 500 600 375 600 L 250 600 250 625 M 100 725 L 100 750 125 750 L 150 750 150 725 L 150 700 125 700 L 100 700 100 725 M 0 825 L 0 850 25 850 L 50 850 50 825 L 50 800 25 800 L 0 800 0 825 M 100 825 L 100 850 150 850 L 200 850 200 825 L 200 800 150 800 L 100 800 100 825 M 0 1175 L 0 1200 25 1200 L 50 1200 50 1175 L 50 1150 25 1150 L 0 1150 0 1175 M 750 1175 L 750 1200 775 1200 L 800 1200 800 1175 L 800 1150 775 1150 L 750 1150 750 1175 M 950 1525 L 950 1550 1075 1550 L 1200 1550 1200 1525 L 1200 1500 1075 1500 L 950 1500 950 1525 M 1250 1525 L 1250 1550 1275 1550 L 1300 1550 1300 1525 L 1300 1500 1275 1500 L 1250 1500 1250 1525 M 1350 1525 L 1350 1550 1375 1550 L 1400 1550 1400 1525 L 1400 1500 1375 1500 L 1350 1500 1350 1525 M 0 1575 L 0 1600 25 1600 L 50 1600 50 1575 L 50 1550 25 1550 L 0 1550 0 1575" stroke="none" fill="#779656" fill-rule="evenodd"/></svg>