<svg xmlns="http://www.w3.org/2000/svg" width="1600" height="1600" viewBox="0 0 1600 1600" version="1.1"><path d="M 600 325 L 600 350 575 350 L 550 350 550 375 L 550 400 500 400 L 450 400 450 425 L 450 450 425 450 L 400 450 400 475 L 400 500 375 500 L 350 500 350 550 L 350 600 325 600 L 300 600 300 625 L 300 650 275 650 L 250 650 250 825 L 250 1000 275 1000 L 300 1000 300 1050 L 300 1100 325 1100 L 350 1100 350 1125 L 350 1150 400 1150 L 450 1150 450 1175 L 450 1200 475 1200 L 500 1200 500 1225 L 500 1250 550 1250 L 600 1250 600 1275 L 600 1300 825 1300 L 1050 1300 1050 1275 L 1050 1250 1100 1250 L 1150 1250 1150 1225 L 1150 1200 1175 1200 L 1200 1200 1200 1175 L 1200 1150 1225 1150 L 1250 1150 1250 1100 L 1250 1050 1275 1050 L 1300 1050 1300 975 L 1300 900 1325 900 L 1350 900 1350 800 L 1350 700 1325 700 L 1300 700 1300 650 L 1300 600 1275 600 L 1250 600 1250 550 L 1250 500 1225 500 L 1200 500 1200 475 L 1200 450 1175 450 L 1150 450 1150 425 L 1150 400 1100 400 L 1050 400 1050 375 L 1050 350 1000 350 L 950 350 950 325 L 950 300 775 300 L 600 300 600 325" stroke="none" fill="#000000" fill-rule="evenodd"/><path d="M 600 325 L 600 350 575 350 L 550 350 550 375 L 550 400 500 400 L 450 400 450 425 L 450 450 425 450 L 400 450 400 475 L 400 500 375 500 L 350 500 350 550 L 350 600 325 600 L 300 600 300 625 L 300 650 275 650 L 250 650 250 825 L 250 1000 275 1000 L 300 1000 300 1050 L 300 1100 325 1100 L 350 1100 350 1125 L 350 1150 400 1150 L 450 1150 450 1175 L 450 1200 475 1200 L 500 1200 500 1225 L 500 1250 550 1250 L 600 1250 600 1275 L 600 1300 825 1300 L 1050 1300 1050 1275 L 1050 1250 1100 1250 L 1150 1250 1150 1225 L 1150 1200 1175 1200 L 1200 1200 1200 1175 L 1200 1150 1225 1150 L 1250 1150 1250 1100 L 1250 1050 1275 1050 L 1300 1050 1300 975 L 1300 900 1325 900 L 1350 900 1350 800 L 1350 700 1325 700 L 1300 700 1300 650 L 1300 600 1275 600 L 1250 600 1250 550 L 1250 500 1225 500 L 1200 500 1200 475 L 1200 450 1175 450 L 1150 450 1150 425 L 1150 400 1100 400 L 1050 400 1050 375 L 1050 350 1000 350 L 950 350 950 325 L 950 300 775 300 L 600 300 600 325" stroke="none" fill="#000000" fill-rule="evenodd"/><path d="M 600 325 L 600 350 575 350 L 550 350 550 375 L 550 400 500 400 L 450 400 450 425 L 450 450 425 450 L 400 450 400 475 L 400 500 375 500 L 350 500 350 550 L 350 600 325 600 L 300 600 300 625 L 300 650 275 650 L 250 650 250 825 L 250 1000 275 1000 L 300 1000 300 1050 L 300 1100 325 1100 L 350 1100 350 1125 L 350 1150 400 1150 L 450 1150 450 1175 L 450 1200 475 1200 L 500 1200 500 1225 L 500 1250 550 1250 L 600 1250 600 1275 L 600 1300 825 1300 L 1050 1300 1050 1275 L 1050 1250 1100 1250 L 1150 1250 1150 1225 L 1150 1200 1175 1200 L 1200 1200 1200 1175 L 1200 1150 1225 1150 L 1250 1150 1250 1100 L 1250 1050 1275 1050 L 1300 1050 1300 975 L 1300 900 1325 900 L 1350 900 1350 800 L 1350 700 1325 700 L 1300 700 1300 650 L 1300 600 1275 600 L 1250 600 1250 550 L 1250 500 1225 500 L 1200 500 1200 475 L 1200 450 1175 450 L 1150 450 1150 425 L 1150 400 1100 400 L 1050 400 1050 375 L 1050 350 1000 350 L 950 350 950 325 L 950 300 775 300 L 600 300 600 325" stroke="none" fill="#000000" fill-rule="evenodd"/><path d="M 600 325 L 600 350 575 350 L 550 350 550 375 L 550 400 500 400 L 450 400 450 425 L 450 450 425 450 L 400 450 400 475 L 400 500 375 500 L 350 500 350 550 L 350 600 325 600 L 300 600 300 625 L 300 650 275 650 L 250 650 250 825 L 250 1000 275 1000 L 300 1000 300 1050 L 300 1100 325 1100 L 350 1100 350 1125 L 350 1150 400 1150 L 450 1150 450 1175 L 450 1200 475 1200 L 500 1200 500 1225 L 500 1250 550 1250 L 600 1250 600 1275 L 600 1300 825 1300 L 1050 1300 1050 1275 L 1050 1250 1100 1250 L 1150 1250 1150 1225 L 1150 1200 1175 1200 L 1200 1200 1200 1175 L 1200 1150 1225 1150 L 1250 1150 1250 1100 L 1250 1050 1275 1050 L 1300 1050 1300 975 L 1300 900 1325 900 L 1350 900 1350 800 L 1350 700 1325 700 L 1300 700 1300 650 L 1300 600 1275 600 L 1250 600 1250 550 L 1250 500 1225 500 L 1200 500 1200 475 L 1200 450 1175 450 L 1150 450 1150 425 L 1150 400 1100 400 L 1050 400 1050 375 L 1050 350 1000 350 L 950 350 950 325 L 950 300 775 300 L 600 300 600 325" stroke="none" fill="#000000" fill-rule="evenodd"/></svg>