<svg xmlns="http://www.w3.org/2000/svg" width="1600" height="1600" viewBox="0 0 1600 1600" version="1.1"><path d="M 450 150 L 450 200 475 200 L 500 200 500 250 L 500 300 475 300 L 450 300 450 350 L 450 400 475 400 L 500 400 500 450 L 500 500 625 500 L 750 500 750 475 L 750 450 775 450 L 800 450 800 425 L 800 400 825 400 L 850 400 850 300 L 850 200 825 200 L 800 200 800 275 L 800 350 775 350 L 750 350 750 375 L 750 400 625 400 L 500 400 500 350 L 500 300 525 300 L 550 300 550 225 L 550 150 525 150 L 500 150 500 125 L 500 100 475 100 L 450 100 450 150 M 600 150 L 600 200 625 200 L 650 200 650 225 L 650 250 675 250 L 700 250 700 200 L 700 150 675 150 L 650 150 650 125 L 650 100 625 100 L 600 100 600 150 M 750 125 L 750 150 775 150 L 800 150 800 125 L 800 100 775 100 L 750 100 750 125 M 950 125 L 950 150 925 150 L 900 150 900 175 L 900 200 925 200 L 950 200 950 175 L 950 150 975 150 L 1000 150 1000 125 L 1000 100 975 100 L 950 100 950 125 M 1100 175 L 1100 200 1125 200 L 1150 200 1150 175 L 1150 150 1125 150 L 1100 150 1100 175 M 800 600 L 800 650 750 650 L 700 650 700 675 L 700 700 600 700 L 500 700 500 650 L 500 600 475 600 L 450 600 450 650 L 450 700 475 700 L 500 700 500 725 L 500 750 650 750 L 800 750 800 725 L 800 700 825 700 L 850 700 850 675 L 850 650 875 650 L 900 650 900 625 L 900 600 875 600 L 850 600 850 575 L 850 550 825 550 L 800 550 800 600 M 600 825 L 600 850 650 850 L 700 850 700 900 L 700 950 675 950 L 650 950 650 1025 L 650 1100 625 1100 L 600 1100 600 1125 L 600 1150 675 1150 L 750 1150 750 1125 L 750 1100 775 1100 L 800 1100 800 950 L 800 800 700 800 L 600 800 600 825 M 450 1100 L 450 1150 475 1150 L 500 1150 500 1100 L 500 1050 475 1050 L 450 1050 450 1100 M 600 1225 L 600 1250 700 1250 L 800 1250 800 1300 L 800 1350 775 1350 L 750 1350 750 1375 L 750 1400 650 1400 L 550 1400 550 1425 L 550 1450 700 1450 L 850 1450 850 1425 L 850 1400 875 1400 L 900 1400 900 1375 L 900 1350 925 1350 L 950 1350 950 1300 L 950 1250 975 1250 L 1000 1250 1000 1225 L 1000 1200 800 1200 L 600 1200 600 1225 M 250 1400 L 250 1450 275 1450 L 300 1450 300 1400 L 300 1350 275 1350 L 250 1350 250 1400 M 250 1550 L 250 1600 550 1600 L 850 1600 850 1575 L 850 1550 875 1550 L 900 1550 900 1525 L 900 1500 750 1500 L 600 1500 600 1525 L 600 1550 450 1550 L 300 1550 300 1525 L 300 1500 275 1500 L 250 1500 250 1550" stroke="none" fill="#292929" fill-rule="evenodd"/><path d="M 450 150 L 450 200 475 200 L 500 200 500 250 L 500 300 475 300 L 450 300 450 350 L 450 400 475 400 L 500 400 500 450 L 500 500 625 500 L 750 500 750 475 L 750 450 775 450 L 800 450 800 425 L 800 400 825 400 L 850 400 850 300 L 850 200 825 200 L 800 200 800 275 L 800 350 775 350 L 750 350 750 375 L 750 400 625 400 L 500 400 500 350 L 500 300 525 300 L 550 300 550 225 L 550 150 525 150 L 500 150 500 125 L 500 100 475 100 L 450 100 450 150 M 600 150 L 600 200 625 200 L 650 200 650 225 L 650 250 675 250 L 700 250 700 200 L 700 150 675 150 L 650 150 650 125 L 650 100 625 100 L 600 100 600 150 M 750 125 L 750 150 775 150 L 800 150 800 125 L 800 100 775 100 L 750 100 750 125 M 950 125 L 950 150 925 150 L 900 150 900 175 L 900 200 925 200 L 950 200 950 175 L 950 150 975 150 L 1000 150 1000 125 L 1000 100 975 100 L 950 100 950 125 M 1100 175 L 1100 200 1125 200 L 1150 200 1150 175 L 1150 150 1125 150 L 1100 150 1100 175 M 800 600 L 800 650 750 650 L 700 650 700 675 L 700 700 600 700 L 500 700 500 650 L 500 600 475 600 L 450 600 450 650 L 450 700 475 700 L 500 700 500 725 L 500 750 650 750 L 800 750 800 725 L 800 700 825 700 L 850 700 850 675 L 850 650 875 650 L 900 650 900 625 L 900 600 875 600 L 850 600 850 575 L 850 550 825 550 L 800 550 800 600 M 600 825 L 600 850 650 850 L 700 850 700 900 L 700 950 675 950 L 650 950 650 1025 L 650 1100 625 1100 L 600 1100 600 1125 L 600 1150 675 1150 L 750 1150 750 1125 L 750 1100 775 1100 L 800 1100 800 950 L 800 800 700 800 L 600 800 600 825 M 450 1100 L 450 1150 475 1150 L 500 1150 500 1100 L 500 1050 475 1050 L 450 1050 450 1100 M 600 1225 L 600 1250 700 1250 L 800 1250 800 1300 L 800 1350 775 1350 L 750 1350 750 1375 L 750 1400 650 1400 L 550 1400 550 1425 L 550 1450 700 1450 L 850 1450 850 1425 L 850 1400 875 1400 L 900 1400 900 1375 L 900 1350 925 1350 L 950 1350 950 1300 L 950 1250 975 1250 L 1000 1250 1000 1225 L 1000 1200 800 1200 L 600 1200 600 1225 M 250 1400 L 250 1450 275 1450 L 300 1450 300 1400 L 300 1350 275 1350 L 250 1350 250 1400 M 250 1550 L 250 1600 550 1600 L 850 1600 850 1575 L 850 1550 875 1550 L 900 1550 900 1525 L 900 1500 750 1500 L 600 1500 600 1525 L 600 1550 450 1550 L 300 1550 300 1525 L 300 1500 275 1500 L 250 1500 250 1550" stroke="none" fill="#292929" fill-rule="evenodd"/><path d="M 450 150 L 450 200 475 200 L 500 200 500 250 L 500 300 475 300 L 450 300 450 350 L 450 400 475 400 L 500 400 500 450 L 500 500 625 500 L 750 500 750 475 L 750 450 775 450 L 800 450 800 425 L 800 400 825 400 L 850 400 850 300 L 850 200 825 200 L 800 200 800 275 L 800 350 775 350 L 750 350 750 375 L 750 400 625 400 L 500 400 500 350 L 500 300 525 300 L 550 300 550 225 L 550 150 525 150 L 500 150 500 125 L 500 100 475 100 L 450 100 450 150 M 600 150 L 600 200 625 200 L 650 200 650 225 L 650 250 675 250 L 700 250 700 200 L 700 150 675 150 L 650 150 650 125 L 650 100 625 100 L 600 100 600 150 M 750 125 L 750 150 775 150 L 800 150 800 125 L 800 100 775 100 L 750 100 750 125 M 950 125 L 950 150 925 150 L 900 150 900 175 L 900 200 925 200 L 950 200 950 175 L 950 150 975 150 L 1000 150 1000 125 L 1000 100 975 100 L 950 100 950 125 M 1100 175 L 1100 200 1125 200 L 1150 200 1150 175 L 1150 150 1125 150 L 1100 150 1100 175 M 800 600 L 800 650 750 650 L 700 650 700 675 L 700 700 600 700 L 500 700 500 650 L 500 600 475 600 L 450 600 450 650 L 450 700 475 700 L 500 700 500 725 L 500 750 650 750 L 800 750 800 725 L 800 700 825 700 L 850 700 850 675 L 850 650 875 650 L 900 650 900 625 L 900 600 875 600 L 850 600 850 575 L 850 550 825 550 L 800 550 800 600 M 600 825 L 600 850 650 850 L 700 850 700 900 L 700 950 675 950 L 650 950 650 1025 L 650 1100 625 1100 L 600 1100 600 1125 L 600 1150 675 1150 L 750 1150 750 1125 L 750 1100 775 1100 L 800 1100 800 950 L 800 800 700 800 L 600 800 600 825 M 450 1100 L 450 1150 475 1150 L 500 1150 500 1100 L 500 1050 475 1050 L 450 1050 450 1100 M 600 1225 L 600 1250 700 1250 L 800 1250 800 1300 L 800 1350 775 1350 L 750 1350 750 1375 L 750 1400 650 1400 L 550 1400 550 1425 L 550 1450 700 1450 L 850 1450 850 1425 L 850 1400 875 1400 L 900 1400 900 1375 L 900 1350 925 1350 L 950 1350 950 1300 L 950 1250 975 1250 L 1000 1250 1000 1225 L 1000 1200 800 1200 L 600 1200 600 1225 M 250 1400 L 250 1450 275 1450 L 300 1450 300 1400 L 300 1350 275 1350 L 250 1350 250 1400 M 250 1550 L 250 1600 550 1600 L 850 1600 850 1575 L 850 1550 875 1550 L 900 1550 900 1525 L 900 1500 750 1500 L 600 1500 600 1525 L 600 1550 450 1550 L 300 1550 300 1525 L 300 1500 275 1500 L 250 1500 250 1550" stroke="none" fill="#292929" fill-rule="evenodd"/><path d="M 450 150 L 450 200 475 200 L 500 200 500 250 L 500 300 475 300 L 450 300 450 350 L 450 400 475 400 L 500 400 500 450 L 500 500 625 500 L 750 500 750 475 L 750 450 775 450 L 800 450 800 425 L 800 400 825 400 L 850 400 850 300 L 850 200 825 200 L 800 200 800 275 L 800 350 775 350 L 750 350 750 375 L 750 400 625 400 L 500 400 500 350 L 500 300 525 300 L 550 300 550 225 L 550 150 525 150 L 500 150 500 125 L 500 100 475 100 L 450 100 450 150 M 600 150 L 600 200 625 200 L 650 200 650 225 L 650 250 675 250 L 700 250 700 200 L 700 150 675 150 L 650 150 650 125 L 650 100 625 100 L 600 100 600 150 M 750 125 L 750 150 775 150 L 800 150 800 125 L 800 100 775 100 L 750 100 750 125 M 950 125 L 950 150 925 150 L 900 150 900 175 L 900 200 925 200 L 950 200 950 175 L 950 150 975 150 L 1000 150 1000 125 L 1000 100 975 100 L 950 100 950 125 M 1100 175 L 1100 200 1125 200 L 1150 200 1150 175 L 1150 150 1125 150 L 1100 150 1100 175 M 800 600 L 800 650 750 650 L 700 650 700 675 L 700 700 600 700 L 500 700 500 650 L 500 600 475 600 L 450 600 450 650 L 450 700 475 700 L 500 700 500 725 L 500 750 650 750 L 800 750 800 725 L 800 700 825 700 L 850 700 850 675 L 850 650 875 650 L 900 650 900 625 L 900 600 875 600 L 850 600 850 575 L 850 550 825 550 L 800 550 800 600 M 600 825 L 600 850 650 850 L 700 850 700 900 L 700 950 675 950 L 650 950 650 1025 L 650 1100 625 1100 L 600 1100 600 1125 L 600 1150 675 1150 L 750 1150 750 1125 L 750 1100 775 1100 L 800 1100 800 950 L 800 800 700 800 L 600 800 600 825 M 450 1100 L 450 1150 475 1150 L 500 1150 500 1100 L 500 1050 475 1050 L 450 1050 450 1100 M 600 1225 L 600 1250 700 1250 L 800 1250 800 1300 L 800 1350 775 1350 L 750 1350 750 1375 L 750 1400 650 1400 L 550 1400 550 1425 L 550 1450 700 1450 L 850 1450 850 1425 L 850 1400 875 1400 L 900 1400 900 1375 L 900 1350 925 1350 L 950 1350 950 1300 L 950 1250 975 1250 L 1000 1250 1000 1225 L 1000 1200 800 1200 L 600 1200 600 1225 M 250 1400 L 250 1450 275 1450 L 300 1450 300 1400 L 300 1350 275 1350 L 250 1350 250 1400 M 250 1550 L 250 1600 550 1600 L 850 1600 850 1575 L 850 1550 875 1550 L 900 1550 900 1525 L 900 1500 750 1500 L 600 1500 600 1525 L 600 1550 450 1550 L 300 1550 300 1525 L 300 1500 275 1500 L 250 1500 250 1550" stroke="none" fill="#292929" fill-rule="evenodd"/><path d="M 550 250 L 550 300 525 300 L 500 300 500 350 L 500 400 625 400 L 750 400 750 375 L 750 350 775 350 L 800 350 800 275 L 800 200 750 200 L 700 200 700 225 L 700 250 675 250 L 650 250 650 225 L 650 200 600 200 L 550 200 550 250 M 500 625 L 500 700 600 700 L 700 700 700 675 L 700 650 750 650 L 800 650 800 600 L 800 550 650 550 L 500 550 500 625 M 550 900 L 550 950 525 950 L 500 950 500 1050 L 500 1150 550 1150 L 600 1150 600 1125 L 600 1100 625 1100 L 650 1100 650 1025 L 650 950 675 950 L 700 950 700 900 L 700 850 625 850 L 550 850 550 900 M 450 1225 L 450 1250 400 1250 L 350 1250 350 1275 L 350 1300 325 1300 L 300 1300 300 1375 L 300 1450 425 1450 L 550 1450 550 1425 L 550 1400 650 1400 L 750 1400 750 1375 L 750 1350 775 1350 L 800 1350 800 1300 L 800 1250 700 1250 L 600 1250 600 1225 L 600 1200 525 1200 L 450 1200 450 1225 M 300 1525 L 300 1550 450 1550 L 600 1550 600 1525 L 600 1500 450 1500 L 300 1500 300 1525" stroke="none" fill="#464646" fill-rule="evenodd"/><path d="M 550 250 L 550 300 525 300 L 500 300 500 350 L 500 400 625 400 L 750 400 750 375 L 750 350 775 350 L 800 350 800 275 L 800 200 750 200 L 700 200 700 225 L 700 250 675 250 L 650 250 650 225 L 650 200 600 200 L 550 200 550 250 M 500 625 L 500 700 600 700 L 700 700 700 675 L 700 650 750 650 L 800 650 800 600 L 800 550 650 550 L 500 550 500 625 M 550 900 L 550 950 525 950 L 500 950 500 1050 L 500 1150 550 1150 L 600 1150 600 1125 L 600 1100 625 1100 L 650 1100 650 1025 L 650 950 675 950 L 700 950 700 900 L 700 850 625 850 L 550 850 550 900 M 450 1225 L 450 1250 400 1250 L 350 1250 350 1275 L 350 1300 325 1300 L 300 1300 300 1375 L 300 1450 425 1450 L 550 1450 550 1425 L 550 1400 650 1400 L 750 1400 750 1375 L 750 1350 775 1350 L 800 1350 800 1300 L 800 1250 700 1250 L 600 1250 600 1225 L 600 1200 525 1200 L 450 1200 450 1225 M 300 1525 L 300 1550 450 1550 L 600 1550 600 1525 L 600 1500 450 1500 L 300 1500 300 1525" stroke="none" fill="#464646" fill-rule="evenodd"/><path d="M 550 250 L 550 300 525 300 L 500 300 500 350 L 500 400 625 400 L 750 400 750 375 L 750 350 775 350 L 800 350 800 275 L 800 200 750 200 L 700 200 700 225 L 700 250 675 250 L 650 250 650 225 L 650 200 600 200 L 550 200 550 250 M 500 625 L 500 700 600 700 L 700 700 700 675 L 700 650 750 650 L 800 650 800 600 L 800 550 650 550 L 500 550 500 625 M 550 900 L 550 950 525 950 L 500 950 500 1050 L 500 1150 550 1150 L 600 1150 600 1125 L 600 1100 625 1100 L 650 1100 650 1025 L 650 950 675 950 L 700 950 700 900 L 700 850 625 850 L 550 850 550 900 M 450 1225 L 450 1250 400 1250 L 350 1250 350 1275 L 350 1300 325 1300 L 300 1300 300 1375 L 300 1450 425 1450 L 550 1450 550 1425 L 550 1400 650 1400 L 750 1400 750 1375 L 750 1350 775 1350 L 800 1350 800 1300 L 800 1250 700 1250 L 600 1250 600 1225 L 600 1200 525 1200 L 450 1200 450 1225 M 300 1525 L 300 1550 450 1550 L 600 1550 600 1525 L 600 1500 450 1500 L 300 1500 300 1525" stroke="none" fill="#464646" fill-rule="evenodd"/><path d="M 550 250 L 550 300 525 300 L 500 300 500 350 L 500 400 625 400 L 750 400 750 375 L 750 350 775 350 L 800 350 800 275 L 800 200 750 200 L 700 200 700 225 L 700 250 675 250 L 650 250 650 225 L 650 200 600 200 L 550 200 550 250 M 500 625 L 500 700 600 700 L 700 700 700 675 L 700 650 750 650 L 800 650 800 600 L 800 550 650 550 L 500 550 500 625 M 550 900 L 550 950 525 950 L 500 950 500 1050 L 500 1150 550 1150 L 600 1150 600 1125 L 600 1100 625 1100 L 650 1100 650 1025 L 650 950 675 950 L 700 950 700 900 L 700 850 625 850 L 550 850 550 900 M 450 1225 L 450 1250 400 1250 L 350 1250 350 1275 L 350 1300 325 1300 L 300 1300 300 1375 L 300 1450 425 1450 L 550 1450 550 1425 L 550 1400 650 1400 L 750 1400 750 1375 L 750 1350 775 1350 L 800 1350 800 1300 L 800 1250 700 1250 L 600 1250 600 1225 L 600 1200 525 1200 L 450 1200 450 1225 M 300 1525 L 300 1550 450 1550 L 600 1550 600 1525 L 600 1500 450 1500 L 300 1500 300 1525" stroke="none" fill="#464646" fill-rule="evenodd"/><path d="M 800 125 L 800 150 775 150 L 750 150 750 175 L 750 200 800 200 L 850 200 850 300 L 850 400 825 400 L 800 400 800 425 L 800 450 775 450 L 750 450 750 475 L 750 500 650 500 L 550 500 550 525 L 550 550 700 550 L 850 550 850 575 L 850 600 875 600 L 900 600 900 625 L 900 650 875 650 L 850 650 850 675 L 850 700 825 700 L 800 700 800 725 L 800 750 700 750 L 600 750 600 775 L 600 800 700 800 L 800 800 800 950 L 800 1100 775 1100 L 750 1100 750 1125 L 750 1150 625 1150 L 500 1150 500 1175 L 500 1200 750 1200 L 1000 1200 1000 1225 L 1000 1250 975 1250 L 950 1250 950 1300 L 950 1350 925 1350 L 900 1350 900 1375 L 900 1400 875 1400 L 850 1400 850 1425 L 850 1450 575 1450 L 300 1450 300 1475 L 300 1500 600 1500 L 900 1500 900 1525 L 900 1550 875 1550 L 850 1550 850 1575 L 850 1600 1100 1600 L 1350 1600 1350 1550 L 1350 1500 1325 1500 L 1300 1500 1300 1475 L 1300 1450 1325 1450 L 1350 1450 1350 1400 L 1350 1350 1325 1350 L 1300 1350 1300 1325 L 1300 1300 1275 1300 L 1250 1300 1250 1275 L 1250 1250 1200 1250 L 1150 1250 1150 1225 L 1150 1200 1125 1200 L 1100 1200 1100 1175 L 1100 1150 1125 1150 L 1150 1150 1150 1100 L 1150 1050 1125 1050 L 1100 1050 1100 1000 L 1100 950 1075 950 L 1050 950 1050 900 L 1050 850 1025 850 L 1000 850 1000 800 L 1000 750 1050 750 L 1100 750 1100 725 L 1100 700 1125 700 L 1150 700 1150 650 L 1150 600 1125 600 L 1100 600 1100 575 L 1100 550 1075 550 L 1050 550 1050 525 L 1050 500 1075 500 L 1100 500 1100 450 L 1100 400 1125 400 L 1150 400 1150 350 L 1150 300 1125 300 L 1100 300 1100 225 L 1100 150 1125 150 L 1150 150 1150 125 L 1150 100 1125 100 L 1100 100 1100 125 L 1100 150 1075 150 L 1050 150 1050 175 L 1050 200 1025 200 L 1000 200 1000 175 L 1000 150 975 150 L 950 150 950 175 L 950 200 900 200 L 850 200 850 150 L 850 100 825 100 L 800 100 800 125" stroke="none" fill="#000000" fill-rule="evenodd"/><path d="M 800 125 L 800 150 775 150 L 750 150 750 175 L 750 200 800 200 L 850 200 850 300 L 850 400 825 400 L 800 400 800 425 L 800 450 775 450 L 750 450 750 475 L 750 500 650 500 L 550 500 550 525 L 550 550 700 550 L 850 550 850 575 L 850 600 875 600 L 900 600 900 625 L 900 650 875 650 L 850 650 850 675 L 850 700 825 700 L 800 700 800 725 L 800 750 700 750 L 600 750 600 775 L 600 800 700 800 L 800 800 800 950 L 800 1100 775 1100 L 750 1100 750 1125 L 750 1150 625 1150 L 500 1150 500 1175 L 500 1200 750 1200 L 1000 1200 1000 1225 L 1000 1250 975 1250 L 950 1250 950 1300 L 950 1350 925 1350 L 900 1350 900 1375 L 900 1400 875 1400 L 850 1400 850 1425 L 850 1450 575 1450 L 300 1450 300 1475 L 300 1500 600 1500 L 900 1500 900 1525 L 900 1550 875 1550 L 850 1550 850 1575 L 850 1600 1100 1600 L 1350 1600 1350 1550 L 1350 1500 1325 1500 L 1300 1500 1300 1475 L 1300 1450 1325 1450 L 1350 1450 1350 1400 L 1350 1350 1325 1350 L 1300 1350 1300 1325 L 1300 1300 1275 1300 L 1250 1300 1250 1275 L 1250 1250 1200 1250 L 1150 1250 1150 1225 L 1150 1200 1125 1200 L 1100 1200 1100 1175 L 1100 1150 1125 1150 L 1150 1150 1150 1100 L 1150 1050 1125 1050 L 1100 1050 1100 1000 L 1100 950 1075 950 L 1050 950 1050 900 L 1050 850 1025 850 L 1000 850 1000 800 L 1000 750 1050 750 L 1100 750 1100 725 L 1100 700 1125 700 L 1150 700 1150 650 L 1150 600 1125 600 L 1100 600 1100 575 L 1100 550 1075 550 L 1050 550 1050 525 L 1050 500 1075 500 L 1100 500 1100 450 L 1100 400 1125 400 L 1150 400 1150 350 L 1150 300 1125 300 L 1100 300 1100 225 L 1100 150 1125 150 L 1150 150 1150 125 L 1150 100 1125 100 L 1100 100 1100 125 L 1100 150 1075 150 L 1050 150 1050 175 L 1050 200 1025 200 L 1000 200 1000 175 L 1000 150 975 150 L 950 150 950 175 L 950 200 900 200 L 850 200 850 150 L 850 100 825 100 L 800 100 800 125" stroke="none" fill="#000000" fill-rule="evenodd"/><path d="M 800 125 L 800 150 775 150 L 750 150 750 175 L 750 200 800 200 L 850 200 850 300 L 850 400 825 400 L 800 400 800 425 L 800 450 775 450 L 750 450 750 475 L 750 500 650 500 L 550 500 550 525 L 550 550 700 550 L 850 550 850 575 L 850 600 875 600 L 900 600 900 625 L 900 650 875 650 L 850 650 850 675 L 850 700 825 700 L 800 700 800 725 L 800 750 700 750 L 600 750 600 775 L 600 800 700 800 L 800 800 800 950 L 800 1100 775 1100 L 750 1100 750 1125 L 750 1150 625 1150 L 500 1150 500 1175 L 500 1200 750 1200 L 1000 1200 1000 1225 L 1000 1250 975 1250 L 950 1250 950 1300 L 950 1350 925 1350 L 900 1350 900 1375 L 900 1400 875 1400 L 850 1400 850 1425 L 850 1450 575 1450 L 300 1450 300 1475 L 300 1500 600 1500 L 900 1500 900 1525 L 900 1550 875 1550 L 850 1550 850 1575 L 850 1600 1100 1600 L 1350 1600 1350 1550 L 1350 1500 1325 1500 L 1300 1500 1300 1475 L 1300 1450 1325 1450 L 1350 1450 1350 1400 L 1350 1350 1325 1350 L 1300 1350 1300 1325 L 1300 1300 1275 1300 L 1250 1300 1250 1275 L 1250 1250 1200 1250 L 1150 1250 1150 1225 L 1150 1200 1125 1200 L 1100 1200 1100 1175 L 1100 1150 1125 1150 L 1150 1150 1150 1100 L 1150 1050 1125 1050 L 1100 1050 1100 1000 L 1100 950 1075 950 L 1050 950 1050 900 L 1050 850 1025 850 L 1000 850 1000 800 L 1000 750 1050 750 L 1100 750 1100 725 L 1100 700 1125 700 L 1150 700 1150 650 L 1150 600 1125 600 L 1100 600 1100 575 L 1100 550 1075 550 L 1050 550 1050 525 L 1050 500 1075 500 L 1100 500 1100 450 L 1100 400 1125 400 L 1150 400 1150 350 L 1150 300 1125 300 L 1100 300 1100 225 L 1100 150 1125 150 L 1150 150 1150 125 L 1150 100 1125 100 L 1100 100 1100 125 L 1100 150 1075 150 L 1050 150 1050 175 L 1050 200 1025 200 L 1000 200 1000 175 L 1000 150 975 150 L 950 150 950 175 L 950 200 900 200 L 850 200 850 150 L 850 100 825 100 L 800 100 800 125" stroke="none" fill="#000000" fill-rule="evenodd"/><path d="M 800 125 L 800 150 775 150 L 750 150 750 175 L 750 200 800 200 L 850 200 850 300 L 850 400 825 400 L 800 400 800 425 L 800 450 775 450 L 750 450 750 475 L 750 500 650 500 L 550 500 550 525 L 550 550 700 550 L 850 550 850 575 L 850 600 875 600 L 900 600 900 625 L 900 650 875 650 L 850 650 850 675 L 850 700 825 700 L 800 700 800 725 L 800 750 700 750 L 600 750 600 775 L 600 800 700 800 L 800 800 800 950 L 800 1100 775 1100 L 750 1100 750 1125 L 750 1150 625 1150 L 500 1150 500 1175 L 500 1200 750 1200 L 1000 1200 1000 1225 L 1000 1250 975 1250 L 950 1250 950 1300 L 950 1350 925 1350 L 900 1350 900 1375 L 900 1400 875 1400 L 850 1400 850 1425 L 850 1450 575 1450 L 300 1450 300 1475 L 300 1500 600 1500 L 900 1500 900 1525 L 900 1550 875 1550 L 850 1550 850 1575 L 850 1600 1100 1600 L 1350 1600 1350 1550 L 1350 1500 1325 1500 L 1300 1500 1300 1475 L 1300 1450 1325 1450 L 1350 1450 1350 1400 L 1350 1350 1325 1350 L 1300 1350 1300 1325 L 1300 1300 1275 1300 L 1250 1300 1250 1275 L 1250 1250 1200 1250 L 1150 1250 1150 1225 L 1150 1200 1125 1200 L 1100 1200 1100 1175 L 1100 1150 1125 1150 L 1150 1150 1150 1100 L 1150 1050 1125 1050 L 1100 1050 1100 1000 L 1100 950 1075 950 L 1050 950 1050 900 L 1050 850 1025 850 L 1000 850 1000 800 L 1000 750 1050 750 L 1100 750 1100 725 L 1100 700 1125 700 L 1150 700 1150 650 L 1150 600 1125 600 L 1100 600 1100 575 L 1100 550 1075 550 L 1050 550 1050 525 L 1050 500 1075 500 L 1100 500 1100 450 L 1100 400 1125 400 L 1150 400 1150 350 L 1150 300 1125 300 L 1100 300 1100 225 L 1100 150 1125 150 L 1150 150 1150 125 L 1150 100 1125 100 L 1100 100 1100 125 L 1100 150 1075 150 L 1050 150 1050 175 L 1050 200 1025 200 L 1000 200 1000 175 L 1000 150 975 150 L 950 150 950 175 L 950 200 900 200 L 850 200 850 150 L 850 100 825 100 L 800 100 800 125" stroke="none" fill="#000000" fill-rule="evenodd"/></svg>