<svg xmlns="http://www.w3.org/2000/svg" width="1600" height="1600" viewBox="0 0 1600 1600" version="1.1"><path d="M 750 25 L 750 50 725 50 L 700 50 700 75 L 700 100 725 100 L 750 100 750 75 L 750 50 775 50 L 800 50 800 25 L 800 0 775 0 L 750 0 750 25 M 400 175 L 400 200 375 200 L 350 200 350 250 L 350 300 375 300 L 400 300 400 275 L 400 250 475 250 L 550 250 550 275 L 550 300 500 300 L 450 300 450 325 L 450 350 475 350 L 500 350 500 375 L 500 400 625 400 L 750 400 750 375 L 750 350 775 350 L 800 350 800 325 L 800 300 725 300 L 650 300 650 275 L 650 250 800 250 L 950 250 950 200 L 950 150 675 150 L 400 150 400 175 M 500 575 L 500 600 475 600 L 450 600 450 650 L 450 700 575 700 L 700 700 700 675 L 700 650 750 650 L 800 650 800 600 L 800 550 650 550 L 500 550 500 575 M 500 900 L 500 950 475 950 L 450 950 450 1050 L 450 1150 525 1150 L 600 1150 600 1125 L 600 1100 625 1100 L 650 1100 650 1075 L 650 1050 675 1050 L 700 1050 700 950 L 700 850 600 850 L 500 850 500 900 M 450 1225 L 450 1250 400 1250 L 350 1250 350 1275 L 350 1300 325 1300 L 300 1300 300 1375 L 300 1450 425 1450 L 550 1450 550 1425 L 550 1400 650 1400 L 750 1400 750 1375 L 750 1350 775 1350 L 800 1350 800 1300 L 800 1250 700 1250 L 600 1250 600 1225 L 600 1200 525 1200 L 450 1200 450 1225 M 300 1525 L 300 1550 450 1550 L 600 1550 600 1525 L 600 1500 450 1500 L 300 1500 300 1525" stroke="none" fill="#464646" fill-rule="evenodd"/><path d="M 750 25 L 750 50 725 50 L 700 50 700 75 L 700 100 725 100 L 750 100 750 75 L 750 50 775 50 L 800 50 800 25 L 800 0 775 0 L 750 0 750 25 M 400 175 L 400 200 375 200 L 350 200 350 250 L 350 300 375 300 L 400 300 400 275 L 400 250 475 250 L 550 250 550 275 L 550 300 500 300 L 450 300 450 325 L 450 350 475 350 L 500 350 500 375 L 500 400 625 400 L 750 400 750 375 L 750 350 775 350 L 800 350 800 325 L 800 300 725 300 L 650 300 650 275 L 650 250 800 250 L 950 250 950 200 L 950 150 675 150 L 400 150 400 175 M 500 575 L 500 600 475 600 L 450 600 450 650 L 450 700 575 700 L 700 700 700 675 L 700 650 750 650 L 800 650 800 600 L 800 550 650 550 L 500 550 500 575 M 500 900 L 500 950 475 950 L 450 950 450 1050 L 450 1150 525 1150 L 600 1150 600 1125 L 600 1100 625 1100 L 650 1100 650 1075 L 650 1050 675 1050 L 700 1050 700 950 L 700 850 600 850 L 500 850 500 900 M 450 1225 L 450 1250 400 1250 L 350 1250 350 1275 L 350 1300 325 1300 L 300 1300 300 1375 L 300 1450 425 1450 L 550 1450 550 1425 L 550 1400 650 1400 L 750 1400 750 1375 L 750 1350 775 1350 L 800 1350 800 1300 L 800 1250 700 1250 L 600 1250 600 1225 L 600 1200 525 1200 L 450 1200 450 1225 M 300 1525 L 300 1550 450 1550 L 600 1550 600 1525 L 600 1500 450 1500 L 300 1500 300 1525" stroke="none" fill="#464646" fill-rule="evenodd"/><path d="M 750 25 L 750 50 725 50 L 700 50 700 75 L 700 100 725 100 L 750 100 750 75 L 750 50 775 50 L 800 50 800 25 L 800 0 775 0 L 750 0 750 25 M 400 175 L 400 200 375 200 L 350 200 350 250 L 350 300 375 300 L 400 300 400 275 L 400 250 475 250 L 550 250 550 275 L 550 300 500 300 L 450 300 450 325 L 450 350 475 350 L 500 350 500 375 L 500 400 625 400 L 750 400 750 375 L 750 350 775 350 L 800 350 800 325 L 800 300 725 300 L 650 300 650 275 L 650 250 800 250 L 950 250 950 200 L 950 150 675 150 L 400 150 400 175 M 500 575 L 500 600 475 600 L 450 600 450 650 L 450 700 575 700 L 700 700 700 675 L 700 650 750 650 L 800 650 800 600 L 800 550 650 550 L 500 550 500 575 M 500 900 L 500 950 475 950 L 450 950 450 1050 L 450 1150 525 1150 L 600 1150 600 1125 L 600 1100 625 1100 L 650 1100 650 1075 L 650 1050 675 1050 L 700 1050 700 950 L 700 850 600 850 L 500 850 500 900 M 450 1225 L 450 1250 400 1250 L 350 1250 350 1275 L 350 1300 325 1300 L 300 1300 300 1375 L 300 1450 425 1450 L 550 1450 550 1425 L 550 1400 650 1400 L 750 1400 750 1375 L 750 1350 775 1350 L 800 1350 800 1300 L 800 1250 700 1250 L 600 1250 600 1225 L 600 1200 525 1200 L 450 1200 450 1225 M 300 1525 L 300 1550 450 1550 L 600 1550 600 1525 L 600 1500 450 1500 L 300 1500 300 1525" stroke="none" fill="#464646" fill-rule="evenodd"/><path d="M 750 25 L 750 50 725 50 L 700 50 700 75 L 700 100 725 100 L 750 100 750 75 L 750 50 775 50 L 800 50 800 25 L 800 0 775 0 L 750 0 750 25 M 400 175 L 400 200 375 200 L 350 200 350 250 L 350 300 375 300 L 400 300 400 275 L 400 250 475 250 L 550 250 550 275 L 550 300 500 300 L 450 300 450 325 L 450 350 475 350 L 500 350 500 375 L 500 400 625 400 L 750 400 750 375 L 750 350 775 350 L 800 350 800 325 L 800 300 725 300 L 650 300 650 275 L 650 250 800 250 L 950 250 950 200 L 950 150 675 150 L 400 150 400 175 M 500 575 L 500 600 475 600 L 450 600 450 650 L 450 700 575 700 L 700 700 700 675 L 700 650 750 650 L 800 650 800 600 L 800 550 650 550 L 500 550 500 575 M 500 900 L 500 950 475 950 L 450 950 450 1050 L 450 1150 525 1150 L 600 1150 600 1125 L 600 1100 625 1100 L 650 1100 650 1075 L 650 1050 675 1050 L 700 1050 700 950 L 700 850 600 850 L 500 850 500 900 M 450 1225 L 450 1250 400 1250 L 350 1250 350 1275 L 350 1300 325 1300 L 300 1300 300 1375 L 300 1450 425 1450 L 550 1450 550 1425 L 550 1400 650 1400 L 750 1400 750 1375 L 750 1350 775 1350 L 800 1350 800 1300 L 800 1250 700 1250 L 600 1250 600 1225 L 600 1200 525 1200 L 450 1200 450 1225 M 300 1525 L 300 1550 450 1550 L 600 1550 600 1525 L 600 1500 450 1500 L 300 1500 300 1525" stroke="none" fill="#464646" fill-rule="evenodd"/><path d="M 750 75 L 750 100 775 100 L 800 100 800 75 L 800 50 775 50 L 750 50 750 75 M 950 200 L 950 250 975 250 L 1000 250 1000 200 L 1000 150 975 150 L 950 150 950 200 M 400 300 L 400 350 425 350 L 450 350 450 400 L 450 450 475 450 L 500 450 500 475 L 500 500 625 500 L 750 500 750 475 L 750 450 775 450 L 800 450 800 425 L 800 400 825 400 L 850 400 850 350 L 850 300 825 300 L 800 300 800 325 L 800 350 775 350 L 750 350 750 375 L 750 400 625 400 L 500 400 500 375 L 500 350 475 350 L 450 350 450 325 L 450 300 500 300 L 550 300 550 275 L 550 250 475 250 L 400 250 400 300 M 450 575 L 450 600 425 600 L 400 600 400 650 L 400 700 425 700 L 450 700 450 725 L 450 750 625 750 L 800 750 800 725 L 800 700 825 700 L 850 700 850 675 L 850 650 875 650 L 900 650 900 625 L 900 600 875 600 L 850 600 850 575 L 850 550 825 550 L 800 550 800 600 L 800 650 750 650 L 700 650 700 675 L 700 700 575 700 L 450 700 450 650 L 450 600 475 600 L 500 600 500 575 L 500 550 475 550 L 450 550 450 575 M 450 850 L 450 900 425 900 L 400 900 400 975 L 400 1050 375 1050 L 350 1050 350 1100 L 350 1150 400 1150 L 450 1150 450 1050 L 450 950 475 950 L 500 950 500 900 L 500 850 600 850 L 700 850 700 950 L 700 1050 675 1050 L 650 1050 650 1075 L 650 1100 625 1100 L 600 1100 600 1125 L 600 1150 675 1150 L 750 1150 750 1125 L 750 1100 775 1100 L 800 1100 800 950 L 800 800 625 800 L 450 800 450 850 M 300 1225 L 300 1250 275 1250 L 250 1250 250 1350 L 250 1450 275 1450 L 300 1450 300 1375 L 300 1300 325 1300 L 350 1300 350 1275 L 350 1250 400 1250 L 450 1250 450 1225 L 450 1200 375 1200 L 300 1200 300 1225 M 600 1225 L 600 1250 700 1250 L 800 1250 800 1300 L 800 1350 775 1350 L 750 1350 750 1375 L 750 1400 650 1400 L 550 1400 550 1425 L 550 1450 700 1450 L 850 1450 850 1425 L 850 1400 875 1400 L 900 1400 900 1375 L 900 1350 925 1350 L 950 1350 950 1300 L 950 1250 975 1250 L 1000 1250 1000 1225 L 1000 1200 800 1200 L 600 1200 600 1225 M 250 1550 L 250 1600 550 1600 L 850 1600 850 1575 L 850 1550 875 1550 L 900 1550 900 1525 L 900 1500 750 1500 L 600 1500 600 1525 L 600 1550 450 1550 L 300 1550 300 1525 L 300 1500 275 1500 L 250 1500 250 1550" stroke="none" fill="#292929" fill-rule="evenodd"/><path d="M 750 75 L 750 100 775 100 L 800 100 800 75 L 800 50 775 50 L 750 50 750 75 M 950 200 L 950 250 975 250 L 1000 250 1000 200 L 1000 150 975 150 L 950 150 950 200 M 400 300 L 400 350 425 350 L 450 350 450 400 L 450 450 475 450 L 500 450 500 475 L 500 500 625 500 L 750 500 750 475 L 750 450 775 450 L 800 450 800 425 L 800 400 825 400 L 850 400 850 350 L 850 300 825 300 L 800 300 800 325 L 800 350 775 350 L 750 350 750 375 L 750 400 625 400 L 500 400 500 375 L 500 350 475 350 L 450 350 450 325 L 450 300 500 300 L 550 300 550 275 L 550 250 475 250 L 400 250 400 300 M 450 575 L 450 600 425 600 L 400 600 400 650 L 400 700 425 700 L 450 700 450 725 L 450 750 625 750 L 800 750 800 725 L 800 700 825 700 L 850 700 850 675 L 850 650 875 650 L 900 650 900 625 L 900 600 875 600 L 850 600 850 575 L 850 550 825 550 L 800 550 800 600 L 800 650 750 650 L 700 650 700 675 L 700 700 575 700 L 450 700 450 650 L 450 600 475 600 L 500 600 500 575 L 500 550 475 550 L 450 550 450 575 M 450 850 L 450 900 425 900 L 400 900 400 975 L 400 1050 375 1050 L 350 1050 350 1100 L 350 1150 400 1150 L 450 1150 450 1050 L 450 950 475 950 L 500 950 500 900 L 500 850 600 850 L 700 850 700 950 L 700 1050 675 1050 L 650 1050 650 1075 L 650 1100 625 1100 L 600 1100 600 1125 L 600 1150 675 1150 L 750 1150 750 1125 L 750 1100 775 1100 L 800 1100 800 950 L 800 800 625 800 L 450 800 450 850 M 300 1225 L 300 1250 275 1250 L 250 1250 250 1350 L 250 1450 275 1450 L 300 1450 300 1375 L 300 1300 325 1300 L 350 1300 350 1275 L 350 1250 400 1250 L 450 1250 450 1225 L 450 1200 375 1200 L 300 1200 300 1225 M 600 1225 L 600 1250 700 1250 L 800 1250 800 1300 L 800 1350 775 1350 L 750 1350 750 1375 L 750 1400 650 1400 L 550 1400 550 1425 L 550 1450 700 1450 L 850 1450 850 1425 L 850 1400 875 1400 L 900 1400 900 1375 L 900 1350 925 1350 L 950 1350 950 1300 L 950 1250 975 1250 L 1000 1250 1000 1225 L 1000 1200 800 1200 L 600 1200 600 1225 M 250 1550 L 250 1600 550 1600 L 850 1600 850 1575 L 850 1550 875 1550 L 900 1550 900 1525 L 900 1500 750 1500 L 600 1500 600 1525 L 600 1550 450 1550 L 300 1550 300 1525 L 300 1500 275 1500 L 250 1500 250 1550" stroke="none" fill="#292929" fill-rule="evenodd"/><path d="M 750 75 L 750 100 775 100 L 800 100 800 75 L 800 50 775 50 L 750 50 750 75 M 950 200 L 950 250 975 250 L 1000 250 1000 200 L 1000 150 975 150 L 950 150 950 200 M 400 300 L 400 350 425 350 L 450 350 450 400 L 450 450 475 450 L 500 450 500 475 L 500 500 625 500 L 750 500 750 475 L 750 450 775 450 L 800 450 800 425 L 800 400 825 400 L 850 400 850 350 L 850 300 825 300 L 800 300 800 325 L 800 350 775 350 L 750 350 750 375 L 750 400 625 400 L 500 400 500 375 L 500 350 475 350 L 450 350 450 325 L 450 300 500 300 L 550 300 550 275 L 550 250 475 250 L 400 250 400 300 M 450 575 L 450 600 425 600 L 400 600 400 650 L 400 700 425 700 L 450 700 450 725 L 450 750 625 750 L 800 750 800 725 L 800 700 825 700 L 850 700 850 675 L 850 650 875 650 L 900 650 900 625 L 900 600 875 600 L 850 600 850 575 L 850 550 825 550 L 800 550 800 600 L 800 650 750 650 L 700 650 700 675 L 700 700 575 700 L 450 700 450 650 L 450 600 475 600 L 500 600 500 575 L 500 550 475 550 L 450 550 450 575 M 450 850 L 450 900 425 900 L 400 900 400 975 L 400 1050 375 1050 L 350 1050 350 1100 L 350 1150 400 1150 L 450 1150 450 1050 L 450 950 475 950 L 500 950 500 900 L 500 850 600 850 L 700 850 700 950 L 700 1050 675 1050 L 650 1050 650 1075 L 650 1100 625 1100 L 600 1100 600 1125 L 600 1150 675 1150 L 750 1150 750 1125 L 750 1100 775 1100 L 800 1100 800 950 L 800 800 625 800 L 450 800 450 850 M 300 1225 L 300 1250 275 1250 L 250 1250 250 1350 L 250 1450 275 1450 L 300 1450 300 1375 L 300 1300 325 1300 L 350 1300 350 1275 L 350 1250 400 1250 L 450 1250 450 1225 L 450 1200 375 1200 L 300 1200 300 1225 M 600 1225 L 600 1250 700 1250 L 800 1250 800 1300 L 800 1350 775 1350 L 750 1350 750 1375 L 750 1400 650 1400 L 550 1400 550 1425 L 550 1450 700 1450 L 850 1450 850 1425 L 850 1400 875 1400 L 900 1400 900 1375 L 900 1350 925 1350 L 950 1350 950 1300 L 950 1250 975 1250 L 1000 1250 1000 1225 L 1000 1200 800 1200 L 600 1200 600 1225 M 250 1550 L 250 1600 550 1600 L 850 1600 850 1575 L 850 1550 875 1550 L 900 1550 900 1525 L 900 1500 750 1500 L 600 1500 600 1525 L 600 1550 450 1550 L 300 1550 300 1525 L 300 1500 275 1500 L 250 1500 250 1550" stroke="none" fill="#292929" fill-rule="evenodd"/><path d="M 750 75 L 750 100 775 100 L 800 100 800 75 L 800 50 775 50 L 750 50 750 75 M 950 200 L 950 250 975 250 L 1000 250 1000 200 L 1000 150 975 150 L 950 150 950 200 M 400 300 L 400 350 425 350 L 450 350 450 400 L 450 450 475 450 L 500 450 500 475 L 500 500 625 500 L 750 500 750 475 L 750 450 775 450 L 800 450 800 425 L 800 400 825 400 L 850 400 850 350 L 850 300 825 300 L 800 300 800 325 L 800 350 775 350 L 750 350 750 375 L 750 400 625 400 L 500 400 500 375 L 500 350 475 350 L 450 350 450 325 L 450 300 500 300 L 550 300 550 275 L 550 250 475 250 L 400 250 400 300 M 450 575 L 450 600 425 600 L 400 600 400 650 L 400 700 425 700 L 450 700 450 725 L 450 750 625 750 L 800 750 800 725 L 800 700 825 700 L 850 700 850 675 L 850 650 875 650 L 900 650 900 625 L 900 600 875 600 L 850 600 850 575 L 850 550 825 550 L 800 550 800 600 L 800 650 750 650 L 700 650 700 675 L 700 700 575 700 L 450 700 450 650 L 450 600 475 600 L 500 600 500 575 L 500 550 475 550 L 450 550 450 575 M 450 850 L 450 900 425 900 L 400 900 400 975 L 400 1050 375 1050 L 350 1050 350 1100 L 350 1150 400 1150 L 450 1150 450 1050 L 450 950 475 950 L 500 950 500 900 L 500 850 600 850 L 700 850 700 950 L 700 1050 675 1050 L 650 1050 650 1075 L 650 1100 625 1100 L 600 1100 600 1125 L 600 1150 675 1150 L 750 1150 750 1125 L 750 1100 775 1100 L 800 1100 800 950 L 800 800 625 800 L 450 800 450 850 M 300 1225 L 300 1250 275 1250 L 250 1250 250 1350 L 250 1450 275 1450 L 300 1450 300 1375 L 300 1300 325 1300 L 350 1300 350 1275 L 350 1250 400 1250 L 450 1250 450 1225 L 450 1200 375 1200 L 300 1200 300 1225 M 600 1225 L 600 1250 700 1250 L 800 1250 800 1300 L 800 1350 775 1350 L 750 1350 750 1375 L 750 1400 650 1400 L 550 1400 550 1425 L 550 1450 700 1450 L 850 1450 850 1425 L 850 1400 875 1400 L 900 1400 900 1375 L 900 1350 925 1350 L 950 1350 950 1300 L 950 1250 975 1250 L 1000 1250 1000 1225 L 1000 1200 800 1200 L 600 1200 600 1225 M 250 1550 L 250 1600 550 1600 L 850 1600 850 1575 L 850 1550 875 1550 L 900 1550 900 1525 L 900 1500 750 1500 L 600 1500 600 1525 L 600 1550 450 1550 L 300 1550 300 1525 L 300 1500 275 1500 L 250 1500 250 1550" stroke="none" fill="#292929" fill-rule="evenodd"/><path d="M 800 75 L 800 100 775 100 L 750 100 750 125 L 750 150 775 150 L 800 150 800 125 L 800 100 825 100 L 850 100 850 75 L 850 50 825 50 L 800 50 800 75 M 1000 200 L 1000 250 825 250 L 650 250 650 275 L 650 300 750 300 L 850 300 850 350 L 850 400 825 400 L 800 400 800 425 L 800 450 775 450 L 750 450 750 475 L 750 500 650 500 L 550 500 550 525 L 550 550 700 550 L 850 550 850 575 L 850 600 875 600 L 900 600 900 625 L 900 650 875 650 L 850 650 850 675 L 850 700 825 700 L 800 700 800 725 L 800 750 650 750 L 500 750 500 775 L 500 800 650 800 L 800 800 800 950 L 800 1100 775 1100 L 750 1100 750 1125 L 750 1150 575 1150 L 400 1150 400 1175 L 400 1200 700 1200 L 1000 1200 1000 1225 L 1000 1250 975 1250 L 950 1250 950 1300 L 950 1350 925 1350 L 900 1350 900 1375 L 900 1400 875 1400 L 850 1400 850 1425 L 850 1450 575 1450 L 300 1450 300 1475 L 300 1500 600 1500 L 900 1500 900 1525 L 900 1550 875 1550 L 850 1550 850 1575 L 850 1600 1100 1600 L 1350 1600 1350 1550 L 1350 1500 1325 1500 L 1300 1500 1300 1475 L 1300 1450 1325 1450 L 1350 1450 1350 1350 L 1350 1250 1325 1250 L 1300 1250 1300 1225 L 1300 1200 1250 1200 L 1200 1200 1200 1175 L 1200 1150 1225 1150 L 1250 1150 1250 1100 L 1250 1050 1225 1050 L 1200 1050 1200 975 L 1200 900 1175 900 L 1150 900 1150 850 L 1150 800 1125 800 L 1100 800 1100 775 L 1100 750 1125 750 L 1150 750 1150 725 L 1150 700 1175 700 L 1200 700 1200 650 L 1200 600 1175 600 L 1150 600 1150 575 L 1150 550 1125 550 L 1100 550 1100 500 L 1100 450 1125 450 L 1150 450 1150 400 L 1150 350 1175 350 L 1200 350 1200 325 L 1200 300 1225 300 L 1250 300 1250 250 L 1250 200 1225 200 L 1200 200 1200 175 L 1200 150 1100 150 L 1000 150 1000 200" stroke="none" fill="#000000" fill-rule="evenodd"/><path d="M 800 75 L 800 100 775 100 L 750 100 750 125 L 750 150 775 150 L 800 150 800 125 L 800 100 825 100 L 850 100 850 75 L 850 50 825 50 L 800 50 800 75 M 1000 200 L 1000 250 825 250 L 650 250 650 275 L 650 300 750 300 L 850 300 850 350 L 850 400 825 400 L 800 400 800 425 L 800 450 775 450 L 750 450 750 475 L 750 500 650 500 L 550 500 550 525 L 550 550 700 550 L 850 550 850 575 L 850 600 875 600 L 900 600 900 625 L 900 650 875 650 L 850 650 850 675 L 850 700 825 700 L 800 700 800 725 L 800 750 650 750 L 500 750 500 775 L 500 800 650 800 L 800 800 800 950 L 800 1100 775 1100 L 750 1100 750 1125 L 750 1150 575 1150 L 400 1150 400 1175 L 400 1200 700 1200 L 1000 1200 1000 1225 L 1000 1250 975 1250 L 950 1250 950 1300 L 950 1350 925 1350 L 900 1350 900 1375 L 900 1400 875 1400 L 850 1400 850 1425 L 850 1450 575 1450 L 300 1450 300 1475 L 300 1500 600 1500 L 900 1500 900 1525 L 900 1550 875 1550 L 850 1550 850 1575 L 850 1600 1100 1600 L 1350 1600 1350 1550 L 1350 1500 1325 1500 L 1300 1500 1300 1475 L 1300 1450 1325 1450 L 1350 1450 1350 1350 L 1350 1250 1325 1250 L 1300 1250 1300 1225 L 1300 1200 1250 1200 L 1200 1200 1200 1175 L 1200 1150 1225 1150 L 1250 1150 1250 1100 L 1250 1050 1225 1050 L 1200 1050 1200 975 L 1200 900 1175 900 L 1150 900 1150 850 L 1150 800 1125 800 L 1100 800 1100 775 L 1100 750 1125 750 L 1150 750 1150 725 L 1150 700 1175 700 L 1200 700 1200 650 L 1200 600 1175 600 L 1150 600 1150 575 L 1150 550 1125 550 L 1100 550 1100 500 L 1100 450 1125 450 L 1150 450 1150 400 L 1150 350 1175 350 L 1200 350 1200 325 L 1200 300 1225 300 L 1250 300 1250 250 L 1250 200 1225 200 L 1200 200 1200 175 L 1200 150 1100 150 L 1000 150 1000 200" stroke="none" fill="#000000" fill-rule="evenodd"/><path d="M 800 75 L 800 100 775 100 L 750 100 750 125 L 750 150 775 150 L 800 150 800 125 L 800 100 825 100 L 850 100 850 75 L 850 50 825 50 L 800 50 800 75 M 1000 200 L 1000 250 825 250 L 650 250 650 275 L 650 300 750 300 L 850 300 850 350 L 850 400 825 400 L 800 400 800 425 L 800 450 775 450 L 750 450 750 475 L 750 500 650 500 L 550 500 550 525 L 550 550 700 550 L 850 550 850 575 L 850 600 875 600 L 900 600 900 625 L 900 650 875 650 L 850 650 850 675 L 850 700 825 700 L 800 700 800 725 L 800 750 650 750 L 500 750 500 775 L 500 800 650 800 L 800 800 800 950 L 800 1100 775 1100 L 750 1100 750 1125 L 750 1150 575 1150 L 400 1150 400 1175 L 400 1200 700 1200 L 1000 1200 1000 1225 L 1000 1250 975 1250 L 950 1250 950 1300 L 950 1350 925 1350 L 900 1350 900 1375 L 900 1400 875 1400 L 850 1400 850 1425 L 850 1450 575 1450 L 300 1450 300 1475 L 300 1500 600 1500 L 900 1500 900 1525 L 900 1550 875 1550 L 850 1550 850 1575 L 850 1600 1100 1600 L 1350 1600 1350 1550 L 1350 1500 1325 1500 L 1300 1500 1300 1475 L 1300 1450 1325 1450 L 1350 1450 1350 1350 L 1350 1250 1325 1250 L 1300 1250 1300 1225 L 1300 1200 1250 1200 L 1200 1200 1200 1175 L 1200 1150 1225 1150 L 1250 1150 1250 1100 L 1250 1050 1225 1050 L 1200 1050 1200 975 L 1200 900 1175 900 L 1150 900 1150 850 L 1150 800 1125 800 L 1100 800 1100 775 L 1100 750 1125 750 L 1150 750 1150 725 L 1150 700 1175 700 L 1200 700 1200 650 L 1200 600 1175 600 L 1150 600 1150 575 L 1150 550 1125 550 L 1100 550 1100 500 L 1100 450 1125 450 L 1150 450 1150 400 L 1150 350 1175 350 L 1200 350 1200 325 L 1200 300 1225 300 L 1250 300 1250 250 L 1250 200 1225 200 L 1200 200 1200 175 L 1200 150 1100 150 L 1000 150 1000 200" stroke="none" fill="#000000" fill-rule="evenodd"/><path d="M 800 75 L 800 100 775 100 L 750 100 750 125 L 750 150 775 150 L 800 150 800 125 L 800 100 825 100 L 850 100 850 75 L 850 50 825 50 L 800 50 800 75 M 1000 200 L 1000 250 825 250 L 650 250 650 275 L 650 300 750 300 L 850 300 850 350 L 850 400 825 400 L 800 400 800 425 L 800 450 775 450 L 750 450 750 475 L 750 500 650 500 L 550 500 550 525 L 550 550 700 550 L 850 550 850 575 L 850 600 875 600 L 900 600 900 625 L 900 650 875 650 L 850 650 850 675 L 850 700 825 700 L 800 700 800 725 L 800 750 650 750 L 500 750 500 775 L 500 800 650 800 L 800 800 800 950 L 800 1100 775 1100 L 750 1100 750 1125 L 750 1150 575 1150 L 400 1150 400 1175 L 400 1200 700 1200 L 1000 1200 1000 1225 L 1000 1250 975 1250 L 950 1250 950 1300 L 950 1350 925 1350 L 900 1350 900 1375 L 900 1400 875 1400 L 850 1400 850 1425 L 850 1450 575 1450 L 300 1450 300 1475 L 300 1500 600 1500 L 900 1500 900 1525 L 900 1550 875 1550 L 850 1550 850 1575 L 850 1600 1100 1600 L 1350 1600 1350 1550 L 1350 1500 1325 1500 L 1300 1500 1300 1475 L 1300 1450 1325 1450 L 1350 1450 1350 1350 L 1350 1250 1325 1250 L 1300 1250 1300 1225 L 1300 1200 1250 1200 L 1200 1200 1200 1175 L 1200 1150 1225 1150 L 1250 1150 1250 1100 L 1250 1050 1225 1050 L 1200 1050 1200 975 L 1200 900 1175 900 L 1150 900 1150 850 L 1150 800 1125 800 L 1100 800 1100 775 L 1100 750 1125 750 L 1150 750 1150 725 L 1150 700 1175 700 L 1200 700 1200 650 L 1200 600 1175 600 L 1150 600 1150 575 L 1150 550 1125 550 L 1100 550 1100 500 L 1100 450 1125 450 L 1150 450 1150 400 L 1150 350 1175 350 L 1200 350 1200 325 L 1200 300 1225 300 L 1250 300 1250 250 L 1250 200 1225 200 L 1200 200 1200 175 L 1200 150 1100 150 L 1000 150 1000 200" stroke="none" fill="#000000" fill-rule="evenodd"/></svg>