<svg xmlns="http://www.w3.org/2000/svg" width="1600" height="1600" viewBox="0 0 1600 1600" version="1.1"><path d="M 700 75 L 700 100 675 100 L 650 100 650 125 L 650 150 675 150 L 700 150 700 175 L 700 200 775 200 L 850 200 850 275 L 850 350 875 350 L 900 350 900 425 L 900 500 925 500 L 950 500 950 575 L 950 650 925 650 L 900 650 900 675 L 900 700 725 700 L 550 700 550 725 L 550 750 525 750 L 500 750 500 775 L 500 800 475 800 L 450 800 450 850 L 450 900 475 900 L 500 900 500 925 L 500 950 725 950 L 950 950 950 975 L 950 1000 975 1000 L 1000 1000 1000 1075 L 1000 1150 750 1150 L 500 1150 500 1175 L 500 1200 750 1200 L 1000 1200 1000 1225 L 1000 1250 975 1250 L 950 1250 950 1300 L 950 1350 925 1350 L 900 1350 900 1375 L 900 1400 875 1400 L 850 1400 850 1425 L 850 1450 600 1450 L 350 1450 350 1375 L 350 1300 375 1300 L 400 1300 400 1275 L 400 1250 425 1250 L 450 1250 450 1225 L 450 1200 425 1200 L 400 1200 400 1225 L 400 1250 375 1250 L 350 1250 350 1275 L 350 1300 325 1300 L 300 1300 300 1375 L 300 1450 325 1450 L 350 1450 350 1475 L 350 1500 625 1500 L 900 1500 900 1525 L 900 1550 875 1550 L 850 1550 850 1575 L 850 1600 1075 1600 L 1300 1600 1300 1550 L 1300 1500 1275 1500 L 1250 1500 1250 1475 L 1250 1450 1275 1450 L 1300 1450 1300 1375 L 1300 1300 1275 1300 L 1250 1300 1250 1275 L 1250 1250 1225 1250 L 1200 1250 1200 1225 L 1200 1200 1150 1200 L 1100 1200 1100 1175 L 1100 1150 1125 1150 L 1150 1150 1150 1050 L 1150 950 1125 950 L 1100 950 1100 925 L 1100 900 1125 900 L 1150 900 1150 850 L 1150 800 1125 800 L 1100 800 1100 775 L 1100 750 1075 750 L 1050 750 1050 725 L 1050 700 1075 700 L 1100 700 1100 675 L 1100 650 1125 650 L 1150 650 1150 575 L 1150 500 1125 500 L 1100 500 1100 450 L 1100 400 1075 400 L 1050 400 1050 375 L 1050 350 1025 350 L 1000 350 1000 300 L 1000 250 975 250 L 950 250 950 225 L 950 200 925 200 L 900 200 900 175 L 900 150 925 150 L 950 150 950 125 L 950 100 925 100 L 900 100 900 75 L 900 50 800 50 L 700 50 700 75 M 700 125 L 700 150 775 150 L 850 150 850 125 L 850 100 775 100 L 700 100 700 125 M 450 575 L 450 650 475 650 L 500 650 500 575 L 500 500 475 500 L 450 500 450 575 M 550 775 L 550 800 525 800 L 500 800 500 850 L 500 900 700 900 L 900 900 900 875 L 900 850 950 850 L 1000 850 1000 825 L 1000 800 950 800 L 900 800 900 775 L 900 750 725 750 L 550 750 550 775" stroke="none" fill="#292929" fill-rule="evenodd"/><path d="M 700 75 L 700 100 675 100 L 650 100 650 125 L 650 150 675 150 L 700 150 700 175 L 700 200 775 200 L 850 200 850 275 L 850 350 875 350 L 900 350 900 425 L 900 500 925 500 L 950 500 950 575 L 950 650 925 650 L 900 650 900 675 L 900 700 725 700 L 550 700 550 725 L 550 750 525 750 L 500 750 500 775 L 500 800 475 800 L 450 800 450 850 L 450 900 475 900 L 500 900 500 925 L 500 950 725 950 L 950 950 950 975 L 950 1000 975 1000 L 1000 1000 1000 1075 L 1000 1150 750 1150 L 500 1150 500 1175 L 500 1200 750 1200 L 1000 1200 1000 1225 L 1000 1250 975 1250 L 950 1250 950 1300 L 950 1350 925 1350 L 900 1350 900 1375 L 900 1400 875 1400 L 850 1400 850 1425 L 850 1450 600 1450 L 350 1450 350 1375 L 350 1300 375 1300 L 400 1300 400 1275 L 400 1250 425 1250 L 450 1250 450 1225 L 450 1200 425 1200 L 400 1200 400 1225 L 400 1250 375 1250 L 350 1250 350 1275 L 350 1300 325 1300 L 300 1300 300 1375 L 300 1450 325 1450 L 350 1450 350 1475 L 350 1500 625 1500 L 900 1500 900 1525 L 900 1550 875 1550 L 850 1550 850 1575 L 850 1600 1075 1600 L 1300 1600 1300 1550 L 1300 1500 1275 1500 L 1250 1500 1250 1475 L 1250 1450 1275 1450 L 1300 1450 1300 1375 L 1300 1300 1275 1300 L 1250 1300 1250 1275 L 1250 1250 1225 1250 L 1200 1250 1200 1225 L 1200 1200 1150 1200 L 1100 1200 1100 1175 L 1100 1150 1125 1150 L 1150 1150 1150 1050 L 1150 950 1125 950 L 1100 950 1100 925 L 1100 900 1125 900 L 1150 900 1150 850 L 1150 800 1125 800 L 1100 800 1100 775 L 1100 750 1075 750 L 1050 750 1050 725 L 1050 700 1075 700 L 1100 700 1100 675 L 1100 650 1125 650 L 1150 650 1150 575 L 1150 500 1125 500 L 1100 500 1100 450 L 1100 400 1075 400 L 1050 400 1050 375 L 1050 350 1025 350 L 1000 350 1000 300 L 1000 250 975 250 L 950 250 950 225 L 950 200 925 200 L 900 200 900 175 L 900 150 925 150 L 950 150 950 125 L 950 100 925 100 L 900 100 900 75 L 900 50 800 50 L 700 50 700 75 M 700 125 L 700 150 775 150 L 850 150 850 125 L 850 100 775 100 L 700 100 700 125 M 450 575 L 450 650 475 650 L 500 650 500 575 L 500 500 475 500 L 450 500 450 575 M 550 775 L 550 800 525 800 L 500 800 500 850 L 500 900 700 900 L 900 900 900 875 L 900 850 950 850 L 1000 850 1000 825 L 1000 800 950 800 L 900 800 900 775 L 900 750 725 750 L 550 750 550 775" stroke="none" fill="#292929" fill-rule="evenodd"/><path d="M 700 75 L 700 100 675 100 L 650 100 650 125 L 650 150 675 150 L 700 150 700 175 L 700 200 775 200 L 850 200 850 275 L 850 350 875 350 L 900 350 900 425 L 900 500 925 500 L 950 500 950 575 L 950 650 925 650 L 900 650 900 675 L 900 700 725 700 L 550 700 550 725 L 550 750 525 750 L 500 750 500 775 L 500 800 475 800 L 450 800 450 850 L 450 900 475 900 L 500 900 500 925 L 500 950 725 950 L 950 950 950 975 L 950 1000 975 1000 L 1000 1000 1000 1075 L 1000 1150 750 1150 L 500 1150 500 1175 L 500 1200 750 1200 L 1000 1200 1000 1225 L 1000 1250 975 1250 L 950 1250 950 1300 L 950 1350 925 1350 L 900 1350 900 1375 L 900 1400 875 1400 L 850 1400 850 1425 L 850 1450 600 1450 L 350 1450 350 1375 L 350 1300 375 1300 L 400 1300 400 1275 L 400 1250 425 1250 L 450 1250 450 1225 L 450 1200 425 1200 L 400 1200 400 1225 L 400 1250 375 1250 L 350 1250 350 1275 L 350 1300 325 1300 L 300 1300 300 1375 L 300 1450 325 1450 L 350 1450 350 1475 L 350 1500 625 1500 L 900 1500 900 1525 L 900 1550 875 1550 L 850 1550 850 1575 L 850 1600 1075 1600 L 1300 1600 1300 1550 L 1300 1500 1275 1500 L 1250 1500 1250 1475 L 1250 1450 1275 1450 L 1300 1450 1300 1375 L 1300 1300 1275 1300 L 1250 1300 1250 1275 L 1250 1250 1225 1250 L 1200 1250 1200 1225 L 1200 1200 1150 1200 L 1100 1200 1100 1175 L 1100 1150 1125 1150 L 1150 1150 1150 1050 L 1150 950 1125 950 L 1100 950 1100 925 L 1100 900 1125 900 L 1150 900 1150 850 L 1150 800 1125 800 L 1100 800 1100 775 L 1100 750 1075 750 L 1050 750 1050 725 L 1050 700 1075 700 L 1100 700 1100 675 L 1100 650 1125 650 L 1150 650 1150 575 L 1150 500 1125 500 L 1100 500 1100 450 L 1100 400 1075 400 L 1050 400 1050 375 L 1050 350 1025 350 L 1000 350 1000 300 L 1000 250 975 250 L 950 250 950 225 L 950 200 925 200 L 900 200 900 175 L 900 150 925 150 L 950 150 950 125 L 950 100 925 100 L 900 100 900 75 L 900 50 800 50 L 700 50 700 75 M 700 125 L 700 150 775 150 L 850 150 850 125 L 850 100 775 100 L 700 100 700 125 M 450 575 L 450 650 475 650 L 500 650 500 575 L 500 500 475 500 L 450 500 450 575 M 550 775 L 550 800 525 800 L 500 800 500 850 L 500 900 700 900 L 900 900 900 875 L 900 850 950 850 L 1000 850 1000 825 L 1000 800 950 800 L 900 800 900 775 L 900 750 725 750 L 550 750 550 775" stroke="none" fill="#292929" fill-rule="evenodd"/><path d="M 700 75 L 700 100 675 100 L 650 100 650 125 L 650 150 675 150 L 700 150 700 175 L 700 200 775 200 L 850 200 850 275 L 850 350 875 350 L 900 350 900 425 L 900 500 925 500 L 950 500 950 575 L 950 650 925 650 L 900 650 900 675 L 900 700 725 700 L 550 700 550 725 L 550 750 525 750 L 500 750 500 775 L 500 800 475 800 L 450 800 450 850 L 450 900 475 900 L 500 900 500 925 L 500 950 725 950 L 950 950 950 975 L 950 1000 975 1000 L 1000 1000 1000 1075 L 1000 1150 750 1150 L 500 1150 500 1175 L 500 1200 750 1200 L 1000 1200 1000 1225 L 1000 1250 975 1250 L 950 1250 950 1300 L 950 1350 925 1350 L 900 1350 900 1375 L 900 1400 875 1400 L 850 1400 850 1425 L 850 1450 600 1450 L 350 1450 350 1375 L 350 1300 375 1300 L 400 1300 400 1275 L 400 1250 425 1250 L 450 1250 450 1225 L 450 1200 425 1200 L 400 1200 400 1225 L 400 1250 375 1250 L 350 1250 350 1275 L 350 1300 325 1300 L 300 1300 300 1375 L 300 1450 325 1450 L 350 1450 350 1475 L 350 1500 625 1500 L 900 1500 900 1525 L 900 1550 875 1550 L 850 1550 850 1575 L 850 1600 1075 1600 L 1300 1600 1300 1550 L 1300 1500 1275 1500 L 1250 1500 1250 1475 L 1250 1450 1275 1450 L 1300 1450 1300 1375 L 1300 1300 1275 1300 L 1250 1300 1250 1275 L 1250 1250 1225 1250 L 1200 1250 1200 1225 L 1200 1200 1150 1200 L 1100 1200 1100 1175 L 1100 1150 1125 1150 L 1150 1150 1150 1050 L 1150 950 1125 950 L 1100 950 1100 925 L 1100 900 1125 900 L 1150 900 1150 850 L 1150 800 1125 800 L 1100 800 1100 775 L 1100 750 1075 750 L 1050 750 1050 725 L 1050 700 1075 700 L 1100 700 1100 675 L 1100 650 1125 650 L 1150 650 1150 575 L 1150 500 1125 500 L 1100 500 1100 450 L 1100 400 1075 400 L 1050 400 1050 375 L 1050 350 1025 350 L 1000 350 1000 300 L 1000 250 975 250 L 950 250 950 225 L 950 200 925 200 L 900 200 900 175 L 900 150 925 150 L 950 150 950 125 L 950 100 925 100 L 900 100 900 75 L 900 50 800 50 L 700 50 700 75 M 700 125 L 700 150 775 150 L 850 150 850 125 L 850 100 775 100 L 700 100 700 125 M 450 575 L 450 650 475 650 L 500 650 500 575 L 500 500 475 500 L 450 500 450 575 M 550 775 L 550 800 525 800 L 500 800 500 850 L 500 900 700 900 L 900 900 900 875 L 900 850 950 850 L 1000 850 1000 825 L 1000 800 950 800 L 900 800 900 775 L 900 750 725 750 L 550 750 550 775" stroke="none" fill="#292929" fill-rule="evenodd"/><path d="M 800 125 L 800 150 825 150 L 850 150 850 125 L 850 100 825 100 L 800 100 800 125 M 650 225 L 650 250 625 250 L 600 250 600 300 L 600 350 575 350 L 550 350 550 375 L 550 400 525 400 L 500 400 500 450 L 500 500 525 500 L 550 500 550 475 L 550 450 575 450 L 600 450 600 425 L 600 400 625 400 L 650 400 650 350 L 650 300 700 300 L 750 300 750 350 L 750 400 775 400 L 800 400 800 425 L 800 450 775 450 L 750 450 750 475 L 750 500 775 500 L 800 500 800 525 L 800 550 775 550 L 750 550 750 600 L 750 650 625 650 L 500 650 500 675 L 500 700 700 700 L 900 700 900 675 L 900 650 925 650 L 950 650 950 575 L 950 500 925 500 L 900 500 900 425 L 900 350 875 350 L 850 350 850 275 L 850 200 750 200 L 650 200 650 225 M 750 775 L 750 800 775 800 L 800 800 800 825 L 800 850 775 850 L 750 850 750 875 L 750 900 825 900 L 900 900 900 875 L 900 850 950 850 L 1000 850 1000 825 L 1000 800 950 800 L 900 800 900 775 L 900 750 825 750 L 750 750 750 775 M 450 975 L 450 1000 625 1000 L 800 1000 800 1025 L 800 1050 775 1050 L 750 1050 750 1075 L 750 1100 675 1100 L 600 1100 600 1125 L 600 1150 800 1150 L 1000 1150 1000 1075 L 1000 1000 975 1000 L 950 1000 950 975 L 950 950 700 950 L 450 950 450 975 M 600 1225 L 600 1250 725 1250 L 850 1250 850 1275 L 850 1300 825 1300 L 800 1300 800 1325 L 800 1350 775 1350 L 750 1350 750 1375 L 750 1400 650 1400 L 550 1400 550 1425 L 550 1450 700 1450 L 850 1450 850 1425 L 850 1400 875 1400 L 900 1400 900 1375 L 900 1350 925 1350 L 950 1350 950 1300 L 950 1250 975 1250 L 1000 1250 1000 1225 L 1000 1200 800 1200 L 600 1200 600 1225 M 600 1525 L 600 1550 450 1550 L 300 1550 300 1575 L 300 1600 575 1600 L 850 1600 850 1575 L 850 1550 875 1550 L 900 1550 900 1525 L 900 1500 750 1500 L 600 1500 600 1525" stroke="none" fill="#b4b4b4" fill-rule="evenodd"/><path d="M 800 125 L 800 150 825 150 L 850 150 850 125 L 850 100 825 100 L 800 100 800 125 M 650 225 L 650 250 625 250 L 600 250 600 300 L 600 350 575 350 L 550 350 550 375 L 550 400 525 400 L 500 400 500 450 L 500 500 525 500 L 550 500 550 475 L 550 450 575 450 L 600 450 600 425 L 600 400 625 400 L 650 400 650 350 L 650 300 700 300 L 750 300 750 350 L 750 400 775 400 L 800 400 800 425 L 800 450 775 450 L 750 450 750 475 L 750 500 775 500 L 800 500 800 525 L 800 550 775 550 L 750 550 750 600 L 750 650 625 650 L 500 650 500 675 L 500 700 700 700 L 900 700 900 675 L 900 650 925 650 L 950 650 950 575 L 950 500 925 500 L 900 500 900 425 L 900 350 875 350 L 850 350 850 275 L 850 200 750 200 L 650 200 650 225 M 750 775 L 750 800 775 800 L 800 800 800 825 L 800 850 775 850 L 750 850 750 875 L 750 900 825 900 L 900 900 900 875 L 900 850 950 850 L 1000 850 1000 825 L 1000 800 950 800 L 900 800 900 775 L 900 750 825 750 L 750 750 750 775 M 450 975 L 450 1000 625 1000 L 800 1000 800 1025 L 800 1050 775 1050 L 750 1050 750 1075 L 750 1100 675 1100 L 600 1100 600 1125 L 600 1150 800 1150 L 1000 1150 1000 1075 L 1000 1000 975 1000 L 950 1000 950 975 L 950 950 700 950 L 450 950 450 975 M 600 1225 L 600 1250 725 1250 L 850 1250 850 1275 L 850 1300 825 1300 L 800 1300 800 1325 L 800 1350 775 1350 L 750 1350 750 1375 L 750 1400 650 1400 L 550 1400 550 1425 L 550 1450 700 1450 L 850 1450 850 1425 L 850 1400 875 1400 L 900 1400 900 1375 L 900 1350 925 1350 L 950 1350 950 1300 L 950 1250 975 1250 L 1000 1250 1000 1225 L 1000 1200 800 1200 L 600 1200 600 1225 M 600 1525 L 600 1550 450 1550 L 300 1550 300 1575 L 300 1600 575 1600 L 850 1600 850 1575 L 850 1550 875 1550 L 900 1550 900 1525 L 900 1500 750 1500 L 600 1500 600 1525" stroke="none" fill="#b4b4b4" fill-rule="evenodd"/><path d="M 800 125 L 800 150 825 150 L 850 150 850 125 L 850 100 825 100 L 800 100 800 125 M 650 225 L 650 250 625 250 L 600 250 600 300 L 600 350 575 350 L 550 350 550 375 L 550 400 525 400 L 500 400 500 450 L 500 500 525 500 L 550 500 550 475 L 550 450 575 450 L 600 450 600 425 L 600 400 625 400 L 650 400 650 350 L 650 300 700 300 L 750 300 750 350 L 750 400 775 400 L 800 400 800 425 L 800 450 775 450 L 750 450 750 475 L 750 500 775 500 L 800 500 800 525 L 800 550 775 550 L 750 550 750 600 L 750 650 625 650 L 500 650 500 675 L 500 700 700 700 L 900 700 900 675 L 900 650 925 650 L 950 650 950 575 L 950 500 925 500 L 900 500 900 425 L 900 350 875 350 L 850 350 850 275 L 850 200 750 200 L 650 200 650 225 M 750 775 L 750 800 775 800 L 800 800 800 825 L 800 850 775 850 L 750 850 750 875 L 750 900 825 900 L 900 900 900 875 L 900 850 950 850 L 1000 850 1000 825 L 1000 800 950 800 L 900 800 900 775 L 900 750 825 750 L 750 750 750 775 M 450 975 L 450 1000 625 1000 L 800 1000 800 1025 L 800 1050 775 1050 L 750 1050 750 1075 L 750 1100 675 1100 L 600 1100 600 1125 L 600 1150 800 1150 L 1000 1150 1000 1075 L 1000 1000 975 1000 L 950 1000 950 975 L 950 950 700 950 L 450 950 450 975 M 600 1225 L 600 1250 725 1250 L 850 1250 850 1275 L 850 1300 825 1300 L 800 1300 800 1325 L 800 1350 775 1350 L 750 1350 750 1375 L 750 1400 650 1400 L 550 1400 550 1425 L 550 1450 700 1450 L 850 1450 850 1425 L 850 1400 875 1400 L 900 1400 900 1375 L 900 1350 925 1350 L 950 1350 950 1300 L 950 1250 975 1250 L 1000 1250 1000 1225 L 1000 1200 800 1200 L 600 1200 600 1225 M 600 1525 L 600 1550 450 1550 L 300 1550 300 1575 L 300 1600 575 1600 L 850 1600 850 1575 L 850 1550 875 1550 L 900 1550 900 1525 L 900 1500 750 1500 L 600 1500 600 1525" stroke="none" fill="#b4b4b4" fill-rule="evenodd"/><path d="M 800 125 L 800 150 825 150 L 850 150 850 125 L 850 100 825 100 L 800 100 800 125 M 650 225 L 650 250 625 250 L 600 250 600 300 L 600 350 575 350 L 550 350 550 375 L 550 400 525 400 L 500 400 500 450 L 500 500 525 500 L 550 500 550 475 L 550 450 575 450 L 600 450 600 425 L 600 400 625 400 L 650 400 650 350 L 650 300 700 300 L 750 300 750 350 L 750 400 775 400 L 800 400 800 425 L 800 450 775 450 L 750 450 750 475 L 750 500 775 500 L 800 500 800 525 L 800 550 775 550 L 750 550 750 600 L 750 650 625 650 L 500 650 500 675 L 500 700 700 700 L 900 700 900 675 L 900 650 925 650 L 950 650 950 575 L 950 500 925 500 L 900 500 900 425 L 900 350 875 350 L 850 350 850 275 L 850 200 750 200 L 650 200 650 225 M 750 775 L 750 800 775 800 L 800 800 800 825 L 800 850 775 850 L 750 850 750 875 L 750 900 825 900 L 900 900 900 875 L 900 850 950 850 L 1000 850 1000 825 L 1000 800 950 800 L 900 800 900 775 L 900 750 825 750 L 750 750 750 775 M 450 975 L 450 1000 625 1000 L 800 1000 800 1025 L 800 1050 775 1050 L 750 1050 750 1075 L 750 1100 675 1100 L 600 1100 600 1125 L 600 1150 800 1150 L 1000 1150 1000 1075 L 1000 1000 975 1000 L 950 1000 950 975 L 950 950 700 950 L 450 950 450 975 M 600 1225 L 600 1250 725 1250 L 850 1250 850 1275 L 850 1300 825 1300 L 800 1300 800 1325 L 800 1350 775 1350 L 750 1350 750 1375 L 750 1400 650 1400 L 550 1400 550 1425 L 550 1450 700 1450 L 850 1450 850 1425 L 850 1400 875 1400 L 900 1400 900 1375 L 900 1350 925 1350 L 950 1350 950 1300 L 950 1250 975 1250 L 1000 1250 1000 1225 L 1000 1200 800 1200 L 600 1200 600 1225 M 600 1525 L 600 1550 450 1550 L 300 1550 300 1575 L 300 1600 575 1600 L 850 1600 850 1575 L 850 1550 875 1550 L 900 1550 900 1525 L 900 1500 750 1500 L 600 1500 600 1525" stroke="none" fill="#b4b4b4" fill-rule="evenodd"/><path d="M 700 125 L 700 150 750 150 L 800 150 800 125 L 800 100 750 100 L 700 100 700 125 M 650 350 L 650 400 625 400 L 600 400 600 425 L 600 450 575 450 L 550 450 550 475 L 550 500 525 500 L 500 500 500 575 L 500 650 625 650 L 750 650 750 600 L 750 550 775 550 L 800 550 800 525 L 800 500 775 500 L 750 500 750 475 L 750 450 775 450 L 800 450 800 425 L 800 400 775 400 L 750 400 750 350 L 750 300 700 300 L 650 300 650 350 M 550 775 L 550 800 525 800 L 500 800 500 850 L 500 900 625 900 L 750 900 750 875 L 750 850 775 850 L 800 850 800 825 L 800 800 775 800 L 750 800 750 775 L 750 750 650 750 L 550 750 550 775 M 450 1075 L 450 1150 525 1150 L 600 1150 600 1125 L 600 1100 675 1100 L 750 1100 750 1075 L 750 1050 775 1050 L 800 1050 800 1025 L 800 1000 625 1000 L 450 1000 450 1075 M 450 1225 L 450 1250 425 1250 L 400 1250 400 1275 L 400 1300 375 1300 L 350 1300 350 1375 L 350 1450 450 1450 L 550 1450 550 1425 L 550 1400 650 1400 L 750 1400 750 1375 L 750 1350 775 1350 L 800 1350 800 1325 L 800 1300 825 1300 L 850 1300 850 1275 L 850 1250 725 1250 L 600 1250 600 1225 L 600 1200 525 1200 L 450 1200 450 1225 M 300 1525 L 300 1550 450 1550 L 600 1550 600 1525 L 600 1500 450 1500 L 300 1500 300 1525" stroke="none" fill="#ffffff" fill-rule="evenodd"/><path d="M 700 125 L 700 150 750 150 L 800 150 800 125 L 800 100 750 100 L 700 100 700 125 M 650 350 L 650 400 625 400 L 600 400 600 425 L 600 450 575 450 L 550 450 550 475 L 550 500 525 500 L 500 500 500 575 L 500 650 625 650 L 750 650 750 600 L 750 550 775 550 L 800 550 800 525 L 800 500 775 500 L 750 500 750 475 L 750 450 775 450 L 800 450 800 425 L 800 400 775 400 L 750 400 750 350 L 750 300 700 300 L 650 300 650 350 M 550 775 L 550 800 525 800 L 500 800 500 850 L 500 900 625 900 L 750 900 750 875 L 750 850 775 850 L 800 850 800 825 L 800 800 775 800 L 750 800 750 775 L 750 750 650 750 L 550 750 550 775 M 450 1075 L 450 1150 525 1150 L 600 1150 600 1125 L 600 1100 675 1100 L 750 1100 750 1075 L 750 1050 775 1050 L 800 1050 800 1025 L 800 1000 625 1000 L 450 1000 450 1075 M 450 1225 L 450 1250 425 1250 L 400 1250 400 1275 L 400 1300 375 1300 L 350 1300 350 1375 L 350 1450 450 1450 L 550 1450 550 1425 L 550 1400 650 1400 L 750 1400 750 1375 L 750 1350 775 1350 L 800 1350 800 1325 L 800 1300 825 1300 L 850 1300 850 1275 L 850 1250 725 1250 L 600 1250 600 1225 L 600 1200 525 1200 L 450 1200 450 1225 M 300 1525 L 300 1550 450 1550 L 600 1550 600 1525 L 600 1500 450 1500 L 300 1500 300 1525" stroke="none" fill="#ffffff" fill-rule="evenodd"/><path d="M 700 125 L 700 150 750 150 L 800 150 800 125 L 800 100 750 100 L 700 100 700 125 M 650 350 L 650 400 625 400 L 600 400 600 425 L 600 450 575 450 L 550 450 550 475 L 550 500 525 500 L 500 500 500 575 L 500 650 625 650 L 750 650 750 600 L 750 550 775 550 L 800 550 800 525 L 800 500 775 500 L 750 500 750 475 L 750 450 775 450 L 800 450 800 425 L 800 400 775 400 L 750 400 750 350 L 750 300 700 300 L 650 300 650 350 M 550 775 L 550 800 525 800 L 500 800 500 850 L 500 900 625 900 L 750 900 750 875 L 750 850 775 850 L 800 850 800 825 L 800 800 775 800 L 750 800 750 775 L 750 750 650 750 L 550 750 550 775 M 450 1075 L 450 1150 525 1150 L 600 1150 600 1125 L 600 1100 675 1100 L 750 1100 750 1075 L 750 1050 775 1050 L 800 1050 800 1025 L 800 1000 625 1000 L 450 1000 450 1075 M 450 1225 L 450 1250 425 1250 L 400 1250 400 1275 L 400 1300 375 1300 L 350 1300 350 1375 L 350 1450 450 1450 L 550 1450 550 1425 L 550 1400 650 1400 L 750 1400 750 1375 L 750 1350 775 1350 L 800 1350 800 1325 L 800 1300 825 1300 L 850 1300 850 1275 L 850 1250 725 1250 L 600 1250 600 1225 L 600 1200 525 1200 L 450 1200 450 1225 M 300 1525 L 300 1550 450 1550 L 600 1550 600 1525 L 600 1500 450 1500 L 300 1500 300 1525" stroke="none" fill="#ffffff" fill-rule="evenodd"/><path d="M 700 125 L 700 150 750 150 L 800 150 800 125 L 800 100 750 100 L 700 100 700 125 M 650 350 L 650 400 625 400 L 600 400 600 425 L 600 450 575 450 L 550 450 550 475 L 550 500 525 500 L 500 500 500 575 L 500 650 625 650 L 750 650 750 600 L 750 550 775 550 L 800 550 800 525 L 800 500 775 500 L 750 500 750 475 L 750 450 775 450 L 800 450 800 425 L 800 400 775 400 L 750 400 750 350 L 750 300 700 300 L 650 300 650 350 M 550 775 L 550 800 525 800 L 500 800 500 850 L 500 900 625 900 L 750 900 750 875 L 750 850 775 850 L 800 850 800 825 L 800 800 775 800 L 750 800 750 775 L 750 750 650 750 L 550 750 550 775 M 450 1075 L 450 1150 525 1150 L 600 1150 600 1125 L 600 1100 675 1100 L 750 1100 750 1075 L 750 1050 775 1050 L 800 1050 800 1025 L 800 1000 625 1000 L 450 1000 450 1075 M 450 1225 L 450 1250 425 1250 L 400 1250 400 1275 L 400 1300 375 1300 L 350 1300 350 1375 L 350 1450 450 1450 L 550 1450 550 1425 L 550 1400 650 1400 L 750 1400 750 1375 L 750 1350 775 1350 L 800 1350 800 1325 L 800 1300 825 1300 L 850 1300 850 1275 L 850 1250 725 1250 L 600 1250 600 1225 L 600 1200 525 1200 L 450 1200 450 1225 M 300 1525 L 300 1550 450 1550 L 600 1550 600 1525 L 600 1500 450 1500 L 300 1500 300 1525" stroke="none" fill="#ffffff" fill-rule="evenodd"/></svg>