<svg xmlns="http://www.w3.org/2000/svg" width="1600" height="1600" viewBox="0 0 1600 1600" version="1.1"><path d="M 750 125 L 750 150 775 150 L 800 150 800 175 L 800 200 825 200 L 850 200 850 275 L 850 350 875 350 L 900 350 900 425 L 900 500 925 500 L 950 500 950 700 L 950 900 925 900 L 900 900 900 925 L 900 950 725 950 L 550 950 550 975 L 550 1000 525 1000 L 500 1000 500 1025 L 500 1050 475 1050 L 450 1050 450 1125 L 450 1200 475 1200 L 500 1200 500 1225 L 500 1250 675 1250 L 850 1250 850 1300 L 850 1350 825 1350 L 800 1350 800 1400 L 800 1450 575 1450 L 350 1450 350 1475 L 350 1500 575 1500 L 800 1500 800 1550 L 800 1600 1050 1600 L 1300 1600 1300 1550 L 1300 1500 1275 1500 L 1250 1500 1250 1475 L 1250 1450 1275 1450 L 1300 1450 1300 1375 L 1300 1300 1275 1300 L 1250 1300 1250 1275 L 1250 1250 1175 1250 L 1100 1250 1100 1225 L 1100 1200 1125 1200 L 1150 1200 1150 1125 L 1150 1050 1125 1050 L 1100 1050 1100 1025 L 1100 1000 1075 1000 L 1050 1000 1050 975 L 1050 950 1075 950 L 1100 950 1100 925 L 1100 900 1125 900 L 1150 900 1150 850 L 1150 800 1175 800 L 1200 800 1200 650 L 1200 500 1175 500 L 1150 500 1150 400 L 1150 300 1125 300 L 1100 300 1100 275 L 1100 250 1075 250 L 1050 250 1050 225 L 1050 200 1025 200 L 1000 200 1000 175 L 1000 150 950 150 L 900 150 900 125 L 900 100 825 100 L 750 100 750 125 M 800 450 L 800 500 750 500 L 700 500 700 525 L 700 550 675 550 L 650 550 650 575 L 650 600 675 600 L 700 600 700 650 L 700 700 675 700 L 650 700 650 725 L 650 750 625 750 L 600 750 600 775 L 600 800 575 800 L 550 800 550 850 L 550 900 575 900 L 600 900 600 850 L 600 800 625 800 L 650 800 650 775 L 650 750 675 750 L 700 750 700 725 L 700 700 725 700 L 750 700 750 675 L 750 650 775 650 L 800 650 800 625 L 800 600 825 600 L 850 600 850 500 L 850 400 825 400 L 800 400 800 450 M 500 625 L 500 650 400 650 L 300 650 300 675 L 300 700 400 700 L 500 700 500 675 L 500 650 525 650 L 550 650 550 625 L 550 600 525 600 L 500 600 500 625 M 550 1025 L 550 1050 525 1050 L 500 1050 500 1125 L 500 1200 725 1200 L 950 1200 950 1125 L 950 1050 925 1050 L 900 1050 900 1025 L 900 1000 725 1000 L 550 1000 550 1025" stroke="none" fill="#292929" fill-rule="evenodd"/><path d="M 750 125 L 750 150 775 150 L 800 150 800 175 L 800 200 825 200 L 850 200 850 275 L 850 350 875 350 L 900 350 900 425 L 900 500 925 500 L 950 500 950 700 L 950 900 925 900 L 900 900 900 925 L 900 950 725 950 L 550 950 550 975 L 550 1000 525 1000 L 500 1000 500 1025 L 500 1050 475 1050 L 450 1050 450 1125 L 450 1200 475 1200 L 500 1200 500 1225 L 500 1250 675 1250 L 850 1250 850 1300 L 850 1350 825 1350 L 800 1350 800 1400 L 800 1450 575 1450 L 350 1450 350 1475 L 350 1500 575 1500 L 800 1500 800 1550 L 800 1600 1050 1600 L 1300 1600 1300 1550 L 1300 1500 1275 1500 L 1250 1500 1250 1475 L 1250 1450 1275 1450 L 1300 1450 1300 1375 L 1300 1300 1275 1300 L 1250 1300 1250 1275 L 1250 1250 1175 1250 L 1100 1250 1100 1225 L 1100 1200 1125 1200 L 1150 1200 1150 1125 L 1150 1050 1125 1050 L 1100 1050 1100 1025 L 1100 1000 1075 1000 L 1050 1000 1050 975 L 1050 950 1075 950 L 1100 950 1100 925 L 1100 900 1125 900 L 1150 900 1150 850 L 1150 800 1175 800 L 1200 800 1200 650 L 1200 500 1175 500 L 1150 500 1150 400 L 1150 300 1125 300 L 1100 300 1100 275 L 1100 250 1075 250 L 1050 250 1050 225 L 1050 200 1025 200 L 1000 200 1000 175 L 1000 150 950 150 L 900 150 900 125 L 900 100 825 100 L 750 100 750 125 M 800 450 L 800 500 750 500 L 700 500 700 525 L 700 550 675 550 L 650 550 650 575 L 650 600 675 600 L 700 600 700 650 L 700 700 675 700 L 650 700 650 725 L 650 750 625 750 L 600 750 600 775 L 600 800 575 800 L 550 800 550 850 L 550 900 575 900 L 600 900 600 850 L 600 800 625 800 L 650 800 650 775 L 650 750 675 750 L 700 750 700 725 L 700 700 725 700 L 750 700 750 675 L 750 650 775 650 L 800 650 800 625 L 800 600 825 600 L 850 600 850 500 L 850 400 825 400 L 800 400 800 450 M 500 625 L 500 650 400 650 L 300 650 300 675 L 300 700 400 700 L 500 700 500 675 L 500 650 525 650 L 550 650 550 625 L 550 600 525 600 L 500 600 500 625 M 550 1025 L 550 1050 525 1050 L 500 1050 500 1125 L 500 1200 725 1200 L 950 1200 950 1125 L 950 1050 925 1050 L 900 1050 900 1025 L 900 1000 725 1000 L 550 1000 550 1025" stroke="none" fill="#292929" fill-rule="evenodd"/><path d="M 750 125 L 750 150 775 150 L 800 150 800 175 L 800 200 825 200 L 850 200 850 275 L 850 350 875 350 L 900 350 900 425 L 900 500 925 500 L 950 500 950 700 L 950 900 925 900 L 900 900 900 925 L 900 950 725 950 L 550 950 550 975 L 550 1000 525 1000 L 500 1000 500 1025 L 500 1050 475 1050 L 450 1050 450 1125 L 450 1200 475 1200 L 500 1200 500 1225 L 500 1250 675 1250 L 850 1250 850 1300 L 850 1350 825 1350 L 800 1350 800 1400 L 800 1450 575 1450 L 350 1450 350 1475 L 350 1500 575 1500 L 800 1500 800 1550 L 800 1600 1050 1600 L 1300 1600 1300 1550 L 1300 1500 1275 1500 L 1250 1500 1250 1475 L 1250 1450 1275 1450 L 1300 1450 1300 1375 L 1300 1300 1275 1300 L 1250 1300 1250 1275 L 1250 1250 1175 1250 L 1100 1250 1100 1225 L 1100 1200 1125 1200 L 1150 1200 1150 1125 L 1150 1050 1125 1050 L 1100 1050 1100 1025 L 1100 1000 1075 1000 L 1050 1000 1050 975 L 1050 950 1075 950 L 1100 950 1100 925 L 1100 900 1125 900 L 1150 900 1150 850 L 1150 800 1175 800 L 1200 800 1200 650 L 1200 500 1175 500 L 1150 500 1150 400 L 1150 300 1125 300 L 1100 300 1100 275 L 1100 250 1075 250 L 1050 250 1050 225 L 1050 200 1025 200 L 1000 200 1000 175 L 1000 150 950 150 L 900 150 900 125 L 900 100 825 100 L 750 100 750 125 M 800 450 L 800 500 750 500 L 700 500 700 525 L 700 550 675 550 L 650 550 650 575 L 650 600 675 600 L 700 600 700 650 L 700 700 675 700 L 650 700 650 725 L 650 750 625 750 L 600 750 600 775 L 600 800 575 800 L 550 800 550 850 L 550 900 575 900 L 600 900 600 850 L 600 800 625 800 L 650 800 650 775 L 650 750 675 750 L 700 750 700 725 L 700 700 725 700 L 750 700 750 675 L 750 650 775 650 L 800 650 800 625 L 800 600 825 600 L 850 600 850 500 L 850 400 825 400 L 800 400 800 450 M 500 625 L 500 650 400 650 L 300 650 300 675 L 300 700 400 700 L 500 700 500 675 L 500 650 525 650 L 550 650 550 625 L 550 600 525 600 L 500 600 500 625 M 550 1025 L 550 1050 525 1050 L 500 1050 500 1125 L 500 1200 725 1200 L 950 1200 950 1125 L 950 1050 925 1050 L 900 1050 900 1025 L 900 1000 725 1000 L 550 1000 550 1025" stroke="none" fill="#292929" fill-rule="evenodd"/><path d="M 750 125 L 750 150 775 150 L 800 150 800 175 L 800 200 825 200 L 850 200 850 275 L 850 350 875 350 L 900 350 900 425 L 900 500 925 500 L 950 500 950 700 L 950 900 925 900 L 900 900 900 925 L 900 950 725 950 L 550 950 550 975 L 550 1000 525 1000 L 500 1000 500 1025 L 500 1050 475 1050 L 450 1050 450 1125 L 450 1200 475 1200 L 500 1200 500 1225 L 500 1250 675 1250 L 850 1250 850 1300 L 850 1350 825 1350 L 800 1350 800 1400 L 800 1450 575 1450 L 350 1450 350 1475 L 350 1500 575 1500 L 800 1500 800 1550 L 800 1600 1050 1600 L 1300 1600 1300 1550 L 1300 1500 1275 1500 L 1250 1500 1250 1475 L 1250 1450 1275 1450 L 1300 1450 1300 1375 L 1300 1300 1275 1300 L 1250 1300 1250 1275 L 1250 1250 1175 1250 L 1100 1250 1100 1225 L 1100 1200 1125 1200 L 1150 1200 1150 1125 L 1150 1050 1125 1050 L 1100 1050 1100 1025 L 1100 1000 1075 1000 L 1050 1000 1050 975 L 1050 950 1075 950 L 1100 950 1100 925 L 1100 900 1125 900 L 1150 900 1150 850 L 1150 800 1175 800 L 1200 800 1200 650 L 1200 500 1175 500 L 1150 500 1150 400 L 1150 300 1125 300 L 1100 300 1100 275 L 1100 250 1075 250 L 1050 250 1050 225 L 1050 200 1025 200 L 1000 200 1000 175 L 1000 150 950 150 L 900 150 900 125 L 900 100 825 100 L 750 100 750 125 M 800 450 L 800 500 750 500 L 700 500 700 525 L 700 550 675 550 L 650 550 650 575 L 650 600 675 600 L 700 600 700 650 L 700 700 675 700 L 650 700 650 725 L 650 750 625 750 L 600 750 600 775 L 600 800 575 800 L 550 800 550 850 L 550 900 575 900 L 600 900 600 850 L 600 800 625 800 L 650 800 650 775 L 650 750 675 750 L 700 750 700 725 L 700 700 725 700 L 750 700 750 675 L 750 650 775 650 L 800 650 800 625 L 800 600 825 600 L 850 600 850 500 L 850 400 825 400 L 800 400 800 450 M 500 625 L 500 650 400 650 L 300 650 300 675 L 300 700 400 700 L 500 700 500 675 L 500 650 525 650 L 550 650 550 625 L 550 600 525 600 L 500 600 500 625 M 550 1025 L 550 1050 525 1050 L 500 1050 500 1125 L 500 1200 725 1200 L 950 1200 950 1125 L 950 1050 925 1050 L 900 1050 900 1025 L 900 1000 725 1000 L 550 1000 550 1025" stroke="none" fill="#292929" fill-rule="evenodd"/><path d="M 700 100 L 700 150 625 150 L 550 150 550 175 L 550 200 525 200 L 500 200 500 225 L 500 250 475 250 L 450 250 450 275 L 450 300 425 300 L 400 300 400 325 L 400 350 375 350 L 350 350 350 375 L 350 400 325 400 L 300 400 300 425 L 300 450 275 450 L 250 450 250 550 L 250 650 375 650 L 500 650 500 625 L 500 600 525 600 L 550 600 550 575 L 550 550 625 550 L 700 550 700 525 L 700 500 750 500 L 800 500 800 450 L 800 400 825 400 L 850 400 850 500 L 850 600 825 600 L 800 600 800 625 L 800 650 775 650 L 750 650 750 675 L 750 700 725 700 L 700 700 700 725 L 700 750 675 750 L 650 750 650 800 L 650 850 675 850 L 700 850 700 875 L 700 900 725 900 L 750 900 750 925 L 750 950 825 950 L 900 950 900 925 L 900 900 925 900 L 950 900 950 700 L 950 500 925 500 L 900 500 900 425 L 900 350 875 350 L 850 350 850 275 L 850 200 825 200 L 800 200 800 175 L 800 150 775 150 L 750 150 750 100 L 750 50 725 50 L 700 50 700 100 M 550 225 L 550 250 525 250 L 500 250 500 275 L 500 300 475 300 L 450 300 450 325 L 450 350 425 350 L 400 350 400 375 L 400 400 375 400 L 350 400 350 425 L 350 450 325 450 L 300 450 300 525 L 300 600 350 600 L 400 600 400 575 L 400 550 425 550 L 450 550 450 525 L 450 500 475 500 L 500 500 500 475 L 500 450 525 450 L 550 450 550 475 L 550 500 575 500 L 600 500 600 425 L 600 350 625 350 L 650 350 650 325 L 650 300 700 300 L 750 300 750 250 L 750 200 650 200 L 550 200 550 225 M 750 1025 L 750 1050 725 1050 L 700 1050 700 1125 L 700 1200 825 1200 L 950 1200 950 1125 L 950 1050 925 1050 L 900 1050 900 1025 L 900 1000 825 1000 L 750 1000 750 1025 M 650 1300 L 650 1350 625 1350 L 600 1350 600 1375 L 600 1400 575 1400 L 550 1400 550 1425 L 550 1450 675 1450 L 800 1450 800 1400 L 800 1350 825 1350 L 850 1350 850 1300 L 850 1250 750 1250 L 650 1250 650 1300 M 500 1525 L 500 1550 400 1550 L 300 1550 300 1575 L 300 1600 550 1600 L 800 1600 800 1550 L 800 1500 650 1500 L 500 1500 500 1525" stroke="none" fill="#b4b4b4" fill-rule="evenodd"/><path d="M 700 100 L 700 150 625 150 L 550 150 550 175 L 550 200 525 200 L 500 200 500 225 L 500 250 475 250 L 450 250 450 275 L 450 300 425 300 L 400 300 400 325 L 400 350 375 350 L 350 350 350 375 L 350 400 325 400 L 300 400 300 425 L 300 450 275 450 L 250 450 250 550 L 250 650 375 650 L 500 650 500 625 L 500 600 525 600 L 550 600 550 575 L 550 550 625 550 L 700 550 700 525 L 700 500 750 500 L 800 500 800 450 L 800 400 825 400 L 850 400 850 500 L 850 600 825 600 L 800 600 800 625 L 800 650 775 650 L 750 650 750 675 L 750 700 725 700 L 700 700 700 725 L 700 750 675 750 L 650 750 650 800 L 650 850 675 850 L 700 850 700 875 L 700 900 725 900 L 750 900 750 925 L 750 950 825 950 L 900 950 900 925 L 900 900 925 900 L 950 900 950 700 L 950 500 925 500 L 900 500 900 425 L 900 350 875 350 L 850 350 850 275 L 850 200 825 200 L 800 200 800 175 L 800 150 775 150 L 750 150 750 100 L 750 50 725 50 L 700 50 700 100 M 550 225 L 550 250 525 250 L 500 250 500 275 L 500 300 475 300 L 450 300 450 325 L 450 350 425 350 L 400 350 400 375 L 400 400 375 400 L 350 400 350 425 L 350 450 325 450 L 300 450 300 525 L 300 600 350 600 L 400 600 400 575 L 400 550 425 550 L 450 550 450 525 L 450 500 475 500 L 500 500 500 475 L 500 450 525 450 L 550 450 550 475 L 550 500 575 500 L 600 500 600 425 L 600 350 625 350 L 650 350 650 325 L 650 300 700 300 L 750 300 750 250 L 750 200 650 200 L 550 200 550 225 M 750 1025 L 750 1050 725 1050 L 700 1050 700 1125 L 700 1200 825 1200 L 950 1200 950 1125 L 950 1050 925 1050 L 900 1050 900 1025 L 900 1000 825 1000 L 750 1000 750 1025 M 650 1300 L 650 1350 625 1350 L 600 1350 600 1375 L 600 1400 575 1400 L 550 1400 550 1425 L 550 1450 675 1450 L 800 1450 800 1400 L 800 1350 825 1350 L 850 1350 850 1300 L 850 1250 750 1250 L 650 1250 650 1300 M 500 1525 L 500 1550 400 1550 L 300 1550 300 1575 L 300 1600 550 1600 L 800 1600 800 1550 L 800 1500 650 1500 L 500 1500 500 1525" stroke="none" fill="#b4b4b4" fill-rule="evenodd"/><path d="M 700 100 L 700 150 625 150 L 550 150 550 175 L 550 200 525 200 L 500 200 500 225 L 500 250 475 250 L 450 250 450 275 L 450 300 425 300 L 400 300 400 325 L 400 350 375 350 L 350 350 350 375 L 350 400 325 400 L 300 400 300 425 L 300 450 275 450 L 250 450 250 550 L 250 650 375 650 L 500 650 500 625 L 500 600 525 600 L 550 600 550 575 L 550 550 625 550 L 700 550 700 525 L 700 500 750 500 L 800 500 800 450 L 800 400 825 400 L 850 400 850 500 L 850 600 825 600 L 800 600 800 625 L 800 650 775 650 L 750 650 750 675 L 750 700 725 700 L 700 700 700 725 L 700 750 675 750 L 650 750 650 800 L 650 850 675 850 L 700 850 700 875 L 700 900 725 900 L 750 900 750 925 L 750 950 825 950 L 900 950 900 925 L 900 900 925 900 L 950 900 950 700 L 950 500 925 500 L 900 500 900 425 L 900 350 875 350 L 850 350 850 275 L 850 200 825 200 L 800 200 800 175 L 800 150 775 150 L 750 150 750 100 L 750 50 725 50 L 700 50 700 100 M 550 225 L 550 250 525 250 L 500 250 500 275 L 500 300 475 300 L 450 300 450 325 L 450 350 425 350 L 400 350 400 375 L 400 400 375 400 L 350 400 350 425 L 350 450 325 450 L 300 450 300 525 L 300 600 350 600 L 400 600 400 575 L 400 550 425 550 L 450 550 450 525 L 450 500 475 500 L 500 500 500 475 L 500 450 525 450 L 550 450 550 475 L 550 500 575 500 L 600 500 600 425 L 600 350 625 350 L 650 350 650 325 L 650 300 700 300 L 750 300 750 250 L 750 200 650 200 L 550 200 550 225 M 750 1025 L 750 1050 725 1050 L 700 1050 700 1125 L 700 1200 825 1200 L 950 1200 950 1125 L 950 1050 925 1050 L 900 1050 900 1025 L 900 1000 825 1000 L 750 1000 750 1025 M 650 1300 L 650 1350 625 1350 L 600 1350 600 1375 L 600 1400 575 1400 L 550 1400 550 1425 L 550 1450 675 1450 L 800 1450 800 1400 L 800 1350 825 1350 L 850 1350 850 1300 L 850 1250 750 1250 L 650 1250 650 1300 M 500 1525 L 500 1550 400 1550 L 300 1550 300 1575 L 300 1600 550 1600 L 800 1600 800 1550 L 800 1500 650 1500 L 500 1500 500 1525" stroke="none" fill="#b4b4b4" fill-rule="evenodd"/><path d="M 700 100 L 700 150 625 150 L 550 150 550 175 L 550 200 525 200 L 500 200 500 225 L 500 250 475 250 L 450 250 450 275 L 450 300 425 300 L 400 300 400 325 L 400 350 375 350 L 350 350 350 375 L 350 400 325 400 L 300 400 300 425 L 300 450 275 450 L 250 450 250 550 L 250 650 375 650 L 500 650 500 625 L 500 600 525 600 L 550 600 550 575 L 550 550 625 550 L 700 550 700 525 L 700 500 750 500 L 800 500 800 450 L 800 400 825 400 L 850 400 850 500 L 850 600 825 600 L 800 600 800 625 L 800 650 775 650 L 750 650 750 675 L 750 700 725 700 L 700 700 700 725 L 700 750 675 750 L 650 750 650 800 L 650 850 675 850 L 700 850 700 875 L 700 900 725 900 L 750 900 750 925 L 750 950 825 950 L 900 950 900 925 L 900 900 925 900 L 950 900 950 700 L 950 500 925 500 L 900 500 900 425 L 900 350 875 350 L 850 350 850 275 L 850 200 825 200 L 800 200 800 175 L 800 150 775 150 L 750 150 750 100 L 750 50 725 50 L 700 50 700 100 M 550 225 L 550 250 525 250 L 500 250 500 275 L 500 300 475 300 L 450 300 450 325 L 450 350 425 350 L 400 350 400 375 L 400 400 375 400 L 350 400 350 425 L 350 450 325 450 L 300 450 300 525 L 300 600 350 600 L 400 600 400 575 L 400 550 425 550 L 450 550 450 525 L 450 500 475 500 L 500 500 500 475 L 500 450 525 450 L 550 450 550 475 L 550 500 575 500 L 600 500 600 425 L 600 350 625 350 L 650 350 650 325 L 650 300 700 300 L 750 300 750 250 L 750 200 650 200 L 550 200 550 225 M 750 1025 L 750 1050 725 1050 L 700 1050 700 1125 L 700 1200 825 1200 L 950 1200 950 1125 L 950 1050 925 1050 L 900 1050 900 1025 L 900 1000 825 1000 L 750 1000 750 1025 M 650 1300 L 650 1350 625 1350 L 600 1350 600 1375 L 600 1400 575 1400 L 550 1400 550 1425 L 550 1450 675 1450 L 800 1450 800 1400 L 800 1350 825 1350 L 850 1350 850 1300 L 850 1250 750 1250 L 650 1250 650 1300 M 500 1525 L 500 1550 400 1550 L 300 1550 300 1575 L 300 1600 550 1600 L 800 1600 800 1550 L 800 1500 650 1500 L 500 1500 500 1525" stroke="none" fill="#b4b4b4" fill-rule="evenodd"/><path d="M 650 100 L 650 150 675 150 L 700 150 700 100 L 700 50 675 50 L 650 50 650 100 M 550 225 L 550 250 525 250 L 500 250 500 275 L 500 300 475 300 L 450 300 450 325 L 450 350 425 350 L 400 350 400 375 L 400 400 375 400 L 350 400 350 425 L 350 450 325 450 L 300 450 300 525 L 300 600 350 600 L 400 600 400 575 L 400 550 425 550 L 450 550 450 525 L 450 500 475 500 L 500 500 500 475 L 500 450 525 450 L 550 450 550 475 L 550 500 575 500 L 600 500 600 425 L 600 350 625 350 L 650 350 650 325 L 650 300 700 300 L 750 300 750 250 L 750 200 650 200 L 550 200 550 225 M 600 850 L 600 900 575 900 L 550 900 550 875 L 550 850 525 850 L 500 850 500 900 L 500 950 625 950 L 750 950 750 925 L 750 900 725 900 L 700 900 700 875 L 700 850 675 850 L 650 850 650 825 L 650 800 625 800 L 600 800 600 850 M 550 1025 L 550 1050 525 1050 L 500 1050 500 1125 L 500 1200 600 1200 L 700 1200 700 1125 L 700 1050 725 1050 L 750 1050 750 1025 L 750 1000 650 1000 L 550 1000 550 1025 M 350 1275 L 350 1300 325 1300 L 300 1300 300 1375 L 300 1450 425 1450 L 550 1450 550 1425 L 550 1400 575 1400 L 600 1400 600 1375 L 600 1350 625 1350 L 650 1350 650 1300 L 650 1250 500 1250 L 350 1250 350 1275 M 300 1525 L 300 1550 400 1550 L 500 1550 500 1525 L 500 1500 400 1500 L 300 1500 300 1525" stroke="none" fill="#ffffff" fill-rule="evenodd"/><path d="M 650 100 L 650 150 675 150 L 700 150 700 100 L 700 50 675 50 L 650 50 650 100 M 550 225 L 550 250 525 250 L 500 250 500 275 L 500 300 475 300 L 450 300 450 325 L 450 350 425 350 L 400 350 400 375 L 400 400 375 400 L 350 400 350 425 L 350 450 325 450 L 300 450 300 525 L 300 600 350 600 L 400 600 400 575 L 400 550 425 550 L 450 550 450 525 L 450 500 475 500 L 500 500 500 475 L 500 450 525 450 L 550 450 550 475 L 550 500 575 500 L 600 500 600 425 L 600 350 625 350 L 650 350 650 325 L 650 300 700 300 L 750 300 750 250 L 750 200 650 200 L 550 200 550 225 M 600 850 L 600 900 575 900 L 550 900 550 875 L 550 850 525 850 L 500 850 500 900 L 500 950 625 950 L 750 950 750 925 L 750 900 725 900 L 700 900 700 875 L 700 850 675 850 L 650 850 650 825 L 650 800 625 800 L 600 800 600 850 M 550 1025 L 550 1050 525 1050 L 500 1050 500 1125 L 500 1200 600 1200 L 700 1200 700 1125 L 700 1050 725 1050 L 750 1050 750 1025 L 750 1000 650 1000 L 550 1000 550 1025 M 350 1275 L 350 1300 325 1300 L 300 1300 300 1375 L 300 1450 425 1450 L 550 1450 550 1425 L 550 1400 575 1400 L 600 1400 600 1375 L 600 1350 625 1350 L 650 1350 650 1300 L 650 1250 500 1250 L 350 1250 350 1275 M 300 1525 L 300 1550 400 1550 L 500 1550 500 1525 L 500 1500 400 1500 L 300 1500 300 1525" stroke="none" fill="#ffffff" fill-rule="evenodd"/><path d="M 650 100 L 650 150 675 150 L 700 150 700 100 L 700 50 675 50 L 650 50 650 100 M 550 225 L 550 250 525 250 L 500 250 500 275 L 500 300 475 300 L 450 300 450 325 L 450 350 425 350 L 400 350 400 375 L 400 400 375 400 L 350 400 350 425 L 350 450 325 450 L 300 450 300 525 L 300 600 350 600 L 400 600 400 575 L 400 550 425 550 L 450 550 450 525 L 450 500 475 500 L 500 500 500 475 L 500 450 525 450 L 550 450 550 475 L 550 500 575 500 L 600 500 600 425 L 600 350 625 350 L 650 350 650 325 L 650 300 700 300 L 750 300 750 250 L 750 200 650 200 L 550 200 550 225 M 600 850 L 600 900 575 900 L 550 900 550 875 L 550 850 525 850 L 500 850 500 900 L 500 950 625 950 L 750 950 750 925 L 750 900 725 900 L 700 900 700 875 L 700 850 675 850 L 650 850 650 825 L 650 800 625 800 L 600 800 600 850 M 550 1025 L 550 1050 525 1050 L 500 1050 500 1125 L 500 1200 600 1200 L 700 1200 700 1125 L 700 1050 725 1050 L 750 1050 750 1025 L 750 1000 650 1000 L 550 1000 550 1025 M 350 1275 L 350 1300 325 1300 L 300 1300 300 1375 L 300 1450 425 1450 L 550 1450 550 1425 L 550 1400 575 1400 L 600 1400 600 1375 L 600 1350 625 1350 L 650 1350 650 1300 L 650 1250 500 1250 L 350 1250 350 1275 M 300 1525 L 300 1550 400 1550 L 500 1550 500 1525 L 500 1500 400 1500 L 300 1500 300 1525" stroke="none" fill="#ffffff" fill-rule="evenodd"/><path d="M 650 100 L 650 150 675 150 L 700 150 700 100 L 700 50 675 50 L 650 50 650 100 M 550 225 L 550 250 525 250 L 500 250 500 275 L 500 300 475 300 L 450 300 450 325 L 450 350 425 350 L 400 350 400 375 L 400 400 375 400 L 350 400 350 425 L 350 450 325 450 L 300 450 300 525 L 300 600 350 600 L 400 600 400 575 L 400 550 425 550 L 450 550 450 525 L 450 500 475 500 L 500 500 500 475 L 500 450 525 450 L 550 450 550 475 L 550 500 575 500 L 600 500 600 425 L 600 350 625 350 L 650 350 650 325 L 650 300 700 300 L 750 300 750 250 L 750 200 650 200 L 550 200 550 225 M 600 850 L 600 900 575 900 L 550 900 550 875 L 550 850 525 850 L 500 850 500 900 L 500 950 625 950 L 750 950 750 925 L 750 900 725 900 L 700 900 700 875 L 700 850 675 850 L 650 850 650 825 L 650 800 625 800 L 600 800 600 850 M 550 1025 L 550 1050 525 1050 L 500 1050 500 1125 L 500 1200 600 1200 L 700 1200 700 1125 L 700 1050 725 1050 L 750 1050 750 1025 L 750 1000 650 1000 L 550 1000 550 1025 M 350 1275 L 350 1300 325 1300 L 300 1300 300 1375 L 300 1450 425 1450 L 550 1450 550 1425 L 550 1400 575 1400 L 600 1400 600 1375 L 600 1350 625 1350 L 650 1350 650 1300 L 650 1250 500 1250 L 350 1250 350 1275 M 300 1525 L 300 1550 400 1550 L 500 1550 500 1525 L 500 1500 400 1500 L 300 1500 300 1525" stroke="none" fill="#ffffff" fill-rule="evenodd"/></svg>