<svg xmlns="http://www.w3.org/2000/svg" width="1600" height="1600" viewBox="0 0 1600 1600" version="1.1"><path d="M 450 350 L 450 550 475 550 L 500 550 500 600 L 500 650 650 650 L 800 650 800 600 L 800 550 775 550 L 750 550 750 525 L 750 500 725 500 L 700 500 700 475 L 700 450 675 450 L 650 450 650 400 L 650 350 575 350 L 500 350 500 250 L 500 150 475 150 L 450 150 450 350 M 500 850 L 500 900 525 900 L 550 900 550 975 L 550 1050 525 1050 L 500 1050 500 1125 L 500 1200 475 1200 L 450 1200 450 1225 L 450 1250 400 1250 L 350 1250 350 1275 L 350 1300 325 1300 L 300 1300 300 1375 L 300 1450 425 1450 L 550 1450 550 1425 L 550 1400 575 1400 L 600 1400 600 1375 L 600 1350 625 1350 L 650 1350 650 1300 L 650 1250 675 1250 L 700 1250 700 1150 L 700 1050 725 1050 L 750 1050 750 975 L 750 900 775 900 L 800 900 800 850 L 800 800 650 800 L 500 800 500 850 M 300 1525 L 300 1550 400 1550 L 500 1550 500 1525 L 500 1500 400 1500 L 300 1500 300 1525" stroke="none" fill="#ffffff" fill-rule="evenodd"/><path d="M 450 350 L 450 550 475 550 L 500 550 500 600 L 500 650 650 650 L 800 650 800 600 L 800 550 775 550 L 750 550 750 525 L 750 500 725 500 L 700 500 700 475 L 700 450 675 450 L 650 450 650 400 L 650 350 575 350 L 500 350 500 250 L 500 150 475 150 L 450 150 450 350 M 500 850 L 500 900 525 900 L 550 900 550 975 L 550 1050 525 1050 L 500 1050 500 1125 L 500 1200 475 1200 L 450 1200 450 1225 L 450 1250 400 1250 L 350 1250 350 1275 L 350 1300 325 1300 L 300 1300 300 1375 L 300 1450 425 1450 L 550 1450 550 1425 L 550 1400 575 1400 L 600 1400 600 1375 L 600 1350 625 1350 L 650 1350 650 1300 L 650 1250 675 1250 L 700 1250 700 1150 L 700 1050 725 1050 L 750 1050 750 975 L 750 900 775 900 L 800 900 800 850 L 800 800 650 800 L 500 800 500 850 M 300 1525 L 300 1550 400 1550 L 500 1550 500 1525 L 500 1500 400 1500 L 300 1500 300 1525" stroke="none" fill="#ffffff" fill-rule="evenodd"/><path d="M 450 350 L 450 550 475 550 L 500 550 500 600 L 500 650 650 650 L 800 650 800 600 L 800 550 775 550 L 750 550 750 525 L 750 500 725 500 L 700 500 700 475 L 700 450 675 450 L 650 450 650 400 L 650 350 575 350 L 500 350 500 250 L 500 150 475 150 L 450 150 450 350 M 500 850 L 500 900 525 900 L 550 900 550 975 L 550 1050 525 1050 L 500 1050 500 1125 L 500 1200 475 1200 L 450 1200 450 1225 L 450 1250 400 1250 L 350 1250 350 1275 L 350 1300 325 1300 L 300 1300 300 1375 L 300 1450 425 1450 L 550 1450 550 1425 L 550 1400 575 1400 L 600 1400 600 1375 L 600 1350 625 1350 L 650 1350 650 1300 L 650 1250 675 1250 L 700 1250 700 1150 L 700 1050 725 1050 L 750 1050 750 975 L 750 900 775 900 L 800 900 800 850 L 800 800 650 800 L 500 800 500 850 M 300 1525 L 300 1550 400 1550 L 500 1550 500 1525 L 500 1500 400 1500 L 300 1500 300 1525" stroke="none" fill="#ffffff" fill-rule="evenodd"/><path d="M 450 350 L 450 550 475 550 L 500 550 500 600 L 500 650 650 650 L 800 650 800 600 L 800 550 775 550 L 750 550 750 525 L 750 500 725 500 L 700 500 700 475 L 700 450 675 450 L 650 450 650 400 L 650 350 575 350 L 500 350 500 250 L 500 150 475 150 L 450 150 450 350 M 500 850 L 500 900 525 900 L 550 900 550 975 L 550 1050 525 1050 L 500 1050 500 1125 L 500 1200 475 1200 L 450 1200 450 1225 L 450 1250 400 1250 L 350 1250 350 1275 L 350 1300 325 1300 L 300 1300 300 1375 L 300 1450 425 1450 L 550 1450 550 1425 L 550 1400 575 1400 L 600 1400 600 1375 L 600 1350 625 1350 L 650 1350 650 1300 L 650 1250 675 1250 L 700 1250 700 1150 L 700 1050 725 1050 L 750 1050 750 975 L 750 900 775 900 L 800 900 800 850 L 800 800 650 800 L 500 800 500 850 M 300 1525 L 300 1550 400 1550 L 500 1550 500 1525 L 500 1500 400 1500 L 300 1500 300 1525" stroke="none" fill="#ffffff" fill-rule="evenodd"/><path d="M 500 250 L 500 350 575 350 L 650 350 650 400 L 650 450 675 450 L 700 450 700 475 L 700 500 725 500 L 750 500 750 525 L 750 550 775 550 L 800 550 800 600 L 800 650 650 650 L 500 650 500 675 L 500 700 750 700 L 1000 700 1000 625 L 1000 550 975 550 L 950 550 950 425 L 950 300 925 300 L 900 300 900 225 L 900 150 800 150 L 700 150 700 225 L 700 300 650 300 L 600 300 600 225 L 600 150 550 150 L 500 150 500 250 M 500 775 L 500 800 650 800 L 800 800 800 850 L 800 900 775 900 L 750 900 750 975 L 750 1050 725 1050 L 700 1050 700 1150 L 700 1250 675 1250 L 650 1250 650 1300 L 650 1350 625 1350 L 600 1350 600 1375 L 600 1400 575 1400 L 550 1400 550 1425 L 550 1450 700 1450 L 850 1450 850 1425 L 850 1400 875 1400 L 900 1400 900 1300 L 900 1200 925 1200 L 950 1200 950 1125 L 950 1050 925 1050 L 900 1050 900 975 L 900 900 925 900 L 950 900 950 875 L 950 850 975 850 L 1000 850 1000 825 L 1000 800 975 800 L 950 800 950 775 L 950 750 725 750 L 500 750 500 775 M 500 1525 L 500 1550 400 1550 L 300 1550 300 1575 L 300 1600 575 1600 L 850 1600 850 1550 L 850 1500 675 1500 L 500 1500 500 1525" stroke="none" fill="#b4b4b4" fill-rule="evenodd"/><path d="M 500 250 L 500 350 575 350 L 650 350 650 400 L 650 450 675 450 L 700 450 700 475 L 700 500 725 500 L 750 500 750 525 L 750 550 775 550 L 800 550 800 600 L 800 650 650 650 L 500 650 500 675 L 500 700 750 700 L 1000 700 1000 625 L 1000 550 975 550 L 950 550 950 425 L 950 300 925 300 L 900 300 900 225 L 900 150 800 150 L 700 150 700 225 L 700 300 650 300 L 600 300 600 225 L 600 150 550 150 L 500 150 500 250 M 500 775 L 500 800 650 800 L 800 800 800 850 L 800 900 775 900 L 750 900 750 975 L 750 1050 725 1050 L 700 1050 700 1150 L 700 1250 675 1250 L 650 1250 650 1300 L 650 1350 625 1350 L 600 1350 600 1375 L 600 1400 575 1400 L 550 1400 550 1425 L 550 1450 700 1450 L 850 1450 850 1425 L 850 1400 875 1400 L 900 1400 900 1300 L 900 1200 925 1200 L 950 1200 950 1125 L 950 1050 925 1050 L 900 1050 900 975 L 900 900 925 900 L 950 900 950 875 L 950 850 975 850 L 1000 850 1000 825 L 1000 800 975 800 L 950 800 950 775 L 950 750 725 750 L 500 750 500 775 M 500 1525 L 500 1550 400 1550 L 300 1550 300 1575 L 300 1600 575 1600 L 850 1600 850 1550 L 850 1500 675 1500 L 500 1500 500 1525" stroke="none" fill="#b4b4b4" fill-rule="evenodd"/><path d="M 500 250 L 500 350 575 350 L 650 350 650 400 L 650 450 675 450 L 700 450 700 475 L 700 500 725 500 L 750 500 750 525 L 750 550 775 550 L 800 550 800 600 L 800 650 650 650 L 500 650 500 675 L 500 700 750 700 L 1000 700 1000 625 L 1000 550 975 550 L 950 550 950 425 L 950 300 925 300 L 900 300 900 225 L 900 150 800 150 L 700 150 700 225 L 700 300 650 300 L 600 300 600 225 L 600 150 550 150 L 500 150 500 250 M 500 775 L 500 800 650 800 L 800 800 800 850 L 800 900 775 900 L 750 900 750 975 L 750 1050 725 1050 L 700 1050 700 1150 L 700 1250 675 1250 L 650 1250 650 1300 L 650 1350 625 1350 L 600 1350 600 1375 L 600 1400 575 1400 L 550 1400 550 1425 L 550 1450 700 1450 L 850 1450 850 1425 L 850 1400 875 1400 L 900 1400 900 1300 L 900 1200 925 1200 L 950 1200 950 1125 L 950 1050 925 1050 L 900 1050 900 975 L 900 900 925 900 L 950 900 950 875 L 950 850 975 850 L 1000 850 1000 825 L 1000 800 975 800 L 950 800 950 775 L 950 750 725 750 L 500 750 500 775 M 500 1525 L 500 1550 400 1550 L 300 1550 300 1575 L 300 1600 575 1600 L 850 1600 850 1550 L 850 1500 675 1500 L 500 1500 500 1525" stroke="none" fill="#b4b4b4" fill-rule="evenodd"/><path d="M 500 250 L 500 350 575 350 L 650 350 650 400 L 650 450 675 450 L 700 450 700 475 L 700 500 725 500 L 750 500 750 525 L 750 550 775 550 L 800 550 800 600 L 800 650 650 650 L 500 650 500 675 L 500 700 750 700 L 1000 700 1000 625 L 1000 550 975 550 L 950 550 950 425 L 950 300 925 300 L 900 300 900 225 L 900 150 800 150 L 700 150 700 225 L 700 300 650 300 L 600 300 600 225 L 600 150 550 150 L 500 150 500 250 M 500 775 L 500 800 650 800 L 800 800 800 850 L 800 900 775 900 L 750 900 750 975 L 750 1050 725 1050 L 700 1050 700 1150 L 700 1250 675 1250 L 650 1250 650 1300 L 650 1350 625 1350 L 600 1350 600 1375 L 600 1400 575 1400 L 550 1400 550 1425 L 550 1450 700 1450 L 850 1450 850 1425 L 850 1400 875 1400 L 900 1400 900 1300 L 900 1200 925 1200 L 950 1200 950 1125 L 950 1050 925 1050 L 900 1050 900 975 L 900 900 925 900 L 950 900 950 875 L 950 850 975 850 L 1000 850 1000 825 L 1000 800 975 800 L 950 800 950 775 L 950 750 725 750 L 500 750 500 775 M 500 1525 L 500 1550 400 1550 L 300 1550 300 1575 L 300 1600 575 1600 L 850 1600 850 1550 L 850 1500 675 1500 L 500 1500 500 1525" stroke="none" fill="#b4b4b4" fill-rule="evenodd"/><path d="M 1000 175 L 1000 200 975 200 L 950 200 950 225 L 950 250 925 250 L 900 250 900 275 L 900 300 925 300 L 950 300 950 425 L 950 550 975 550 L 1000 550 1000 625 L 1000 700 775 700 L 550 700 550 725 L 550 750 750 750 L 950 750 950 775 L 950 800 975 800 L 1000 800 1000 825 L 1000 850 975 850 L 950 850 950 875 L 950 900 925 900 L 900 900 900 975 L 900 1050 925 1050 L 950 1050 950 1125 L 950 1200 925 1200 L 900 1200 900 1300 L 900 1400 875 1400 L 850 1400 850 1425 L 850 1450 600 1450 L 350 1450 350 1475 L 350 1500 600 1500 L 850 1500 850 1550 L 850 1600 1075 1600 L 1300 1600 1300 1550 L 1300 1500 1275 1500 L 1250 1500 1250 1475 L 1250 1450 1275 1450 L 1300 1450 1300 1375 L 1300 1300 1275 1300 L 1250 1300 1250 1275 L 1250 1250 1225 1250 L 1200 1250 1200 1225 L 1200 1200 1175 1200 L 1150 1200 1150 1125 L 1150 1050 1125 1050 L 1100 1050 1100 975 L 1100 900 1125 900 L 1150 900 1150 850 L 1150 800 1125 800 L 1100 800 1100 775 L 1100 750 1075 750 L 1050 750 1050 725 L 1050 700 1075 700 L 1100 700 1100 675 L 1100 650 1125 650 L 1150 650 1150 400 L 1150 150 1075 150 L 1000 150 1000 175 M 600 250 L 600 300 650 300 L 700 300 700 275 L 700 250 675 250 L 650 250 650 225 L 650 200 625 200 L 600 200 600 250 M 450 600 L 450 650 475 650 L 500 650 500 600 L 500 550 475 550 L 450 550 450 600 M 450 850 L 450 900 475 900 L 500 900 500 975 L 500 1050 475 1050 L 450 1050 450 1125 L 450 1200 425 1200 L 400 1200 400 1225 L 400 1250 425 1250 L 450 1250 450 1225 L 450 1200 475 1200 L 500 1200 500 1125 L 500 1050 525 1050 L 550 1050 550 975 L 550 900 525 900 L 500 900 500 850 L 500 800 475 800 L 450 800 450 850" stroke="none" fill="#292929" fill-rule="evenodd"/><path d="M 1000 175 L 1000 200 975 200 L 950 200 950 225 L 950 250 925 250 L 900 250 900 275 L 900 300 925 300 L 950 300 950 425 L 950 550 975 550 L 1000 550 1000 625 L 1000 700 775 700 L 550 700 550 725 L 550 750 750 750 L 950 750 950 775 L 950 800 975 800 L 1000 800 1000 825 L 1000 850 975 850 L 950 850 950 875 L 950 900 925 900 L 900 900 900 975 L 900 1050 925 1050 L 950 1050 950 1125 L 950 1200 925 1200 L 900 1200 900 1300 L 900 1400 875 1400 L 850 1400 850 1425 L 850 1450 600 1450 L 350 1450 350 1475 L 350 1500 600 1500 L 850 1500 850 1550 L 850 1600 1075 1600 L 1300 1600 1300 1550 L 1300 1500 1275 1500 L 1250 1500 1250 1475 L 1250 1450 1275 1450 L 1300 1450 1300 1375 L 1300 1300 1275 1300 L 1250 1300 1250 1275 L 1250 1250 1225 1250 L 1200 1250 1200 1225 L 1200 1200 1175 1200 L 1150 1200 1150 1125 L 1150 1050 1125 1050 L 1100 1050 1100 975 L 1100 900 1125 900 L 1150 900 1150 850 L 1150 800 1125 800 L 1100 800 1100 775 L 1100 750 1075 750 L 1050 750 1050 725 L 1050 700 1075 700 L 1100 700 1100 675 L 1100 650 1125 650 L 1150 650 1150 400 L 1150 150 1075 150 L 1000 150 1000 175 M 600 250 L 600 300 650 300 L 700 300 700 275 L 700 250 675 250 L 650 250 650 225 L 650 200 625 200 L 600 200 600 250 M 450 600 L 450 650 475 650 L 500 650 500 600 L 500 550 475 550 L 450 550 450 600 M 450 850 L 450 900 475 900 L 500 900 500 975 L 500 1050 475 1050 L 450 1050 450 1125 L 450 1200 425 1200 L 400 1200 400 1225 L 400 1250 425 1250 L 450 1250 450 1225 L 450 1200 475 1200 L 500 1200 500 1125 L 500 1050 525 1050 L 550 1050 550 975 L 550 900 525 900 L 500 900 500 850 L 500 800 475 800 L 450 800 450 850" stroke="none" fill="#292929" fill-rule="evenodd"/><path d="M 1000 175 L 1000 200 975 200 L 950 200 950 225 L 950 250 925 250 L 900 250 900 275 L 900 300 925 300 L 950 300 950 425 L 950 550 975 550 L 1000 550 1000 625 L 1000 700 775 700 L 550 700 550 725 L 550 750 750 750 L 950 750 950 775 L 950 800 975 800 L 1000 800 1000 825 L 1000 850 975 850 L 950 850 950 875 L 950 900 925 900 L 900 900 900 975 L 900 1050 925 1050 L 950 1050 950 1125 L 950 1200 925 1200 L 900 1200 900 1300 L 900 1400 875 1400 L 850 1400 850 1425 L 850 1450 600 1450 L 350 1450 350 1475 L 350 1500 600 1500 L 850 1500 850 1550 L 850 1600 1075 1600 L 1300 1600 1300 1550 L 1300 1500 1275 1500 L 1250 1500 1250 1475 L 1250 1450 1275 1450 L 1300 1450 1300 1375 L 1300 1300 1275 1300 L 1250 1300 1250 1275 L 1250 1250 1225 1250 L 1200 1250 1200 1225 L 1200 1200 1175 1200 L 1150 1200 1150 1125 L 1150 1050 1125 1050 L 1100 1050 1100 975 L 1100 900 1125 900 L 1150 900 1150 850 L 1150 800 1125 800 L 1100 800 1100 775 L 1100 750 1075 750 L 1050 750 1050 725 L 1050 700 1075 700 L 1100 700 1100 675 L 1100 650 1125 650 L 1150 650 1150 400 L 1150 150 1075 150 L 1000 150 1000 175 M 600 250 L 600 300 650 300 L 700 300 700 275 L 700 250 675 250 L 650 250 650 225 L 650 200 625 200 L 600 200 600 250 M 450 600 L 450 650 475 650 L 500 650 500 600 L 500 550 475 550 L 450 550 450 600 M 450 850 L 450 900 475 900 L 500 900 500 975 L 500 1050 475 1050 L 450 1050 450 1125 L 450 1200 425 1200 L 400 1200 400 1225 L 400 1250 425 1250 L 450 1250 450 1225 L 450 1200 475 1200 L 500 1200 500 1125 L 500 1050 525 1050 L 550 1050 550 975 L 550 900 525 900 L 500 900 500 850 L 500 800 475 800 L 450 800 450 850" stroke="none" fill="#292929" fill-rule="evenodd"/><path d="M 1000 175 L 1000 200 975 200 L 950 200 950 225 L 950 250 925 250 L 900 250 900 275 L 900 300 925 300 L 950 300 950 425 L 950 550 975 550 L 1000 550 1000 625 L 1000 700 775 700 L 550 700 550 725 L 550 750 750 750 L 950 750 950 775 L 950 800 975 800 L 1000 800 1000 825 L 1000 850 975 850 L 950 850 950 875 L 950 900 925 900 L 900 900 900 975 L 900 1050 925 1050 L 950 1050 950 1125 L 950 1200 925 1200 L 900 1200 900 1300 L 900 1400 875 1400 L 850 1400 850 1425 L 850 1450 600 1450 L 350 1450 350 1475 L 350 1500 600 1500 L 850 1500 850 1550 L 850 1600 1075 1600 L 1300 1600 1300 1550 L 1300 1500 1275 1500 L 1250 1500 1250 1475 L 1250 1450 1275 1450 L 1300 1450 1300 1375 L 1300 1300 1275 1300 L 1250 1300 1250 1275 L 1250 1250 1225 1250 L 1200 1250 1200 1225 L 1200 1200 1175 1200 L 1150 1200 1150 1125 L 1150 1050 1125 1050 L 1100 1050 1100 975 L 1100 900 1125 900 L 1150 900 1150 850 L 1150 800 1125 800 L 1100 800 1100 775 L 1100 750 1075 750 L 1050 750 1050 725 L 1050 700 1075 700 L 1100 700 1100 675 L 1100 650 1125 650 L 1150 650 1150 400 L 1150 150 1075 150 L 1000 150 1000 175 M 600 250 L 600 300 650 300 L 700 300 700 275 L 700 250 675 250 L 650 250 650 225 L 650 200 625 200 L 600 200 600 250 M 450 600 L 450 650 475 650 L 500 650 500 600 L 500 550 475 550 L 450 550 450 600 M 450 850 L 450 900 475 900 L 500 900 500 975 L 500 1050 475 1050 L 450 1050 450 1125 L 450 1200 425 1200 L 400 1200 400 1225 L 400 1250 425 1250 L 450 1250 450 1225 L 450 1200 475 1200 L 500 1200 500 1125 L 500 1050 525 1050 L 550 1050 550 975 L 550 900 525 900 L 500 900 500 850 L 500 800 475 800 L 450 800 450 850" stroke="none" fill="#292929" fill-rule="evenodd"/></svg>