<svg xmlns="http://www.w3.org/2000/svg" width="1600" height="1600" viewBox="0 0 1600 1600" version="1.1"><path d="M 450 400 L 450 600 475 600 L 500 600 500 625 L 500 650 650 650 L 800 650 800 600 L 800 550 775 550 L 750 550 750 525 L 750 500 725 500 L 700 500 700 475 L 700 450 675 450 L 650 450 650 425 L 650 400 625 400 L 600 400 600 375 L 600 350 575 350 L 550 350 550 275 L 550 200 500 200 L 450 200 450 400 M 450 850 L 450 900 625 900 L 800 900 800 850 L 800 800 625 800 L 450 800 450 850 M 550 1025 L 550 1050 500 1050 L 450 1050 450 1075 L 450 1100 425 1100 L 400 1100 400 1200 L 400 1300 375 1300 L 350 1300 350 1375 L 350 1450 450 1450 L 550 1450 550 1425 L 550 1400 575 1400 L 600 1400 600 1375 L 600 1350 625 1350 L 650 1350 650 1300 L 650 1250 675 1250 L 700 1250 700 1150 L 700 1050 725 1050 L 750 1050 750 1025 L 750 1000 650 1000 L 550 1000 550 1025 M 300 1525 L 300 1550 400 1550 L 500 1550 500 1525 L 500 1500 400 1500 L 300 1500 300 1525" stroke="none" fill="#ffffff" fill-rule="evenodd"/><path d="M 450 400 L 450 600 475 600 L 500 600 500 625 L 500 650 650 650 L 800 650 800 600 L 800 550 775 550 L 750 550 750 525 L 750 500 725 500 L 700 500 700 475 L 700 450 675 450 L 650 450 650 425 L 650 400 625 400 L 600 400 600 375 L 600 350 575 350 L 550 350 550 275 L 550 200 500 200 L 450 200 450 400 M 450 850 L 450 900 625 900 L 800 900 800 850 L 800 800 625 800 L 450 800 450 850 M 550 1025 L 550 1050 500 1050 L 450 1050 450 1075 L 450 1100 425 1100 L 400 1100 400 1200 L 400 1300 375 1300 L 350 1300 350 1375 L 350 1450 450 1450 L 550 1450 550 1425 L 550 1400 575 1400 L 600 1400 600 1375 L 600 1350 625 1350 L 650 1350 650 1300 L 650 1250 675 1250 L 700 1250 700 1150 L 700 1050 725 1050 L 750 1050 750 1025 L 750 1000 650 1000 L 550 1000 550 1025 M 300 1525 L 300 1550 400 1550 L 500 1550 500 1525 L 500 1500 400 1500 L 300 1500 300 1525" stroke="none" fill="#ffffff" fill-rule="evenodd"/><path d="M 450 400 L 450 600 475 600 L 500 600 500 625 L 500 650 650 650 L 800 650 800 600 L 800 550 775 550 L 750 550 750 525 L 750 500 725 500 L 700 500 700 475 L 700 450 675 450 L 650 450 650 425 L 650 400 625 400 L 600 400 600 375 L 600 350 575 350 L 550 350 550 275 L 550 200 500 200 L 450 200 450 400 M 450 850 L 450 900 625 900 L 800 900 800 850 L 800 800 625 800 L 450 800 450 850 M 550 1025 L 550 1050 500 1050 L 450 1050 450 1075 L 450 1100 425 1100 L 400 1100 400 1200 L 400 1300 375 1300 L 350 1300 350 1375 L 350 1450 450 1450 L 550 1450 550 1425 L 550 1400 575 1400 L 600 1400 600 1375 L 600 1350 625 1350 L 650 1350 650 1300 L 650 1250 675 1250 L 700 1250 700 1150 L 700 1050 725 1050 L 750 1050 750 1025 L 750 1000 650 1000 L 550 1000 550 1025 M 300 1525 L 300 1550 400 1550 L 500 1550 500 1525 L 500 1500 400 1500 L 300 1500 300 1525" stroke="none" fill="#ffffff" fill-rule="evenodd"/><path d="M 450 400 L 450 600 475 600 L 500 600 500 625 L 500 650 650 650 L 800 650 800 600 L 800 550 775 550 L 750 550 750 525 L 750 500 725 500 L 700 500 700 475 L 700 450 675 450 L 650 450 650 425 L 650 400 625 400 L 600 400 600 375 L 600 350 575 350 L 550 350 550 275 L 550 200 500 200 L 450 200 450 400 M 450 850 L 450 900 625 900 L 800 900 800 850 L 800 800 625 800 L 450 800 450 850 M 550 1025 L 550 1050 500 1050 L 450 1050 450 1075 L 450 1100 425 1100 L 400 1100 400 1200 L 400 1300 375 1300 L 350 1300 350 1375 L 350 1450 450 1450 L 550 1450 550 1425 L 550 1400 575 1400 L 600 1400 600 1375 L 600 1350 625 1350 L 650 1350 650 1300 L 650 1250 675 1250 L 700 1250 700 1150 L 700 1050 725 1050 L 750 1050 750 1025 L 750 1000 650 1000 L 550 1000 550 1025 M 300 1525 L 300 1550 400 1550 L 500 1550 500 1525 L 500 1500 400 1500 L 300 1500 300 1525" stroke="none" fill="#ffffff" fill-rule="evenodd"/><path d="M 400 400 L 400 650 425 650 L 450 650 450 675 L 450 700 725 700 L 1000 700 1000 625 L 1000 550 975 550 L 950 550 950 425 L 950 300 925 300 L 900 300 900 225 L 900 150 800 150 L 700 150 700 225 L 700 300 650 300 L 600 300 600 225 L 600 150 500 150 L 400 150 400 400 M 450 400 L 450 600 475 600 L 500 600 500 625 L 500 650 650 650 L 800 650 800 600 L 800 550 775 550 L 750 550 750 525 L 750 500 725 500 L 700 500 700 475 L 700 450 675 450 L 650 450 650 425 L 650 400 625 400 L 600 400 600 375 L 600 350 575 350 L 550 350 550 275 L 550 200 500 200 L 450 200 450 400 M 450 775 L 450 800 425 800 L 400 800 400 850 L 400 900 425 900 L 450 900 450 925 L 450 950 675 950 L 900 950 900 925 L 900 900 925 900 L 950 900 950 875 L 950 850 975 850 L 1000 850 1000 825 L 1000 800 975 800 L 950 800 950 775 L 950 750 700 750 L 450 750 450 775 M 450 850 L 450 900 625 900 L 800 900 800 850 L 800 800 625 800 L 450 800 450 850 M 450 1025 L 450 1050 425 1050 L 400 1050 400 1075 L 400 1100 375 1100 L 350 1100 350 1200 L 350 1300 325 1300 L 300 1300 300 1375 L 300 1450 325 1450 L 350 1450 350 1375 L 350 1300 375 1300 L 400 1300 400 1200 L 400 1100 425 1100 L 450 1100 450 1075 L 450 1050 500 1050 L 550 1050 550 1025 L 550 1000 500 1000 L 450 1000 450 1025 M 750 1025 L 750 1050 725 1050 L 700 1050 700 1150 L 700 1250 675 1250 L 650 1250 650 1300 L 650 1350 625 1350 L 600 1350 600 1375 L 600 1400 575 1400 L 550 1400 550 1425 L 550 1450 700 1450 L 850 1450 850 1425 L 850 1400 875 1400 L 900 1400 900 1300 L 900 1200 925 1200 L 950 1200 950 1125 L 950 1050 925 1050 L 900 1050 900 1025 L 900 1000 825 1000 L 750 1000 750 1025 M 500 1525 L 500 1550 400 1550 L 300 1550 300 1575 L 300 1600 575 1600 L 850 1600 850 1550 L 850 1500 675 1500 L 500 1500 500 1525" stroke="none" fill="#b4b4b4" fill-rule="evenodd"/><path d="M 400 400 L 400 650 425 650 L 450 650 450 675 L 450 700 725 700 L 1000 700 1000 625 L 1000 550 975 550 L 950 550 950 425 L 950 300 925 300 L 900 300 900 225 L 900 150 800 150 L 700 150 700 225 L 700 300 650 300 L 600 300 600 225 L 600 150 500 150 L 400 150 400 400 M 450 400 L 450 600 475 600 L 500 600 500 625 L 500 650 650 650 L 800 650 800 600 L 800 550 775 550 L 750 550 750 525 L 750 500 725 500 L 700 500 700 475 L 700 450 675 450 L 650 450 650 425 L 650 400 625 400 L 600 400 600 375 L 600 350 575 350 L 550 350 550 275 L 550 200 500 200 L 450 200 450 400 M 450 775 L 450 800 425 800 L 400 800 400 850 L 400 900 425 900 L 450 900 450 925 L 450 950 675 950 L 900 950 900 925 L 900 900 925 900 L 950 900 950 875 L 950 850 975 850 L 1000 850 1000 825 L 1000 800 975 800 L 950 800 950 775 L 950 750 700 750 L 450 750 450 775 M 450 850 L 450 900 625 900 L 800 900 800 850 L 800 800 625 800 L 450 800 450 850 M 450 1025 L 450 1050 425 1050 L 400 1050 400 1075 L 400 1100 375 1100 L 350 1100 350 1200 L 350 1300 325 1300 L 300 1300 300 1375 L 300 1450 325 1450 L 350 1450 350 1375 L 350 1300 375 1300 L 400 1300 400 1200 L 400 1100 425 1100 L 450 1100 450 1075 L 450 1050 500 1050 L 550 1050 550 1025 L 550 1000 500 1000 L 450 1000 450 1025 M 750 1025 L 750 1050 725 1050 L 700 1050 700 1150 L 700 1250 675 1250 L 650 1250 650 1300 L 650 1350 625 1350 L 600 1350 600 1375 L 600 1400 575 1400 L 550 1400 550 1425 L 550 1450 700 1450 L 850 1450 850 1425 L 850 1400 875 1400 L 900 1400 900 1300 L 900 1200 925 1200 L 950 1200 950 1125 L 950 1050 925 1050 L 900 1050 900 1025 L 900 1000 825 1000 L 750 1000 750 1025 M 500 1525 L 500 1550 400 1550 L 300 1550 300 1575 L 300 1600 575 1600 L 850 1600 850 1550 L 850 1500 675 1500 L 500 1500 500 1525" stroke="none" fill="#b4b4b4" fill-rule="evenodd"/><path d="M 400 400 L 400 650 425 650 L 450 650 450 675 L 450 700 725 700 L 1000 700 1000 625 L 1000 550 975 550 L 950 550 950 425 L 950 300 925 300 L 900 300 900 225 L 900 150 800 150 L 700 150 700 225 L 700 300 650 300 L 600 300 600 225 L 600 150 500 150 L 400 150 400 400 M 450 400 L 450 600 475 600 L 500 600 500 625 L 500 650 650 650 L 800 650 800 600 L 800 550 775 550 L 750 550 750 525 L 750 500 725 500 L 700 500 700 475 L 700 450 675 450 L 650 450 650 425 L 650 400 625 400 L 600 400 600 375 L 600 350 575 350 L 550 350 550 275 L 550 200 500 200 L 450 200 450 400 M 450 775 L 450 800 425 800 L 400 800 400 850 L 400 900 425 900 L 450 900 450 925 L 450 950 675 950 L 900 950 900 925 L 900 900 925 900 L 950 900 950 875 L 950 850 975 850 L 1000 850 1000 825 L 1000 800 975 800 L 950 800 950 775 L 950 750 700 750 L 450 750 450 775 M 450 850 L 450 900 625 900 L 800 900 800 850 L 800 800 625 800 L 450 800 450 850 M 450 1025 L 450 1050 425 1050 L 400 1050 400 1075 L 400 1100 375 1100 L 350 1100 350 1200 L 350 1300 325 1300 L 300 1300 300 1375 L 300 1450 325 1450 L 350 1450 350 1375 L 350 1300 375 1300 L 400 1300 400 1200 L 400 1100 425 1100 L 450 1100 450 1075 L 450 1050 500 1050 L 550 1050 550 1025 L 550 1000 500 1000 L 450 1000 450 1025 M 750 1025 L 750 1050 725 1050 L 700 1050 700 1150 L 700 1250 675 1250 L 650 1250 650 1300 L 650 1350 625 1350 L 600 1350 600 1375 L 600 1400 575 1400 L 550 1400 550 1425 L 550 1450 700 1450 L 850 1450 850 1425 L 850 1400 875 1400 L 900 1400 900 1300 L 900 1200 925 1200 L 950 1200 950 1125 L 950 1050 925 1050 L 900 1050 900 1025 L 900 1000 825 1000 L 750 1000 750 1025 M 500 1525 L 500 1550 400 1550 L 300 1550 300 1575 L 300 1600 575 1600 L 850 1600 850 1550 L 850 1500 675 1500 L 500 1500 500 1525" stroke="none" fill="#b4b4b4" fill-rule="evenodd"/><path d="M 400 400 L 400 650 425 650 L 450 650 450 675 L 450 700 725 700 L 1000 700 1000 625 L 1000 550 975 550 L 950 550 950 425 L 950 300 925 300 L 900 300 900 225 L 900 150 800 150 L 700 150 700 225 L 700 300 650 300 L 600 300 600 225 L 600 150 500 150 L 400 150 400 400 M 450 400 L 450 600 475 600 L 500 600 500 625 L 500 650 650 650 L 800 650 800 600 L 800 550 775 550 L 750 550 750 525 L 750 500 725 500 L 700 500 700 475 L 700 450 675 450 L 650 450 650 425 L 650 400 625 400 L 600 400 600 375 L 600 350 575 350 L 550 350 550 275 L 550 200 500 200 L 450 200 450 400 M 450 775 L 450 800 425 800 L 400 800 400 850 L 400 900 425 900 L 450 900 450 925 L 450 950 675 950 L 900 950 900 925 L 900 900 925 900 L 950 900 950 875 L 950 850 975 850 L 1000 850 1000 825 L 1000 800 975 800 L 950 800 950 775 L 950 750 700 750 L 450 750 450 775 M 450 850 L 450 900 625 900 L 800 900 800 850 L 800 800 625 800 L 450 800 450 850 M 450 1025 L 450 1050 425 1050 L 400 1050 400 1075 L 400 1100 375 1100 L 350 1100 350 1200 L 350 1300 325 1300 L 300 1300 300 1375 L 300 1450 325 1450 L 350 1450 350 1375 L 350 1300 375 1300 L 400 1300 400 1200 L 400 1100 425 1100 L 450 1100 450 1075 L 450 1050 500 1050 L 550 1050 550 1025 L 550 1000 500 1000 L 450 1000 450 1025 M 750 1025 L 750 1050 725 1050 L 700 1050 700 1150 L 700 1250 675 1250 L 650 1250 650 1300 L 650 1350 625 1350 L 600 1350 600 1375 L 600 1400 575 1400 L 550 1400 550 1425 L 550 1450 700 1450 L 850 1450 850 1425 L 850 1400 875 1400 L 900 1400 900 1300 L 900 1200 925 1200 L 950 1200 950 1125 L 950 1050 925 1050 L 900 1050 900 1025 L 900 1000 825 1000 L 750 1000 750 1025 M 500 1525 L 500 1550 400 1550 L 300 1550 300 1575 L 300 1600 575 1600 L 850 1600 850 1550 L 850 1500 675 1500 L 500 1500 500 1525" stroke="none" fill="#b4b4b4" fill-rule="evenodd"/><path d="M 1000 175 L 1000 200 975 200 L 950 200 950 225 L 950 250 925 250 L 900 250 900 275 L 900 300 925 300 L 950 300 950 425 L 950 550 975 550 L 1000 550 1000 625 L 1000 700 750 700 L 500 700 500 725 L 500 750 725 750 L 950 750 950 775 L 950 800 975 800 L 1000 800 1000 825 L 1000 850 975 850 L 950 850 950 875 L 950 900 925 900 L 900 900 900 925 L 900 950 700 950 L 500 950 500 975 L 500 1000 700 1000 L 900 1000 900 1025 L 900 1050 925 1050 L 950 1050 950 1125 L 950 1200 925 1200 L 900 1200 900 1300 L 900 1400 875 1400 L 850 1400 850 1425 L 850 1450 600 1450 L 350 1450 350 1475 L 350 1500 600 1500 L 850 1500 850 1550 L 850 1600 1075 1600 L 1300 1600 1300 1550 L 1300 1500 1275 1500 L 1250 1500 1250 1475 L 1250 1450 1275 1450 L 1300 1450 1300 1375 L 1300 1300 1275 1300 L 1250 1300 1250 1200 L 1250 1100 1225 1100 L 1200 1100 1200 1075 L 1200 1050 1175 1050 L 1150 1050 1150 1025 L 1150 1000 1125 1000 L 1100 1000 1100 975 L 1100 950 1125 950 L 1150 950 1150 925 L 1150 900 1175 900 L 1200 900 1200 850 L 1200 800 1175 800 L 1150 800 1150 775 L 1150 750 1125 750 L 1100 750 1100 725 L 1100 700 1125 700 L 1150 700 1150 675 L 1150 650 1175 650 L 1200 650 1200 400 L 1200 150 1100 150 L 1000 150 1000 175 M 600 250 L 600 300 650 300 L 700 300 700 275 L 700 250 675 250 L 650 250 650 225 L 650 200 625 200 L 600 200 600 250" stroke="none" fill="#292929" fill-rule="evenodd"/><path d="M 1000 175 L 1000 200 975 200 L 950 200 950 225 L 950 250 925 250 L 900 250 900 275 L 900 300 925 300 L 950 300 950 425 L 950 550 975 550 L 1000 550 1000 625 L 1000 700 750 700 L 500 700 500 725 L 500 750 725 750 L 950 750 950 775 L 950 800 975 800 L 1000 800 1000 825 L 1000 850 975 850 L 950 850 950 875 L 950 900 925 900 L 900 900 900 925 L 900 950 700 950 L 500 950 500 975 L 500 1000 700 1000 L 900 1000 900 1025 L 900 1050 925 1050 L 950 1050 950 1125 L 950 1200 925 1200 L 900 1200 900 1300 L 900 1400 875 1400 L 850 1400 850 1425 L 850 1450 600 1450 L 350 1450 350 1475 L 350 1500 600 1500 L 850 1500 850 1550 L 850 1600 1075 1600 L 1300 1600 1300 1550 L 1300 1500 1275 1500 L 1250 1500 1250 1475 L 1250 1450 1275 1450 L 1300 1450 1300 1375 L 1300 1300 1275 1300 L 1250 1300 1250 1200 L 1250 1100 1225 1100 L 1200 1100 1200 1075 L 1200 1050 1175 1050 L 1150 1050 1150 1025 L 1150 1000 1125 1000 L 1100 1000 1100 975 L 1100 950 1125 950 L 1150 950 1150 925 L 1150 900 1175 900 L 1200 900 1200 850 L 1200 800 1175 800 L 1150 800 1150 775 L 1150 750 1125 750 L 1100 750 1100 725 L 1100 700 1125 700 L 1150 700 1150 675 L 1150 650 1175 650 L 1200 650 1200 400 L 1200 150 1100 150 L 1000 150 1000 175 M 600 250 L 600 300 650 300 L 700 300 700 275 L 700 250 675 250 L 650 250 650 225 L 650 200 625 200 L 600 200 600 250" stroke="none" fill="#292929" fill-rule="evenodd"/><path d="M 1000 175 L 1000 200 975 200 L 950 200 950 225 L 950 250 925 250 L 900 250 900 275 L 900 300 925 300 L 950 300 950 425 L 950 550 975 550 L 1000 550 1000 625 L 1000 700 750 700 L 500 700 500 725 L 500 750 725 750 L 950 750 950 775 L 950 800 975 800 L 1000 800 1000 825 L 1000 850 975 850 L 950 850 950 875 L 950 900 925 900 L 900 900 900 925 L 900 950 700 950 L 500 950 500 975 L 500 1000 700 1000 L 900 1000 900 1025 L 900 1050 925 1050 L 950 1050 950 1125 L 950 1200 925 1200 L 900 1200 900 1300 L 900 1400 875 1400 L 850 1400 850 1425 L 850 1450 600 1450 L 350 1450 350 1475 L 350 1500 600 1500 L 850 1500 850 1550 L 850 1600 1075 1600 L 1300 1600 1300 1550 L 1300 1500 1275 1500 L 1250 1500 1250 1475 L 1250 1450 1275 1450 L 1300 1450 1300 1375 L 1300 1300 1275 1300 L 1250 1300 1250 1200 L 1250 1100 1225 1100 L 1200 1100 1200 1075 L 1200 1050 1175 1050 L 1150 1050 1150 1025 L 1150 1000 1125 1000 L 1100 1000 1100 975 L 1100 950 1125 950 L 1150 950 1150 925 L 1150 900 1175 900 L 1200 900 1200 850 L 1200 800 1175 800 L 1150 800 1150 775 L 1150 750 1125 750 L 1100 750 1100 725 L 1100 700 1125 700 L 1150 700 1150 675 L 1150 650 1175 650 L 1200 650 1200 400 L 1200 150 1100 150 L 1000 150 1000 175 M 600 250 L 600 300 650 300 L 700 300 700 275 L 700 250 675 250 L 650 250 650 225 L 650 200 625 200 L 600 200 600 250" stroke="none" fill="#292929" fill-rule="evenodd"/><path d="M 1000 175 L 1000 200 975 200 L 950 200 950 225 L 950 250 925 250 L 900 250 900 275 L 900 300 925 300 L 950 300 950 425 L 950 550 975 550 L 1000 550 1000 625 L 1000 700 750 700 L 500 700 500 725 L 500 750 725 750 L 950 750 950 775 L 950 800 975 800 L 1000 800 1000 825 L 1000 850 975 850 L 950 850 950 875 L 950 900 925 900 L 900 900 900 925 L 900 950 700 950 L 500 950 500 975 L 500 1000 700 1000 L 900 1000 900 1025 L 900 1050 925 1050 L 950 1050 950 1125 L 950 1200 925 1200 L 900 1200 900 1300 L 900 1400 875 1400 L 850 1400 850 1425 L 850 1450 600 1450 L 350 1450 350 1475 L 350 1500 600 1500 L 850 1500 850 1550 L 850 1600 1075 1600 L 1300 1600 1300 1550 L 1300 1500 1275 1500 L 1250 1500 1250 1475 L 1250 1450 1275 1450 L 1300 1450 1300 1375 L 1300 1300 1275 1300 L 1250 1300 1250 1200 L 1250 1100 1225 1100 L 1200 1100 1200 1075 L 1200 1050 1175 1050 L 1150 1050 1150 1025 L 1150 1000 1125 1000 L 1100 1000 1100 975 L 1100 950 1125 950 L 1150 950 1150 925 L 1150 900 1175 900 L 1200 900 1200 850 L 1200 800 1175 800 L 1150 800 1150 775 L 1150 750 1125 750 L 1100 750 1100 725 L 1100 700 1125 700 L 1150 700 1150 675 L 1150 650 1175 650 L 1200 650 1200 400 L 1200 150 1100 150 L 1000 150 1000 175 M 600 250 L 600 300 650 300 L 700 300 700 275 L 700 250 675 250 L 650 250 650 225 L 650 200 625 200 L 600 200 600 250" stroke="none" fill="#292929" fill-rule="evenodd"/></svg>