<svg xmlns="http://www.w3.org/2000/svg" width="1600" height="1600" viewBox="0 0 1600 1600" version="1.1"><path d="M 600 425 L 600 450 575 450 L 550 450 550 475 L 550 500 525 500 L 500 500 500 575 L 500 650 650 650 L 800 650 800 600 L 800 550 775 550 L 750 550 750 525 L 750 500 725 500 L 700 500 700 475 L 700 450 675 450 L 650 450 650 425 L 650 400 625 400 L 600 400 600 425 M 500 850 L 500 900 525 900 L 550 900 550 925 L 550 950 650 950 L 750 950 750 925 L 750 900 775 900 L 800 900 800 850 L 800 800 650 800 L 500 800 500 850 M 550 1025 L 550 1050 525 1050 L 500 1050 500 1125 L 500 1200 475 1200 L 450 1200 450 1225 L 450 1250 400 1250 L 350 1250 350 1275 L 350 1300 325 1300 L 300 1300 300 1375 L 300 1450 425 1450 L 550 1450 550 1425 L 550 1400 575 1400 L 600 1400 600 1375 L 600 1350 625 1350 L 650 1350 650 1300 L 650 1250 675 1250 L 700 1250 700 1150 L 700 1050 725 1050 L 750 1050 750 1025 L 750 1000 650 1000 L 550 1000 550 1025 M 300 1525 L 300 1550 400 1550 L 500 1550 500 1525 L 500 1500 400 1500 L 300 1500 300 1525" stroke="none" fill="#ffffff" fill-rule="evenodd"/><path d="M 600 425 L 600 450 575 450 L 550 450 550 475 L 550 500 525 500 L 500 500 500 575 L 500 650 650 650 L 800 650 800 600 L 800 550 775 550 L 750 550 750 525 L 750 500 725 500 L 700 500 700 475 L 700 450 675 450 L 650 450 650 425 L 650 400 625 400 L 600 400 600 425 M 500 850 L 500 900 525 900 L 550 900 550 925 L 550 950 650 950 L 750 950 750 925 L 750 900 775 900 L 800 900 800 850 L 800 800 650 800 L 500 800 500 850 M 550 1025 L 550 1050 525 1050 L 500 1050 500 1125 L 500 1200 475 1200 L 450 1200 450 1225 L 450 1250 400 1250 L 350 1250 350 1275 L 350 1300 325 1300 L 300 1300 300 1375 L 300 1450 425 1450 L 550 1450 550 1425 L 550 1400 575 1400 L 600 1400 600 1375 L 600 1350 625 1350 L 650 1350 650 1300 L 650 1250 675 1250 L 700 1250 700 1150 L 700 1050 725 1050 L 750 1050 750 1025 L 750 1000 650 1000 L 550 1000 550 1025 M 300 1525 L 300 1550 400 1550 L 500 1550 500 1525 L 500 1500 400 1500 L 300 1500 300 1525" stroke="none" fill="#ffffff" fill-rule="evenodd"/><path d="M 600 425 L 600 450 575 450 L 550 450 550 475 L 550 500 525 500 L 500 500 500 575 L 500 650 650 650 L 800 650 800 600 L 800 550 775 550 L 750 550 750 525 L 750 500 725 500 L 700 500 700 475 L 700 450 675 450 L 650 450 650 425 L 650 400 625 400 L 600 400 600 425 M 500 850 L 500 900 525 900 L 550 900 550 925 L 550 950 650 950 L 750 950 750 925 L 750 900 775 900 L 800 900 800 850 L 800 800 650 800 L 500 800 500 850 M 550 1025 L 550 1050 525 1050 L 500 1050 500 1125 L 500 1200 475 1200 L 450 1200 450 1225 L 450 1250 400 1250 L 350 1250 350 1275 L 350 1300 325 1300 L 300 1300 300 1375 L 300 1450 425 1450 L 550 1450 550 1425 L 550 1400 575 1400 L 600 1400 600 1375 L 600 1350 625 1350 L 650 1350 650 1300 L 650 1250 675 1250 L 700 1250 700 1150 L 700 1050 725 1050 L 750 1050 750 1025 L 750 1000 650 1000 L 550 1000 550 1025 M 300 1525 L 300 1550 400 1550 L 500 1550 500 1525 L 500 1500 400 1500 L 300 1500 300 1525" stroke="none" fill="#ffffff" fill-rule="evenodd"/><path d="M 600 425 L 600 450 575 450 L 550 450 550 475 L 550 500 525 500 L 500 500 500 575 L 500 650 650 650 L 800 650 800 600 L 800 550 775 550 L 750 550 750 525 L 750 500 725 500 L 700 500 700 475 L 700 450 675 450 L 650 450 650 425 L 650 400 625 400 L 600 400 600 425 M 500 850 L 500 900 525 900 L 550 900 550 925 L 550 950 650 950 L 750 950 750 925 L 750 900 775 900 L 800 900 800 850 L 800 800 650 800 L 500 800 500 850 M 550 1025 L 550 1050 525 1050 L 500 1050 500 1125 L 500 1200 475 1200 L 450 1200 450 1225 L 450 1250 400 1250 L 350 1250 350 1275 L 350 1300 325 1300 L 300 1300 300 1375 L 300 1450 425 1450 L 550 1450 550 1425 L 550 1400 575 1400 L 600 1400 600 1375 L 600 1350 625 1350 L 650 1350 650 1300 L 650 1250 675 1250 L 700 1250 700 1150 L 700 1050 725 1050 L 750 1050 750 1025 L 750 1000 650 1000 L 550 1000 550 1025 M 300 1525 L 300 1550 400 1550 L 500 1550 500 1525 L 500 1500 400 1500 L 300 1500 300 1525" stroke="none" fill="#ffffff" fill-rule="evenodd"/><path d="M 650 400 L 650 450 675 450 L 700 450 700 475 L 700 500 725 500 L 750 500 750 525 L 750 550 775 550 L 800 550 800 600 L 800 650 675 650 L 550 650 550 675 L 550 700 775 700 L 1000 700 1000 625 L 1000 550 975 550 L 950 550 950 500 L 950 450 925 450 L 900 450 900 425 L 900 400 875 400 L 850 400 850 375 L 850 350 750 350 L 650 350 650 400 M 500 775 L 500 800 650 800 L 800 800 800 850 L 800 900 775 900 L 750 900 750 925 L 750 950 825 950 L 900 950 900 925 L 900 900 925 900 L 950 900 950 875 L 950 850 975 850 L 1000 850 1000 825 L 1000 800 975 800 L 950 800 950 775 L 950 750 725 750 L 500 750 500 775 M 750 1025 L 750 1050 725 1050 L 700 1050 700 1150 L 700 1250 675 1250 L 650 1250 650 1300 L 650 1350 625 1350 L 600 1350 600 1375 L 600 1400 575 1400 L 550 1400 550 1425 L 550 1450 675 1450 L 800 1450 800 1400 L 800 1350 825 1350 L 850 1350 850 1300 L 850 1250 875 1250 L 900 1250 900 1225 L 900 1200 925 1200 L 950 1200 950 1125 L 950 1050 925 1050 L 900 1050 900 1025 L 900 1000 825 1000 L 750 1000 750 1025 M 500 1525 L 500 1550 400 1550 L 300 1550 300 1575 L 300 1600 550 1600 L 800 1600 800 1550 L 800 1500 650 1500 L 500 1500 500 1525" stroke="none" fill="#b4b4b4" fill-rule="evenodd"/><path d="M 650 400 L 650 450 675 450 L 700 450 700 475 L 700 500 725 500 L 750 500 750 525 L 750 550 775 550 L 800 550 800 600 L 800 650 675 650 L 550 650 550 675 L 550 700 775 700 L 1000 700 1000 625 L 1000 550 975 550 L 950 550 950 500 L 950 450 925 450 L 900 450 900 425 L 900 400 875 400 L 850 400 850 375 L 850 350 750 350 L 650 350 650 400 M 500 775 L 500 800 650 800 L 800 800 800 850 L 800 900 775 900 L 750 900 750 925 L 750 950 825 950 L 900 950 900 925 L 900 900 925 900 L 950 900 950 875 L 950 850 975 850 L 1000 850 1000 825 L 1000 800 975 800 L 950 800 950 775 L 950 750 725 750 L 500 750 500 775 M 750 1025 L 750 1050 725 1050 L 700 1050 700 1150 L 700 1250 675 1250 L 650 1250 650 1300 L 650 1350 625 1350 L 600 1350 600 1375 L 600 1400 575 1400 L 550 1400 550 1425 L 550 1450 675 1450 L 800 1450 800 1400 L 800 1350 825 1350 L 850 1350 850 1300 L 850 1250 875 1250 L 900 1250 900 1225 L 900 1200 925 1200 L 950 1200 950 1125 L 950 1050 925 1050 L 900 1050 900 1025 L 900 1000 825 1000 L 750 1000 750 1025 M 500 1525 L 500 1550 400 1550 L 300 1550 300 1575 L 300 1600 550 1600 L 800 1600 800 1550 L 800 1500 650 1500 L 500 1500 500 1525" stroke="none" fill="#b4b4b4" fill-rule="evenodd"/><path d="M 650 400 L 650 450 675 450 L 700 450 700 475 L 700 500 725 500 L 750 500 750 525 L 750 550 775 550 L 800 550 800 600 L 800 650 675 650 L 550 650 550 675 L 550 700 775 700 L 1000 700 1000 625 L 1000 550 975 550 L 950 550 950 500 L 950 450 925 450 L 900 450 900 425 L 900 400 875 400 L 850 400 850 375 L 850 350 750 350 L 650 350 650 400 M 500 775 L 500 800 650 800 L 800 800 800 850 L 800 900 775 900 L 750 900 750 925 L 750 950 825 950 L 900 950 900 925 L 900 900 925 900 L 950 900 950 875 L 950 850 975 850 L 1000 850 1000 825 L 1000 800 975 800 L 950 800 950 775 L 950 750 725 750 L 500 750 500 775 M 750 1025 L 750 1050 725 1050 L 700 1050 700 1150 L 700 1250 675 1250 L 650 1250 650 1300 L 650 1350 625 1350 L 600 1350 600 1375 L 600 1400 575 1400 L 550 1400 550 1425 L 550 1450 675 1450 L 800 1450 800 1400 L 800 1350 825 1350 L 850 1350 850 1300 L 850 1250 875 1250 L 900 1250 900 1225 L 900 1200 925 1200 L 950 1200 950 1125 L 950 1050 925 1050 L 900 1050 900 1025 L 900 1000 825 1000 L 750 1000 750 1025 M 500 1525 L 500 1550 400 1550 L 300 1550 300 1575 L 300 1600 550 1600 L 800 1600 800 1550 L 800 1500 650 1500 L 500 1500 500 1525" stroke="none" fill="#b4b4b4" fill-rule="evenodd"/><path d="M 650 400 L 650 450 675 450 L 700 450 700 475 L 700 500 725 500 L 750 500 750 525 L 750 550 775 550 L 800 550 800 600 L 800 650 675 650 L 550 650 550 675 L 550 700 775 700 L 1000 700 1000 625 L 1000 550 975 550 L 950 550 950 500 L 950 450 925 450 L 900 450 900 425 L 900 400 875 400 L 850 400 850 375 L 850 350 750 350 L 650 350 650 400 M 500 775 L 500 800 650 800 L 800 800 800 850 L 800 900 775 900 L 750 900 750 925 L 750 950 825 950 L 900 950 900 925 L 900 900 925 900 L 950 900 950 875 L 950 850 975 850 L 1000 850 1000 825 L 1000 800 975 800 L 950 800 950 775 L 950 750 725 750 L 500 750 500 775 M 750 1025 L 750 1050 725 1050 L 700 1050 700 1150 L 700 1250 675 1250 L 650 1250 650 1300 L 650 1350 625 1350 L 600 1350 600 1375 L 600 1400 575 1400 L 550 1400 550 1425 L 550 1450 675 1450 L 800 1450 800 1400 L 800 1350 825 1350 L 850 1350 850 1300 L 850 1250 875 1250 L 900 1250 900 1225 L 900 1200 925 1200 L 950 1200 950 1125 L 950 1050 925 1050 L 900 1050 900 1025 L 900 1000 825 1000 L 750 1000 750 1025 M 500 1525 L 500 1550 400 1550 L 300 1550 300 1575 L 300 1600 550 1600 L 800 1600 800 1550 L 800 1500 650 1500 L 500 1500 500 1525" stroke="none" fill="#b4b4b4" fill-rule="evenodd"/><path d="M 850 375 L 850 400 875 400 L 900 400 900 425 L 900 450 925 450 L 950 450 950 500 L 950 550 975 550 L 1000 550 1000 625 L 1000 700 800 700 L 600 700 600 725 L 600 750 775 750 L 950 750 950 775 L 950 800 975 800 L 1000 800 1000 825 L 1000 850 975 850 L 950 850 950 875 L 950 900 925 900 L 900 900 900 925 L 900 950 725 950 L 550 950 550 925 L 550 900 525 900 L 500 900 500 850 L 500 800 475 800 L 450 800 450 850 L 450 900 475 900 L 500 900 500 925 L 500 950 525 950 L 550 950 550 975 L 550 1000 525 1000 L 500 1000 500 1025 L 500 1050 475 1050 L 450 1050 450 1125 L 450 1200 425 1200 L 400 1200 400 1225 L 400 1250 425 1250 L 450 1250 450 1225 L 450 1200 475 1200 L 500 1200 500 1125 L 500 1050 525 1050 L 550 1050 550 1025 L 550 1000 725 1000 L 900 1000 900 1025 L 900 1050 925 1050 L 950 1050 950 1125 L 950 1200 925 1200 L 900 1200 900 1225 L 900 1250 875 1250 L 850 1250 850 1300 L 850 1350 825 1350 L 800 1350 800 1400 L 800 1450 575 1450 L 350 1450 350 1475 L 350 1500 575 1500 L 800 1500 800 1550 L 800 1600 1050 1600 L 1300 1600 1300 1550 L 1300 1500 1275 1500 L 1250 1500 1250 1475 L 1250 1450 1275 1450 L 1300 1450 1300 1375 L 1300 1300 1275 1300 L 1250 1300 1250 1275 L 1250 1250 1225 1250 L 1200 1250 1200 1225 L 1200 1200 1175 1200 L 1150 1200 1150 1125 L 1150 1050 1125 1050 L 1100 1050 1100 1025 L 1100 1000 1075 1000 L 1050 1000 1050 975 L 1050 950 1075 950 L 1100 950 1100 925 L 1100 900 1125 900 L 1150 900 1150 850 L 1150 800 1125 800 L 1100 800 1100 775 L 1100 750 1050 750 L 1000 750 1000 725 L 1000 700 1025 700 L 1050 700 1050 675 L 1050 650 1075 650 L 1100 650 1100 575 L 1100 500 1075 500 L 1050 500 1050 475 L 1050 450 1025 450 L 1000 450 1000 425 L 1000 400 975 400 L 950 400 950 375 L 950 350 900 350 L 850 350 850 375" stroke="none" fill="#292929" fill-rule="evenodd"/><path d="M 850 375 L 850 400 875 400 L 900 400 900 425 L 900 450 925 450 L 950 450 950 500 L 950 550 975 550 L 1000 550 1000 625 L 1000 700 800 700 L 600 700 600 725 L 600 750 775 750 L 950 750 950 775 L 950 800 975 800 L 1000 800 1000 825 L 1000 850 975 850 L 950 850 950 875 L 950 900 925 900 L 900 900 900 925 L 900 950 725 950 L 550 950 550 925 L 550 900 525 900 L 500 900 500 850 L 500 800 475 800 L 450 800 450 850 L 450 900 475 900 L 500 900 500 925 L 500 950 525 950 L 550 950 550 975 L 550 1000 525 1000 L 500 1000 500 1025 L 500 1050 475 1050 L 450 1050 450 1125 L 450 1200 425 1200 L 400 1200 400 1225 L 400 1250 425 1250 L 450 1250 450 1225 L 450 1200 475 1200 L 500 1200 500 1125 L 500 1050 525 1050 L 550 1050 550 1025 L 550 1000 725 1000 L 900 1000 900 1025 L 900 1050 925 1050 L 950 1050 950 1125 L 950 1200 925 1200 L 900 1200 900 1225 L 900 1250 875 1250 L 850 1250 850 1300 L 850 1350 825 1350 L 800 1350 800 1400 L 800 1450 575 1450 L 350 1450 350 1475 L 350 1500 575 1500 L 800 1500 800 1550 L 800 1600 1050 1600 L 1300 1600 1300 1550 L 1300 1500 1275 1500 L 1250 1500 1250 1475 L 1250 1450 1275 1450 L 1300 1450 1300 1375 L 1300 1300 1275 1300 L 1250 1300 1250 1275 L 1250 1250 1225 1250 L 1200 1250 1200 1225 L 1200 1200 1175 1200 L 1150 1200 1150 1125 L 1150 1050 1125 1050 L 1100 1050 1100 1025 L 1100 1000 1075 1000 L 1050 1000 1050 975 L 1050 950 1075 950 L 1100 950 1100 925 L 1100 900 1125 900 L 1150 900 1150 850 L 1150 800 1125 800 L 1100 800 1100 775 L 1100 750 1050 750 L 1000 750 1000 725 L 1000 700 1025 700 L 1050 700 1050 675 L 1050 650 1075 650 L 1100 650 1100 575 L 1100 500 1075 500 L 1050 500 1050 475 L 1050 450 1025 450 L 1000 450 1000 425 L 1000 400 975 400 L 950 400 950 375 L 950 350 900 350 L 850 350 850 375" stroke="none" fill="#292929" fill-rule="evenodd"/><path d="M 850 375 L 850 400 875 400 L 900 400 900 425 L 900 450 925 450 L 950 450 950 500 L 950 550 975 550 L 1000 550 1000 625 L 1000 700 800 700 L 600 700 600 725 L 600 750 775 750 L 950 750 950 775 L 950 800 975 800 L 1000 800 1000 825 L 1000 850 975 850 L 950 850 950 875 L 950 900 925 900 L 900 900 900 925 L 900 950 725 950 L 550 950 550 925 L 550 900 525 900 L 500 900 500 850 L 500 800 475 800 L 450 800 450 850 L 450 900 475 900 L 500 900 500 925 L 500 950 525 950 L 550 950 550 975 L 550 1000 525 1000 L 500 1000 500 1025 L 500 1050 475 1050 L 450 1050 450 1125 L 450 1200 425 1200 L 400 1200 400 1225 L 400 1250 425 1250 L 450 1250 450 1225 L 450 1200 475 1200 L 500 1200 500 1125 L 500 1050 525 1050 L 550 1050 550 1025 L 550 1000 725 1000 L 900 1000 900 1025 L 900 1050 925 1050 L 950 1050 950 1125 L 950 1200 925 1200 L 900 1200 900 1225 L 900 1250 875 1250 L 850 1250 850 1300 L 850 1350 825 1350 L 800 1350 800 1400 L 800 1450 575 1450 L 350 1450 350 1475 L 350 1500 575 1500 L 800 1500 800 1550 L 800 1600 1050 1600 L 1300 1600 1300 1550 L 1300 1500 1275 1500 L 1250 1500 1250 1475 L 1250 1450 1275 1450 L 1300 1450 1300 1375 L 1300 1300 1275 1300 L 1250 1300 1250 1275 L 1250 1250 1225 1250 L 1200 1250 1200 1225 L 1200 1200 1175 1200 L 1150 1200 1150 1125 L 1150 1050 1125 1050 L 1100 1050 1100 1025 L 1100 1000 1075 1000 L 1050 1000 1050 975 L 1050 950 1075 950 L 1100 950 1100 925 L 1100 900 1125 900 L 1150 900 1150 850 L 1150 800 1125 800 L 1100 800 1100 775 L 1100 750 1050 750 L 1000 750 1000 725 L 1000 700 1025 700 L 1050 700 1050 675 L 1050 650 1075 650 L 1100 650 1100 575 L 1100 500 1075 500 L 1050 500 1050 475 L 1050 450 1025 450 L 1000 450 1000 425 L 1000 400 975 400 L 950 400 950 375 L 950 350 900 350 L 850 350 850 375" stroke="none" fill="#292929" fill-rule="evenodd"/><path d="M 850 375 L 850 400 875 400 L 900 400 900 425 L 900 450 925 450 L 950 450 950 500 L 950 550 975 550 L 1000 550 1000 625 L 1000 700 800 700 L 600 700 600 725 L 600 750 775 750 L 950 750 950 775 L 950 800 975 800 L 1000 800 1000 825 L 1000 850 975 850 L 950 850 950 875 L 950 900 925 900 L 900 900 900 925 L 900 950 725 950 L 550 950 550 925 L 550 900 525 900 L 500 900 500 850 L 500 800 475 800 L 450 800 450 850 L 450 900 475 900 L 500 900 500 925 L 500 950 525 950 L 550 950 550 975 L 550 1000 525 1000 L 500 1000 500 1025 L 500 1050 475 1050 L 450 1050 450 1125 L 450 1200 425 1200 L 400 1200 400 1225 L 400 1250 425 1250 L 450 1250 450 1225 L 450 1200 475 1200 L 500 1200 500 1125 L 500 1050 525 1050 L 550 1050 550 1025 L 550 1000 725 1000 L 900 1000 900 1025 L 900 1050 925 1050 L 950 1050 950 1125 L 950 1200 925 1200 L 900 1200 900 1225 L 900 1250 875 1250 L 850 1250 850 1300 L 850 1350 825 1350 L 800 1350 800 1400 L 800 1450 575 1450 L 350 1450 350 1475 L 350 1500 575 1500 L 800 1500 800 1550 L 800 1600 1050 1600 L 1300 1600 1300 1550 L 1300 1500 1275 1500 L 1250 1500 1250 1475 L 1250 1450 1275 1450 L 1300 1450 1300 1375 L 1300 1300 1275 1300 L 1250 1300 1250 1275 L 1250 1250 1225 1250 L 1200 1250 1200 1225 L 1200 1200 1175 1200 L 1150 1200 1150 1125 L 1150 1050 1125 1050 L 1100 1050 1100 1025 L 1100 1000 1075 1000 L 1050 1000 1050 975 L 1050 950 1075 950 L 1100 950 1100 925 L 1100 900 1125 900 L 1150 900 1150 850 L 1150 800 1125 800 L 1100 800 1100 775 L 1100 750 1050 750 L 1000 750 1000 725 L 1000 700 1025 700 L 1050 700 1050 675 L 1050 650 1075 650 L 1100 650 1100 575 L 1100 500 1075 500 L 1050 500 1050 475 L 1050 450 1025 450 L 1000 450 1000 425 L 1000 400 975 400 L 950 400 950 375 L 950 350 900 350 L 850 350 850 375" stroke="none" fill="#292929" fill-rule="evenodd"/></svg>