<svg xmlns="http://www.w3.org/2000/svg" width="1600" height="1600" viewBox="0 0 1600 1600" version="1.1"><path d="M 200 650 L 200 700 150 700 L 100 700 100 750 L 100 800 50 800 L 0 800 0 850 L 0 900 100 900 L 200 900 200 1050 L 200 1200 250 1200 L 300 1200 300 1300 L 300 1400 350 1400 L 400 1400 400 1450 L 400 1500 450 1500 L 500 1500 500 1550 L 500 1600 800 1600 L 1100 1600 1100 1550 L 1100 1500 1150 1500 L 1200 1500 1200 1450 L 1200 1400 1250 1400 L 1300 1400 1300 1350 L 1300 1300 1350 1300 L 1400 1300 1400 1250 L 1400 1200 1450 1200 L 1500 1200 1500 1150 L 1500 1100 1450 1100 L 1400 1100 1400 1050 L 1400 1000 1300 1000 L 1200 1000 1200 1050 L 1200 1100 1150 1100 L 1100 1100 1100 1150 L 1100 1200 1050 1200 L 1000 1200 1000 1250 L 1000 1300 950 1300 L 900 1300 900 1350 L 900 1400 800 1400 L 700 1400 700 1350 L 700 1300 650 1300 L 600 1300 600 1200 L 600 1100 550 1100 L 500 1100 500 1000 L 500 900 600 900 L 700 900 700 850 L 700 800 650 800 L 600 800 600 750 L 600 700 550 700 L 500 700 500 650 L 500 600 350 600 L 200 600 200 650" stroke="none" fill="#ffffff" fill-rule="evenodd"/><path d="M 200 650 L 200 700 150 700 L 100 700 100 750 L 100 800 50 800 L 0 800 0 850 L 0 900 100 900 L 200 900 200 1050 L 200 1200 250 1200 L 300 1200 300 1300 L 300 1400 350 1400 L 400 1400 400 1450 L 400 1500 450 1500 L 500 1500 500 1550 L 500 1600 800 1600 L 1100 1600 1100 1550 L 1100 1500 1150 1500 L 1200 1500 1200 1450 L 1200 1400 1250 1400 L 1300 1400 1300 1350 L 1300 1300 1350 1300 L 1400 1300 1400 1250 L 1400 1200 1450 1200 L 1500 1200 1500 1150 L 1500 1100 1450 1100 L 1400 1100 1400 1050 L 1400 1000 1300 1000 L 1200 1000 1200 1050 L 1200 1100 1150 1100 L 1100 1100 1100 1150 L 1100 1200 1050 1200 L 1000 1200 1000 1250 L 1000 1300 950 1300 L 900 1300 900 1350 L 900 1400 800 1400 L 700 1400 700 1350 L 700 1300 650 1300 L 600 1300 600 1200 L 600 1100 550 1100 L 500 1100 500 1000 L 500 900 600 900 L 700 900 700 850 L 700 800 650 800 L 600 800 600 750 L 600 700 550 700 L 500 700 500 650 L 500 600 350 600 L 200 600 200 650" stroke="none" fill="#ffffff" fill-rule="evenodd"/><path d="M 200 650 L 200 700 150 700 L 100 700 100 750 L 100 800 50 800 L 0 800 0 850 L 0 900 100 900 L 200 900 200 1050 L 200 1200 250 1200 L 300 1200 300 1300 L 300 1400 350 1400 L 400 1400 400 1450 L 400 1500 450 1500 L 500 1500 500 1550 L 500 1600 800 1600 L 1100 1600 1100 1550 L 1100 1500 1150 1500 L 1200 1500 1200 1450 L 1200 1400 1250 1400 L 1300 1400 1300 1350 L 1300 1300 1350 1300 L 1400 1300 1400 1250 L 1400 1200 1450 1200 L 1500 1200 1500 1150 L 1500 1100 1450 1100 L 1400 1100 1400 1050 L 1400 1000 1300 1000 L 1200 1000 1200 1050 L 1200 1100 1150 1100 L 1100 1100 1100 1150 L 1100 1200 1050 1200 L 1000 1200 1000 1250 L 1000 1300 950 1300 L 900 1300 900 1350 L 900 1400 800 1400 L 700 1400 700 1350 L 700 1300 650 1300 L 600 1300 600 1200 L 600 1100 550 1100 L 500 1100 500 1000 L 500 900 600 900 L 700 900 700 850 L 700 800 650 800 L 600 800 600 750 L 600 700 550 700 L 500 700 500 650 L 500 600 350 600 L 200 600 200 650" stroke="none" fill="#ffffff" fill-rule="evenodd"/><path d="M 200 650 L 200 700 150 700 L 100 700 100 750 L 100 800 50 800 L 0 800 0 850 L 0 900 100 900 L 200 900 200 1050 L 200 1200 250 1200 L 300 1200 300 1300 L 300 1400 350 1400 L 400 1400 400 1450 L 400 1500 450 1500 L 500 1500 500 1550 L 500 1600 800 1600 L 1100 1600 1100 1550 L 1100 1500 1150 1500 L 1200 1500 1200 1450 L 1200 1400 1250 1400 L 1300 1400 1300 1350 L 1300 1300 1350 1300 L 1400 1300 1400 1250 L 1400 1200 1450 1200 L 1500 1200 1500 1150 L 1500 1100 1450 1100 L 1400 1100 1400 1050 L 1400 1000 1300 1000 L 1200 1000 1200 1050 L 1200 1100 1150 1100 L 1100 1100 1100 1150 L 1100 1200 1050 1200 L 1000 1200 1000 1250 L 1000 1300 950 1300 L 900 1300 900 1350 L 900 1400 800 1400 L 700 1400 700 1350 L 700 1300 650 1300 L 600 1300 600 1200 L 600 1100 550 1100 L 500 1100 500 1000 L 500 900 600 900 L 700 900 700 850 L 700 800 650 800 L 600 800 600 750 L 600 700 550 700 L 500 700 500 650 L 500 600 350 600 L 200 600 200 650" stroke="none" fill="#ffffff" fill-rule="evenodd"/><path d="M 500 50 L 500 100 450 100 L 400 100 400 150 L 400 200 350 200 L 300 200 300 250 L 300 300 250 300 L 200 300 200 350 L 200 400 250 400 L 300 400 300 450 L 300 500 400 500 L 500 500 500 450 L 500 400 550 400 L 600 400 600 350 L 600 300 650 300 L 700 300 700 250 L 700 200 800 200 L 900 200 900 250 L 900 300 950 300 L 1000 300 1000 350 L 1000 400 1050 400 L 1100 400 1100 500 L 1100 600 1000 600 L 900 600 900 650 L 900 700 950 700 L 1000 700 1000 750 L 1000 800 1050 800 L 1100 800 1100 850 L 1100 900 1250 900 L 1400 900 1400 850 L 1400 800 1450 800 L 1500 800 1500 750 L 1500 700 1550 700 L 1600 700 1600 650 L 1600 600 1500 600 L 1400 600 1400 450 L 1400 300 1350 300 L 1300 300 1300 250 L 1300 200 1250 200 L 1200 200 1200 150 L 1200 100 1150 100 L 1100 100 1100 50 L 1100 0 800 0 L 500 0 500 50" stroke="none" fill="#000000" fill-rule="evenodd"/><path d="M 500 50 L 500 100 450 100 L 400 100 400 150 L 400 200 350 200 L 300 200 300 250 L 300 300 250 300 L 200 300 200 350 L 200 400 250 400 L 300 400 300 450 L 300 500 400 500 L 500 500 500 450 L 500 400 550 400 L 600 400 600 350 L 600 300 650 300 L 700 300 700 250 L 700 200 800 200 L 900 200 900 250 L 900 300 950 300 L 1000 300 1000 350 L 1000 400 1050 400 L 1100 400 1100 500 L 1100 600 1000 600 L 900 600 900 650 L 900 700 950 700 L 1000 700 1000 750 L 1000 800 1050 800 L 1100 800 1100 850 L 1100 900 1250 900 L 1400 900 1400 850 L 1400 800 1450 800 L 1500 800 1500 750 L 1500 700 1550 700 L 1600 700 1600 650 L 1600 600 1500 600 L 1400 600 1400 450 L 1400 300 1350 300 L 1300 300 1300 250 L 1300 200 1250 200 L 1200 200 1200 150 L 1200 100 1150 100 L 1100 100 1100 50 L 1100 0 800 0 L 500 0 500 50" stroke="none" fill="#000000" fill-rule="evenodd"/><path d="M 500 50 L 500 100 450 100 L 400 100 400 150 L 400 200 350 200 L 300 200 300 250 L 300 300 250 300 L 200 300 200 350 L 200 400 250 400 L 300 400 300 450 L 300 500 400 500 L 500 500 500 450 L 500 400 550 400 L 600 400 600 350 L 600 300 650 300 L 700 300 700 250 L 700 200 800 200 L 900 200 900 250 L 900 300 950 300 L 1000 300 1000 350 L 1000 400 1050 400 L 1100 400 1100 500 L 1100 600 1000 600 L 900 600 900 650 L 900 700 950 700 L 1000 700 1000 750 L 1000 800 1050 800 L 1100 800 1100 850 L 1100 900 1250 900 L 1400 900 1400 850 L 1400 800 1450 800 L 1500 800 1500 750 L 1500 700 1550 700 L 1600 700 1600 650 L 1600 600 1500 600 L 1400 600 1400 450 L 1400 300 1350 300 L 1300 300 1300 250 L 1300 200 1250 200 L 1200 200 1200 150 L 1200 100 1150 100 L 1100 100 1100 50 L 1100 0 800 0 L 500 0 500 50" stroke="none" fill="#000000" fill-rule="evenodd"/><path d="M 500 50 L 500 100 450 100 L 400 100 400 150 L 400 200 350 200 L 300 200 300 250 L 300 300 250 300 L 200 300 200 350 L 200 400 250 400 L 300 400 300 450 L 300 500 400 500 L 500 500 500 450 L 500 400 550 400 L 600 400 600 350 L 600 300 650 300 L 700 300 700 250 L 700 200 800 200 L 900 200 900 250 L 900 300 950 300 L 1000 300 1000 350 L 1000 400 1050 400 L 1100 400 1100 500 L 1100 600 1000 600 L 900 600 900 650 L 900 700 950 700 L 1000 700 1000 750 L 1000 800 1050 800 L 1100 800 1100 850 L 1100 900 1250 900 L 1400 900 1400 850 L 1400 800 1450 800 L 1500 800 1500 750 L 1500 700 1550 700 L 1600 700 1600 650 L 1600 600 1500 600 L 1400 600 1400 450 L 1400 300 1350 300 L 1300 300 1300 250 L 1300 200 1250 200 L 1200 200 1200 150 L 1200 100 1150 100 L 1100 100 1100 50 L 1100 0 800 0 L 500 0 500 50" stroke="none" fill="#000000" fill-rule="evenodd"/></svg>