<svg xmlns="http://www.w3.org/2000/svg" width="1600" height="1600" viewBox="0 0 1600 1600" version="1.1"><path d="M 400 425 L 400 450 325 450 L 250 450 250 475 L 250 500 225 500 L 200 500 200 550 L 200 600 175 600 L 150 600 150 650 L 150 700 200 700 L 250 700 250 675 L 250 650 275 650 L 300 650 300 600 L 300 550 375 550 L 450 550 450 525 L 450 500 500 500 L 550 500 550 525 L 550 550 600 550 L 650 550 650 575 L 650 600 675 600 L 700 600 700 700 L 700 800 675 800 L 650 800 650 775 L 650 750 450 750 L 250 750 250 775 L 250 800 225 800 L 200 800 200 825 L 200 850 175 850 L 150 850 150 875 L 150 900 125 900 L 100 900 100 1000 L 100 1100 125 1100 L 150 1100 150 1125 L 150 1150 175 1150 L 200 1150 200 1175 L 200 1200 225 1200 L 250 1200 250 1225 L 250 1250 375 1250 L 500 1250 500 1225 L 500 1200 575 1200 L 650 1200 650 1175 L 650 1150 675 1150 L 700 1150 700 1125 L 700 1100 725 1100 L 750 1100 750 1200 L 750 1300 800 1300 L 850 1300 850 1150 L 850 1000 825 1000 L 800 1000 800 975 L 800 950 825 950 L 850 950 850 850 L 850 750 825 750 L 800 750 800 650 L 800 550 775 550 L 750 550 750 525 L 750 500 725 500 L 700 500 700 475 L 700 450 650 450 L 600 450 600 425 L 600 400 500 400 L 400 400 400 425 M 1100 425 L 1100 450 1075 450 L 1050 450 1050 475 L 1050 500 1025 500 L 1000 500 1000 525 L 1000 550 975 550 L 950 550 950 600 L 950 650 1000 650 L 1050 650 1050 625 L 1050 600 1075 600 L 1100 600 1100 575 L 1100 550 1125 550 L 1150 550 1150 525 L 1150 500 1175 500 L 1200 500 1200 725 L 1200 950 1175 950 L 1150 950 1150 1050 L 1150 1150 1075 1150 L 1000 1150 1000 1125 L 1000 1100 950 1100 L 900 1100 900 1150 L 900 1200 925 1200 L 950 1200 950 1225 L 950 1250 1000 1250 L 1050 1250 1050 1275 L 1050 1300 1250 1300 L 1450 1300 1450 1275 L 1450 1250 1475 1250 L 1500 1250 1500 1200 L 1500 1150 1450 1150 L 1400 1150 1400 1175 L 1400 1200 1325 1200 L 1250 1200 1250 1100 L 1250 1000 1275 1000 L 1300 1000 1300 725 L 1300 450 1275 450 L 1250 450 1250 425 L 1250 400 1175 400 L 1100 400 1100 425 M 300 875 L 300 900 275 900 L 250 900 250 925 L 250 950 225 950 L 200 950 200 1000 L 200 1050 225 1050 L 250 1050 250 1075 L 250 1100 300 1100 L 350 1100 350 1125 L 350 1150 400 1150 L 450 1150 450 1125 L 450 1100 525 1100 L 600 1100 600 1075 L 600 1050 625 1050 L 650 1050 650 1025 L 650 1000 675 1000 L 700 1000 700 950 L 700 900 650 900 L 600 900 600 875 L 600 850 450 850 L 300 850 300 875" stroke="none" fill="#ffffff" fill-rule="evenodd"/><path d="M 400 425 L 400 450 325 450 L 250 450 250 475 L 250 500 225 500 L 200 500 200 550 L 200 600 175 600 L 150 600 150 650 L 150 700 200 700 L 250 700 250 675 L 250 650 275 650 L 300 650 300 600 L 300 550 375 550 L 450 550 450 525 L 450 500 500 500 L 550 500 550 525 L 550 550 600 550 L 650 550 650 575 L 650 600 675 600 L 700 600 700 700 L 700 800 675 800 L 650 800 650 775 L 650 750 450 750 L 250 750 250 775 L 250 800 225 800 L 200 800 200 825 L 200 850 175 850 L 150 850 150 875 L 150 900 125 900 L 100 900 100 1000 L 100 1100 125 1100 L 150 1100 150 1125 L 150 1150 175 1150 L 200 1150 200 1175 L 200 1200 225 1200 L 250 1200 250 1225 L 250 1250 375 1250 L 500 1250 500 1225 L 500 1200 575 1200 L 650 1200 650 1175 L 650 1150 675 1150 L 700 1150 700 1125 L 700 1100 725 1100 L 750 1100 750 1200 L 750 1300 800 1300 L 850 1300 850 1150 L 850 1000 825 1000 L 800 1000 800 975 L 800 950 825 950 L 850 950 850 850 L 850 750 825 750 L 800 750 800 650 L 800 550 775 550 L 750 550 750 525 L 750 500 725 500 L 700 500 700 475 L 700 450 650 450 L 600 450 600 425 L 600 400 500 400 L 400 400 400 425 M 1100 425 L 1100 450 1075 450 L 1050 450 1050 475 L 1050 500 1025 500 L 1000 500 1000 525 L 1000 550 975 550 L 950 550 950 600 L 950 650 1000 650 L 1050 650 1050 625 L 1050 600 1075 600 L 1100 600 1100 575 L 1100 550 1125 550 L 1150 550 1150 525 L 1150 500 1175 500 L 1200 500 1200 725 L 1200 950 1175 950 L 1150 950 1150 1050 L 1150 1150 1075 1150 L 1000 1150 1000 1125 L 1000 1100 950 1100 L 900 1100 900 1150 L 900 1200 925 1200 L 950 1200 950 1225 L 950 1250 1000 1250 L 1050 1250 1050 1275 L 1050 1300 1250 1300 L 1450 1300 1450 1275 L 1450 1250 1475 1250 L 1500 1250 1500 1200 L 1500 1150 1450 1150 L 1400 1150 1400 1175 L 1400 1200 1325 1200 L 1250 1200 1250 1100 L 1250 1000 1275 1000 L 1300 1000 1300 725 L 1300 450 1275 450 L 1250 450 1250 425 L 1250 400 1175 400 L 1100 400 1100 425 M 300 875 L 300 900 275 900 L 250 900 250 925 L 250 950 225 950 L 200 950 200 1000 L 200 1050 225 1050 L 250 1050 250 1075 L 250 1100 300 1100 L 350 1100 350 1125 L 350 1150 400 1150 L 450 1150 450 1125 L 450 1100 525 1100 L 600 1100 600 1075 L 600 1050 625 1050 L 650 1050 650 1025 L 650 1000 675 1000 L 700 1000 700 950 L 700 900 650 900 L 600 900 600 875 L 600 850 450 850 L 300 850 300 875" stroke="none" fill="#ffffff" fill-rule="evenodd"/><path d="M 400 425 L 400 450 325 450 L 250 450 250 475 L 250 500 225 500 L 200 500 200 550 L 200 600 175 600 L 150 600 150 650 L 150 700 200 700 L 250 700 250 675 L 250 650 275 650 L 300 650 300 600 L 300 550 375 550 L 450 550 450 525 L 450 500 500 500 L 550 500 550 525 L 550 550 600 550 L 650 550 650 575 L 650 600 675 600 L 700 600 700 700 L 700 800 675 800 L 650 800 650 775 L 650 750 450 750 L 250 750 250 775 L 250 800 225 800 L 200 800 200 825 L 200 850 175 850 L 150 850 150 875 L 150 900 125 900 L 100 900 100 1000 L 100 1100 125 1100 L 150 1100 150 1125 L 150 1150 175 1150 L 200 1150 200 1175 L 200 1200 225 1200 L 250 1200 250 1225 L 250 1250 375 1250 L 500 1250 500 1225 L 500 1200 575 1200 L 650 1200 650 1175 L 650 1150 675 1150 L 700 1150 700 1125 L 700 1100 725 1100 L 750 1100 750 1200 L 750 1300 800 1300 L 850 1300 850 1150 L 850 1000 825 1000 L 800 1000 800 975 L 800 950 825 950 L 850 950 850 850 L 850 750 825 750 L 800 750 800 650 L 800 550 775 550 L 750 550 750 525 L 750 500 725 500 L 700 500 700 475 L 700 450 650 450 L 600 450 600 425 L 600 400 500 400 L 400 400 400 425 M 1100 425 L 1100 450 1075 450 L 1050 450 1050 475 L 1050 500 1025 500 L 1000 500 1000 525 L 1000 550 975 550 L 950 550 950 600 L 950 650 1000 650 L 1050 650 1050 625 L 1050 600 1075 600 L 1100 600 1100 575 L 1100 550 1125 550 L 1150 550 1150 525 L 1150 500 1175 500 L 1200 500 1200 725 L 1200 950 1175 950 L 1150 950 1150 1050 L 1150 1150 1075 1150 L 1000 1150 1000 1125 L 1000 1100 950 1100 L 900 1100 900 1150 L 900 1200 925 1200 L 950 1200 950 1225 L 950 1250 1000 1250 L 1050 1250 1050 1275 L 1050 1300 1250 1300 L 1450 1300 1450 1275 L 1450 1250 1475 1250 L 1500 1250 1500 1200 L 1500 1150 1450 1150 L 1400 1150 1400 1175 L 1400 1200 1325 1200 L 1250 1200 1250 1100 L 1250 1000 1275 1000 L 1300 1000 1300 725 L 1300 450 1275 450 L 1250 450 1250 425 L 1250 400 1175 400 L 1100 400 1100 425 M 300 875 L 300 900 275 900 L 250 900 250 925 L 250 950 225 950 L 200 950 200 1000 L 200 1050 225 1050 L 250 1050 250 1075 L 250 1100 300 1100 L 350 1100 350 1125 L 350 1150 400 1150 L 450 1150 450 1125 L 450 1100 525 1100 L 600 1100 600 1075 L 600 1050 625 1050 L 650 1050 650 1025 L 650 1000 675 1000 L 700 1000 700 950 L 700 900 650 900 L 600 900 600 875 L 600 850 450 850 L 300 850 300 875" stroke="none" fill="#ffffff" fill-rule="evenodd"/><path d="M 400 425 L 400 450 325 450 L 250 450 250 475 L 250 500 225 500 L 200 500 200 550 L 200 600 175 600 L 150 600 150 650 L 150 700 200 700 L 250 700 250 675 L 250 650 275 650 L 300 650 300 600 L 300 550 375 550 L 450 550 450 525 L 450 500 500 500 L 550 500 550 525 L 550 550 600 550 L 650 550 650 575 L 650 600 675 600 L 700 600 700 700 L 700 800 675 800 L 650 800 650 775 L 650 750 450 750 L 250 750 250 775 L 250 800 225 800 L 200 800 200 825 L 200 850 175 850 L 150 850 150 875 L 150 900 125 900 L 100 900 100 1000 L 100 1100 125 1100 L 150 1100 150 1125 L 150 1150 175 1150 L 200 1150 200 1175 L 200 1200 225 1200 L 250 1200 250 1225 L 250 1250 375 1250 L 500 1250 500 1225 L 500 1200 575 1200 L 650 1200 650 1175 L 650 1150 675 1150 L 700 1150 700 1125 L 700 1100 725 1100 L 750 1100 750 1200 L 750 1300 800 1300 L 850 1300 850 1150 L 850 1000 825 1000 L 800 1000 800 975 L 800 950 825 950 L 850 950 850 850 L 850 750 825 750 L 800 750 800 650 L 800 550 775 550 L 750 550 750 525 L 750 500 725 500 L 700 500 700 475 L 700 450 650 450 L 600 450 600 425 L 600 400 500 400 L 400 400 400 425 M 1100 425 L 1100 450 1075 450 L 1050 450 1050 475 L 1050 500 1025 500 L 1000 500 1000 525 L 1000 550 975 550 L 950 550 950 600 L 950 650 1000 650 L 1050 650 1050 625 L 1050 600 1075 600 L 1100 600 1100 575 L 1100 550 1125 550 L 1150 550 1150 525 L 1150 500 1175 500 L 1200 500 1200 725 L 1200 950 1175 950 L 1150 950 1150 1050 L 1150 1150 1075 1150 L 1000 1150 1000 1125 L 1000 1100 950 1100 L 900 1100 900 1150 L 900 1200 925 1200 L 950 1200 950 1225 L 950 1250 1000 1250 L 1050 1250 1050 1275 L 1050 1300 1250 1300 L 1450 1300 1450 1275 L 1450 1250 1475 1250 L 1500 1250 1500 1200 L 1500 1150 1450 1150 L 1400 1150 1400 1175 L 1400 1200 1325 1200 L 1250 1200 1250 1100 L 1250 1000 1275 1000 L 1300 1000 1300 725 L 1300 450 1275 450 L 1250 450 1250 425 L 1250 400 1175 400 L 1100 400 1100 425 M 300 875 L 300 900 275 900 L 250 900 250 925 L 250 950 225 950 L 200 950 200 1000 L 200 1050 225 1050 L 250 1050 250 1075 L 250 1100 300 1100 L 350 1100 350 1125 L 350 1150 400 1150 L 450 1150 450 1125 L 450 1100 525 1100 L 600 1100 600 1075 L 600 1050 625 1050 L 650 1050 650 1025 L 650 1000 675 1000 L 700 1000 700 950 L 700 900 650 900 L 600 900 600 875 L 600 850 450 850 L 300 850 300 875" stroke="none" fill="#ffffff" fill-rule="evenodd"/><path d="M 400 425 L 400 450 325 450 L 250 450 250 475 L 250 500 225 500 L 200 500 200 550 L 200 600 175 600 L 150 600 150 650 L 150 700 200 700 L 250 700 250 675 L 250 650 275 650 L 300 650 300 600 L 300 550 375 550 L 450 550 450 525 L 450 500 500 500 L 550 500 550 525 L 550 550 600 550 L 650 550 650 575 L 650 600 675 600 L 700 600 700 700 L 700 800 675 800 L 650 800 650 775 L 650 750 450 750 L 250 750 250 775 L 250 800 225 800 L 200 800 200 825 L 200 850 175 850 L 150 850 150 875 L 150 900 125 900 L 100 900 100 1000 L 100 1100 125 1100 L 150 1100 150 1125 L 150 1150 175 1150 L 200 1150 200 1175 L 200 1200 225 1200 L 250 1200 250 1225 L 250 1250 375 1250 L 500 1250 500 1225 L 500 1200 575 1200 L 650 1200 650 1175 L 650 1150 675 1150 L 700 1150 700 1125 L 700 1100 725 1100 L 750 1100 750 1200 L 750 1300 800 1300 L 850 1300 850 1150 L 850 1000 825 1000 L 800 1000 800 975 L 800 950 825 950 L 850 950 850 850 L 850 750 825 750 L 800 750 800 650 L 800 550 775 550 L 750 550 750 525 L 750 500 725 500 L 700 500 700 475 L 700 450 650 450 L 600 450 600 425 L 600 400 500 400 L 400 400 400 425 M 1100 425 L 1100 450 1075 450 L 1050 450 1050 475 L 1050 500 1025 500 L 1000 500 1000 525 L 1000 550 975 550 L 950 550 950 600 L 950 650 1000 650 L 1050 650 1050 625 L 1050 600 1075 600 L 1100 600 1100 575 L 1100 550 1125 550 L 1150 550 1150 525 L 1150 500 1175 500 L 1200 500 1200 725 L 1200 950 1175 950 L 1150 950 1150 1050 L 1150 1150 1075 1150 L 1000 1150 1000 1125 L 1000 1100 950 1100 L 900 1100 900 1150 L 900 1200 925 1200 L 950 1200 950 1225 L 950 1250 1000 1250 L 1050 1250 1050 1275 L 1050 1300 1250 1300 L 1450 1300 1450 1275 L 1450 1250 1475 1250 L 1500 1250 1500 1200 L 1500 1150 1450 1150 L 1400 1150 1400 1175 L 1400 1200 1325 1200 L 1250 1200 1250 1100 L 1250 1000 1275 1000 L 1300 1000 1300 725 L 1300 450 1275 450 L 1250 450 1250 425 L 1250 400 1175 400 L 1100 400 1100 425 M 300 875 L 300 900 275 900 L 250 900 250 925 L 250 950 225 950 L 200 950 200 1000 L 200 1050 225 1050 L 250 1050 250 1075 L 250 1100 300 1100 L 350 1100 350 1125 L 350 1150 400 1150 L 450 1150 450 1125 L 450 1100 525 1100 L 600 1100 600 1075 L 600 1050 625 1050 L 650 1050 650 1025 L 650 1000 675 1000 L 700 1000 700 950 L 700 900 650 900 L 600 900 600 875 L 600 850 450 850 L 300 850 300 875" stroke="none" fill="#ffffff" fill-rule="evenodd"/></svg>