<svg xmlns="http://www.w3.org/2000/svg" width="1600" height="1600" viewBox="0 0 1600 1600" version="1.1"><path d="M 250 200 L 250 300 275 300 L 300 300 300 350 L 300 400 325 400 L 350 400 350 425 L 350 450 375 450 L 400 450 400 475 L 400 500 425 500 L 450 500 450 550 L 450 600 475 600 L 500 600 500 625 L 500 650 525 650 L 550 650 550 675 L 550 700 575 700 L 600 700 600 750 L 600 800 625 800 L 650 800 650 825 L 650 850 675 850 L 700 850 700 875 L 700 900 725 900 L 750 900 750 925 L 750 950 675 950 L 600 950 600 975 L 600 1000 550 1000 L 500 1000 500 1025 L 500 1050 450 1050 L 400 1050 400 1075 L 400 1100 375 1100 L 350 1100 350 1125 L 350 1150 325 1150 L 300 1150 300 1175 L 300 1200 225 1200 L 150 1200 150 1225 L 150 1250 125 1250 L 100 1250 100 1350 L 100 1450 200 1450 L 300 1450 300 1425 L 300 1400 375 1400 L 450 1400 450 1375 L 450 1350 475 1350 L 500 1350 500 1325 L 500 1300 525 1300 L 550 1300 550 1275 L 550 1250 600 1250 L 650 1250 650 1225 L 650 1200 700 1200 L 750 1200 750 1175 L 750 1150 800 1150 L 850 1150 850 1125 L 850 1100 875 1100 L 900 1100 900 1125 L 900 1150 925 1150 L 950 1150 950 1175 L 950 1200 975 1200 L 1000 1200 1000 1250 L 1000 1300 1025 1300 L 1050 1300 1050 1325 L 1050 1350 1075 1350 L 1100 1350 1100 1400 L 1100 1450 1125 1450 L 1150 1450 1150 1475 L 1150 1500 1200 1500 L 1250 1500 1250 1525 L 1250 1550 1350 1550 L 1450 1550 1450 1450 L 1450 1350 1400 1350 L 1350 1350 1350 1325 L 1350 1300 1325 1300 L 1300 1300 1300 1250 L 1300 1200 1275 1200 L 1250 1200 1250 1175 L 1250 1150 1225 1150 L 1200 1150 1200 1100 L 1200 1050 1175 1050 L 1150 1050 1150 1025 L 1150 1000 1125 1000 L 1100 1000 1100 975 L 1100 950 1050 950 L 1000 950 1000 925 L 1000 900 1025 900 L 1050 900 1050 875 L 1050 850 1075 850 L 1100 850 1100 825 L 1100 800 1125 800 L 1150 800 1150 775 L 1150 750 1175 750 L 1200 750 1200 725 L 1200 700 1225 700 L 1250 700 1250 675 L 1250 650 1275 650 L 1300 650 1300 600 L 1300 550 1325 550 L 1350 550 1350 525 L 1350 500 1375 500 L 1400 500 1400 475 L 1400 450 1425 450 L 1450 450 1450 400 L 1450 350 1475 350 L 1500 350 1500 225 L 1500 100 1400 100 L 1300 100 1300 125 L 1300 150 1275 150 L 1250 150 1250 225 L 1250 300 1225 300 L 1200 300 1200 325 L 1200 350 1175 350 L 1150 350 1150 375 L 1150 400 1125 400 L 1100 400 1100 450 L 1100 500 1075 500 L 1050 500 1050 525 L 1050 550 1025 550 L 1000 550 1000 575 L 1000 600 975 600 L 950 600 950 625 L 950 650 925 650 L 900 650 900 675 L 900 700 875 700 L 850 700 850 675 L 850 650 825 650 L 800 650 800 625 L 800 600 775 600 L 750 600 750 550 L 750 500 725 500 L 700 500 700 475 L 700 450 675 450 L 650 450 650 400 L 650 350 625 350 L 600 350 600 325 L 600 300 575 300 L 550 300 550 275 L 550 250 525 250 L 500 250 500 200 L 500 150 475 150 L 450 150 450 125 L 450 100 350 100 L 250 100 250 200" stroke="none" fill="#ed1c24" fill-rule="evenodd"/></svg>