<svg xmlns="http://www.w3.org/2000/svg" width="1600" height="1600" viewBox="0 0 1600 1600" version="1.1"><path d="M 200 500 L 200 800 500 800 L 800 800 800 1100 L 800 1400 1100 1400 L 1400 1400 1400 1100 L 1400 800 1100 800 L 800 800 800 500 L 800 200 500 200 L 200 200 200 500" stroke="none" fill="#eeeed2" fill-rule="evenodd"/><path d="M 200 500 L 200 800 500 800 L 800 800 800 1100 L 800 1400 1100 1400 L 1400 1400 1400 1100 L 1400 800 1100 800 L 800 800 800 500 L 800 200 500 200 L 200 200 200 500" stroke="none" fill="#eeeed2" fill-rule="evenodd"/><path d="M 200 500 L 200 800 500 800 L 800 800 800 1100 L 800 1400 1100 1400 L 1400 1400 1400 1100 L 1400 800 1100 800 L 800 800 800 500 L 800 200 500 200 L 200 200 200 500" stroke="none" fill="#eeeed2" fill-rule="evenodd"/><path d="M 200 500 L 200 800 500 800 L 800 800 800 1100 L 800 1400 1100 1400 L 1400 1400 1400 1100 L 1400 800 1100 800 L 800 800 800 500 L 800 200 500 200 L 200 200 200 500" stroke="none" fill="#eeeed2" fill-rule="evenodd"/><path d="M 800 450 L 800 800 450 800 L 100 800 100 1150 L 100 1500 450 1500 L 800 1500 800 1150 L 800 800 1150 800 L 1500 800 1500 450 L 1500 100 1150 100 L 800 100 800 450" stroke="none" fill="#769656" fill-rule="evenodd"/><path d="M 800 450 L 800 800 450 800 L 100 800 100 1150 L 100 1500 450 1500 L 800 1500 800 1150 L 800 800 1150 800 L 1500 800 1500 450 L 1500 100 1150 100 L 800 100 800 450" stroke="none" fill="#769656" fill-rule="evenodd"/><path d="M 800 450 L 800 800 450 800 L 100 800 100 1150 L 100 1500 450 1500 L 800 1500 800 1150 L 800 800 1150 800 L 1500 800 1500 450 L 1500 100 1150 100 L 800 100 800 450" stroke="none" fill="#769656" fill-rule="evenodd"/><path d="M 800 450 L 800 800 450 800 L 100 800 100 1150 L 100 1500 450 1500 L 800 1500 800 1150 L 800 800 1150 800 L 1500 800 1500 450 L 1500 100 1150 100 L 800 100 800 450" stroke="none" fill="#769656" fill-rule="evenodd"/></svg>