<svg xmlns="http://www.w3.org/2000/svg" width="1600" height="1600" viewBox="0 0 1600 1600" version="1.1"><path d="M 900 250 L 900 350 875 350 L 850 350 850 375 L 850 400 825 400 L 800 400 800 425 L 800 450 750 450 L 700 450 700 475 L 700 500 675 500 L 650 500 650 525 L 650 550 625 550 L 600 550 600 575 L 600 600 575 600 L 550 600 550 625 L 550 650 525 650 L 500 650 500 675 L 500 700 475 700 L 450 700 450 725 L 450 750 425 750 L 400 750 400 800 L 400 850 375 850 L 350 850 350 875 L 350 900 325 900 L 300 900 300 925 L 300 950 275 950 L 250 950 250 1000 L 250 1050 225 1050 L 200 1050 200 1100 L 200 1150 175 1150 L 150 1150 150 1200 L 150 1250 125 1250 L 100 1250 100 1325 L 100 1400 150 1400 L 200 1400 200 1375 L 200 1350 225 1350 L 250 1350 250 1325 L 250 1300 275 1300 L 300 1300 300 1275 L 300 1250 325 1250 L 350 1250 350 1225 L 350 1200 375 1200 L 400 1200 400 1175 L 400 1150 425 1150 L 450 1150 450 1125 L 450 1100 500 1100 L 550 1100 550 1075 L 550 1050 600 1050 L 650 1050 650 1025 L 650 1000 750 1000 L 850 1000 850 1025 L 850 1050 875 1050 L 900 1050 900 1175 L 900 1300 925 1300 L 950 1300 950 1275 L 950 1250 975 1250 L 1000 1250 1000 1225 L 1000 1200 1025 1200 L 1050 1200 1050 1175 L 1050 1150 1075 1150 L 1100 1150 1100 1125 L 1100 1100 1125 1100 L 1150 1100 1150 1075 L 1150 1050 1175 1050 L 1200 1050 1200 1025 L 1200 1000 1225 1000 L 1250 1000 1250 975 L 1250 950 1275 950 L 1300 950 1300 925 L 1300 900 1325 900 L 1350 900 1350 875 L 1350 850 1375 850 L 1400 850 1400 825 L 1400 800 1425 800 L 1450 800 1450 775 L 1450 750 1475 750 L 1500 750 1500 725 L 1500 700 1475 700 L 1450 700 1450 675 L 1450 650 1425 650 L 1400 650 1400 625 L 1400 600 1375 600 L 1350 600 1350 575 L 1350 550 1325 550 L 1300 550 1300 525 L 1300 500 1275 500 L 1250 500 1250 475 L 1250 450 1225 450 L 1200 450 1200 425 L 1200 400 1175 400 L 1150 400 1150 375 L 1150 350 1125 350 L 1100 350 1100 325 L 1100 300 1075 300 L 1050 300 1050 275 L 1050 250 1025 250 L 1000 250 1000 225 L 1000 200 975 200 L 950 200 950 175 L 950 150 925 150 L 900 150 900 250" stroke="none" fill="#ffffff" fill-rule="evenodd"/><path d="M 900 250 L 900 350 875 350 L 850 350 850 375 L 850 400 825 400 L 800 400 800 425 L 800 450 750 450 L 700 450 700 475 L 700 500 675 500 L 650 500 650 525 L 650 550 625 550 L 600 550 600 575 L 600 600 575 600 L 550 600 550 625 L 550 650 525 650 L 500 650 500 675 L 500 700 475 700 L 450 700 450 725 L 450 750 425 750 L 400 750 400 800 L 400 850 375 850 L 350 850 350 875 L 350 900 325 900 L 300 900 300 925 L 300 950 275 950 L 250 950 250 1000 L 250 1050 225 1050 L 200 1050 200 1100 L 200 1150 175 1150 L 150 1150 150 1200 L 150 1250 125 1250 L 100 1250 100 1325 L 100 1400 150 1400 L 200 1400 200 1375 L 200 1350 225 1350 L 250 1350 250 1325 L 250 1300 275 1300 L 300 1300 300 1275 L 300 1250 325 1250 L 350 1250 350 1225 L 350 1200 375 1200 L 400 1200 400 1175 L 400 1150 425 1150 L 450 1150 450 1125 L 450 1100 500 1100 L 550 1100 550 1075 L 550 1050 600 1050 L 650 1050 650 1025 L 650 1000 750 1000 L 850 1000 850 1025 L 850 1050 875 1050 L 900 1050 900 1175 L 900 1300 925 1300 L 950 1300 950 1275 L 950 1250 975 1250 L 1000 1250 1000 1225 L 1000 1200 1025 1200 L 1050 1200 1050 1175 L 1050 1150 1075 1150 L 1100 1150 1100 1125 L 1100 1100 1125 1100 L 1150 1100 1150 1075 L 1150 1050 1175 1050 L 1200 1050 1200 1025 L 1200 1000 1225 1000 L 1250 1000 1250 975 L 1250 950 1275 950 L 1300 950 1300 925 L 1300 900 1325 900 L 1350 900 1350 875 L 1350 850 1375 850 L 1400 850 1400 825 L 1400 800 1425 800 L 1450 800 1450 775 L 1450 750 1475 750 L 1500 750 1500 725 L 1500 700 1475 700 L 1450 700 1450 675 L 1450 650 1425 650 L 1400 650 1400 625 L 1400 600 1375 600 L 1350 600 1350 575 L 1350 550 1325 550 L 1300 550 1300 525 L 1300 500 1275 500 L 1250 500 1250 475 L 1250 450 1225 450 L 1200 450 1200 425 L 1200 400 1175 400 L 1150 400 1150 375 L 1150 350 1125 350 L 1100 350 1100 325 L 1100 300 1075 300 L 1050 300 1050 275 L 1050 250 1025 250 L 1000 250 1000 225 L 1000 200 975 200 L 950 200 950 175 L 950 150 925 150 L 900 150 900 250" stroke="none" fill="#ffffff" fill-rule="evenodd"/><path d="M 900 250 L 900 350 875 350 L 850 350 850 375 L 850 400 825 400 L 800 400 800 425 L 800 450 750 450 L 700 450 700 475 L 700 500 675 500 L 650 500 650 525 L 650 550 625 550 L 600 550 600 575 L 600 600 575 600 L 550 600 550 625 L 550 650 525 650 L 500 650 500 675 L 500 700 475 700 L 450 700 450 725 L 450 750 425 750 L 400 750 400 800 L 400 850 375 850 L 350 850 350 875 L 350 900 325 900 L 300 900 300 925 L 300 950 275 950 L 250 950 250 1000 L 250 1050 225 1050 L 200 1050 200 1100 L 200 1150 175 1150 L 150 1150 150 1200 L 150 1250 125 1250 L 100 1250 100 1325 L 100 1400 150 1400 L 200 1400 200 1375 L 200 1350 225 1350 L 250 1350 250 1325 L 250 1300 275 1300 L 300 1300 300 1275 L 300 1250 325 1250 L 350 1250 350 1225 L 350 1200 375 1200 L 400 1200 400 1175 L 400 1150 425 1150 L 450 1150 450 1125 L 450 1100 500 1100 L 550 1100 550 1075 L 550 1050 600 1050 L 650 1050 650 1025 L 650 1000 750 1000 L 850 1000 850 1025 L 850 1050 875 1050 L 900 1050 900 1175 L 900 1300 925 1300 L 950 1300 950 1275 L 950 1250 975 1250 L 1000 1250 1000 1225 L 1000 1200 1025 1200 L 1050 1200 1050 1175 L 1050 1150 1075 1150 L 1100 1150 1100 1125 L 1100 1100 1125 1100 L 1150 1100 1150 1075 L 1150 1050 1175 1050 L 1200 1050 1200 1025 L 1200 1000 1225 1000 L 1250 1000 1250 975 L 1250 950 1275 950 L 1300 950 1300 925 L 1300 900 1325 900 L 1350 900 1350 875 L 1350 850 1375 850 L 1400 850 1400 825 L 1400 800 1425 800 L 1450 800 1450 775 L 1450 750 1475 750 L 1500 750 1500 725 L 1500 700 1475 700 L 1450 700 1450 675 L 1450 650 1425 650 L 1400 650 1400 625 L 1400 600 1375 600 L 1350 600 1350 575 L 1350 550 1325 550 L 1300 550 1300 525 L 1300 500 1275 500 L 1250 500 1250 475 L 1250 450 1225 450 L 1200 450 1200 425 L 1200 400 1175 400 L 1150 400 1150 375 L 1150 350 1125 350 L 1100 350 1100 325 L 1100 300 1075 300 L 1050 300 1050 275 L 1050 250 1025 250 L 1000 250 1000 225 L 1000 200 975 200 L 950 200 950 175 L 950 150 925 150 L 900 150 900 250" stroke="none" fill="#ffffff" fill-rule="evenodd"/><path d="M 900 250 L 900 350 875 350 L 850 350 850 375 L 850 400 825 400 L 800 400 800 425 L 800 450 750 450 L 700 450 700 475 L 700 500 675 500 L 650 500 650 525 L 650 550 625 550 L 600 550 600 575 L 600 600 575 600 L 550 600 550 625 L 550 650 525 650 L 500 650 500 675 L 500 700 475 700 L 450 700 450 725 L 450 750 425 750 L 400 750 400 800 L 400 850 375 850 L 350 850 350 875 L 350 900 325 900 L 300 900 300 925 L 300 950 275 950 L 250 950 250 1000 L 250 1050 225 1050 L 200 1050 200 1100 L 200 1150 175 1150 L 150 1150 150 1200 L 150 1250 125 1250 L 100 1250 100 1325 L 100 1400 150 1400 L 200 1400 200 1375 L 200 1350 225 1350 L 250 1350 250 1325 L 250 1300 275 1300 L 300 1300 300 1275 L 300 1250 325 1250 L 350 1250 350 1225 L 350 1200 375 1200 L 400 1200 400 1175 L 400 1150 425 1150 L 450 1150 450 1125 L 450 1100 500 1100 L 550 1100 550 1075 L 550 1050 600 1050 L 650 1050 650 1025 L 650 1000 750 1000 L 850 1000 850 1025 L 850 1050 875 1050 L 900 1050 900 1175 L 900 1300 925 1300 L 950 1300 950 1275 L 950 1250 975 1250 L 1000 1250 1000 1225 L 1000 1200 1025 1200 L 1050 1200 1050 1175 L 1050 1150 1075 1150 L 1100 1150 1100 1125 L 1100 1100 1125 1100 L 1150 1100 1150 1075 L 1150 1050 1175 1050 L 1200 1050 1200 1025 L 1200 1000 1225 1000 L 1250 1000 1250 975 L 1250 950 1275 950 L 1300 950 1300 925 L 1300 900 1325 900 L 1350 900 1350 875 L 1350 850 1375 850 L 1400 850 1400 825 L 1400 800 1425 800 L 1450 800 1450 775 L 1450 750 1475 750 L 1500 750 1500 725 L 1500 700 1475 700 L 1450 700 1450 675 L 1450 650 1425 650 L 1400 650 1400 625 L 1400 600 1375 600 L 1350 600 1350 575 L 1350 550 1325 550 L 1300 550 1300 525 L 1300 500 1275 500 L 1250 500 1250 475 L 1250 450 1225 450 L 1200 450 1200 425 L 1200 400 1175 400 L 1150 400 1150 375 L 1150 350 1125 350 L 1100 350 1100 325 L 1100 300 1075 300 L 1050 300 1050 275 L 1050 250 1025 250 L 1000 250 1000 225 L 1000 200 975 200 L 950 200 950 175 L 950 150 925 150 L 900 150 900 250" stroke="none" fill="#ffffff" fill-rule="evenodd"/><path d="M 900 250 L 900 350 875 350 L 850 350 850 375 L 850 400 825 400 L 800 400 800 425 L 800 450 750 450 L 700 450 700 475 L 700 500 675 500 L 650 500 650 525 L 650 550 625 550 L 600 550 600 575 L 600 600 575 600 L 550 600 550 625 L 550 650 525 650 L 500 650 500 675 L 500 700 475 700 L 450 700 450 725 L 450 750 425 750 L 400 750 400 800 L 400 850 375 850 L 350 850 350 875 L 350 900 325 900 L 300 900 300 925 L 300 950 275 950 L 250 950 250 1000 L 250 1050 225 1050 L 200 1050 200 1100 L 200 1150 175 1150 L 150 1150 150 1200 L 150 1250 125 1250 L 100 1250 100 1325 L 100 1400 150 1400 L 200 1400 200 1375 L 200 1350 225 1350 L 250 1350 250 1325 L 250 1300 275 1300 L 300 1300 300 1275 L 300 1250 325 1250 L 350 1250 350 1225 L 350 1200 375 1200 L 400 1200 400 1175 L 400 1150 425 1150 L 450 1150 450 1125 L 450 1100 500 1100 L 550 1100 550 1075 L 550 1050 600 1050 L 650 1050 650 1025 L 650 1000 750 1000 L 850 1000 850 1025 L 850 1050 875 1050 L 900 1050 900 1175 L 900 1300 925 1300 L 950 1300 950 1275 L 950 1250 975 1250 L 1000 1250 1000 1225 L 1000 1200 1025 1200 L 1050 1200 1050 1175 L 1050 1150 1075 1150 L 1100 1150 1100 1125 L 1100 1100 1125 1100 L 1150 1100 1150 1075 L 1150 1050 1175 1050 L 1200 1050 1200 1025 L 1200 1000 1225 1000 L 1250 1000 1250 975 L 1250 950 1275 950 L 1300 950 1300 925 L 1300 900 1325 900 L 1350 900 1350 875 L 1350 850 1375 850 L 1400 850 1400 825 L 1400 800 1425 800 L 1450 800 1450 775 L 1450 750 1475 750 L 1500 750 1500 725 L 1500 700 1475 700 L 1450 700 1450 675 L 1450 650 1425 650 L 1400 650 1400 625 L 1400 600 1375 600 L 1350 600 1350 575 L 1350 550 1325 550 L 1300 550 1300 525 L 1300 500 1275 500 L 1250 500 1250 475 L 1250 450 1225 450 L 1200 450 1200 425 L 1200 400 1175 400 L 1150 400 1150 375 L 1150 350 1125 350 L 1100 350 1100 325 L 1100 300 1075 300 L 1050 300 1050 275 L 1050 250 1025 250 L 1000 250 1000 225 L 1000 200 975 200 L 950 200 950 175 L 950 150 925 150 L 900 150 900 250" stroke="none" fill="#ffffff" fill-rule="evenodd"/><path d="M 900 250 L 900 350 875 350 L 850 350 850 375 L 850 400 825 400 L 800 400 800 425 L 800 450 750 450 L 700 450 700 475 L 700 500 675 500 L 650 500 650 525 L 650 550 625 550 L 600 550 600 575 L 600 600 575 600 L 550 600 550 625 L 550 650 525 650 L 500 650 500 675 L 500 700 475 700 L 450 700 450 725 L 450 750 425 750 L 400 750 400 800 L 400 850 375 850 L 350 850 350 875 L 350 900 325 900 L 300 900 300 925 L 300 950 275 950 L 250 950 250 1000 L 250 1050 225 1050 L 200 1050 200 1100 L 200 1150 175 1150 L 150 1150 150 1200 L 150 1250 125 1250 L 100 1250 100 1325 L 100 1400 150 1400 L 200 1400 200 1375 L 200 1350 225 1350 L 250 1350 250 1325 L 250 1300 275 1300 L 300 1300 300 1275 L 300 1250 325 1250 L 350 1250 350 1225 L 350 1200 375 1200 L 400 1200 400 1175 L 400 1150 425 1150 L 450 1150 450 1125 L 450 1100 500 1100 L 550 1100 550 1075 L 550 1050 600 1050 L 650 1050 650 1025 L 650 1000 750 1000 L 850 1000 850 1025 L 850 1050 875 1050 L 900 1050 900 1175 L 900 1300 925 1300 L 950 1300 950 1275 L 950 1250 975 1250 L 1000 1250 1000 1225 L 1000 1200 1025 1200 L 1050 1200 1050 1175 L 1050 1150 1075 1150 L 1100 1150 1100 1125 L 1100 1100 1125 1100 L 1150 1100 1150 1075 L 1150 1050 1175 1050 L 1200 1050 1200 1025 L 1200 1000 1225 1000 L 1250 1000 1250 975 L 1250 950 1275 950 L 1300 950 1300 925 L 1300 900 1325 900 L 1350 900 1350 875 L 1350 850 1375 850 L 1400 850 1400 825 L 1400 800 1425 800 L 1450 800 1450 775 L 1450 750 1475 750 L 1500 750 1500 725 L 1500 700 1475 700 L 1450 700 1450 675 L 1450 650 1425 650 L 1400 650 1400 625 L 1400 600 1375 600 L 1350 600 1350 575 L 1350 550 1325 550 L 1300 550 1300 525 L 1300 500 1275 500 L 1250 500 1250 475 L 1250 450 1225 450 L 1200 450 1200 425 L 1200 400 1175 400 L 1150 400 1150 375 L 1150 350 1125 350 L 1100 350 1100 325 L 1100 300 1075 300 L 1050 300 1050 275 L 1050 250 1025 250 L 1000 250 1000 225 L 1000 200 975 200 L 950 200 950 175 L 950 150 925 150 L 900 150 900 250" stroke="none" fill="#ffffff" fill-rule="evenodd"/></svg>