<svg xmlns="http://www.w3.org/2000/svg" width="1600" height="1600" viewBox="0 0 1600 1600" version="1.1"><path d="M 550 125 L 550 150 500 150 L 450 150 450 175 L 450 200 400 200 L 350 200 350 225 L 350 250 325 250 L 300 250 300 275 L 300 300 275 300 L 250 300 250 325 L 250 350 225 350 L 200 350 200 425 L 200 500 150 500 L 100 500 100 575 L 100 650 125 650 L 150 650 150 675 L 150 700 175 700 L 200 700 200 725 L 200 750 225 750 L 250 750 250 775 L 250 800 275 800 L 300 800 300 825 L 300 850 350 850 L 400 850 400 825 L 400 800 425 800 L 450 800 450 775 L 450 750 475 750 L 500 750 500 725 L 500 700 525 700 L 550 700 550 675 L 550 650 575 650 L 600 650 600 575 L 600 500 550 500 L 500 500 500 475 L 500 450 525 450 L 550 450 550 425 L 550 400 625 400 L 700 400 700 375 L 700 350 750 350 L 800 350 800 375 L 800 400 875 400 L 950 400 950 425 L 950 450 975 450 L 1000 450 1000 475 L 1000 500 1025 500 L 1050 500 1050 550 L 1050 600 1075 600 L 1100 600 1100 625 L 1100 650 1125 650 L 1150 650 1150 700 L 1150 750 1175 750 L 1200 750 1200 775 L 1200 800 1225 800 L 1250 800 1250 875 L 1250 950 1225 950 L 1200 950 1200 975 L 1200 1000 1175 1000 L 1150 1000 1150 1025 L 1150 1050 1125 1050 L 1100 1050 1100 1075 L 1100 1100 1075 1100 L 1050 1100 1050 1125 L 1050 1150 975 1150 L 900 1150 900 1175 L 900 1200 850 1200 L 800 1200 800 1175 L 800 1150 750 1150 L 700 1150 700 1125 L 700 1100 675 1100 L 650 1100 650 1075 L 650 1050 550 1050 L 450 1050 450 1075 L 450 1100 425 1100 L 400 1100 400 1200 L 400 1300 450 1300 L 500 1300 500 1325 L 500 1350 550 1350 L 600 1350 600 1375 L 600 1400 625 1400 L 650 1400 650 1425 L 650 1450 800 1450 L 950 1450 950 1425 L 950 1400 1000 1400 L 1050 1400 1050 1375 L 1050 1350 1125 1350 L 1200 1350 1200 1325 L 1200 1300 1225 1300 L 1250 1300 1250 1275 L 1250 1250 1275 1250 L 1300 1250 1300 1225 L 1300 1200 1325 1200 L 1350 1200 1350 1175 L 1350 1150 1375 1150 L 1400 1150 1400 1125 L 1400 1100 1425 1100 L 1450 1100 1450 1050 L 1450 1000 1475 1000 L 1500 1000 1500 800 L 1500 600 1475 600 L 1450 600 1450 575 L 1450 550 1425 550 L 1400 550 1400 525 L 1400 500 1375 500 L 1350 500 1350 450 L 1350 400 1325 400 L 1300 400 1300 375 L 1300 350 1275 350 L 1250 350 1250 325 L 1250 300 1225 300 L 1200 300 1200 275 L 1200 250 1175 250 L 1150 250 1150 225 L 1150 200 1125 200 L 1100 200 1100 175 L 1100 150 1050 150 L 1000 150 1000 125 L 1000 100 775 100 L 550 100 550 125" stroke="none" fill="#ffffff" fill-rule="evenodd"/></svg>