<svg xmlns="http://www.w3.org/2000/svg" width="1600" height="1600" viewBox="0 0 1600 1600" version="1.1"><path d="M 750 125 L 750 150 725 150 L 700 150 700 175 L 700 200 725 200 L 750 200 750 225 L 750 250 725 250 L 700 250 700 300 L 700 350 650 350 L 600 350 600 300 L 600 250 550 250 L 500 250 500 300 L 500 350 525 350 L 550 350 550 450 L 550 550 500 550 L 450 550 450 500 L 450 450 425 450 L 400 450 400 425 L 400 400 350 400 L 300 400 300 350 L 300 300 250 300 L 200 300 200 350 L 200 400 225 400 L 250 400 250 525 L 250 650 300 650 L 350 650 350 675 L 350 700 550 700 L 750 700 750 675 L 750 650 775 650 L 800 650 800 625 L 800 600 825 600 L 850 600 850 500 L 850 400 825 400 L 800 400 800 250 L 800 100 775 100 L 750 100 750 125 M 350 825 L 350 850 325 850 L 300 850 300 900 L 300 950 525 950 L 750 950 750 925 L 750 900 775 900 L 800 900 800 875 L 800 850 775 850 L 750 850 750 825 L 750 800 550 800 L 350 800 350 825 M 300 1125 L 300 1150 275 1150 L 250 1150 250 1225 L 250 1300 500 1300 L 750 1300 750 1275 L 750 1250 775 1250 L 800 1250 800 1200 L 800 1150 775 1150 L 750 1150 750 1125 L 750 1100 525 1100 L 300 1100 300 1125" stroke="none" fill="#ffffff" fill-rule="evenodd"/><path d="M 750 125 L 750 150 725 150 L 700 150 700 175 L 700 200 725 200 L 750 200 750 225 L 750 250 725 250 L 700 250 700 300 L 700 350 650 350 L 600 350 600 300 L 600 250 550 250 L 500 250 500 300 L 500 350 525 350 L 550 350 550 450 L 550 550 500 550 L 450 550 450 500 L 450 450 425 450 L 400 450 400 425 L 400 400 350 400 L 300 400 300 350 L 300 300 250 300 L 200 300 200 350 L 200 400 225 400 L 250 400 250 525 L 250 650 300 650 L 350 650 350 675 L 350 700 550 700 L 750 700 750 675 L 750 650 775 650 L 800 650 800 625 L 800 600 825 600 L 850 600 850 500 L 850 400 825 400 L 800 400 800 250 L 800 100 775 100 L 750 100 750 125 M 350 825 L 350 850 325 850 L 300 850 300 900 L 300 950 525 950 L 750 950 750 925 L 750 900 775 900 L 800 900 800 875 L 800 850 775 850 L 750 850 750 825 L 750 800 550 800 L 350 800 350 825 M 300 1125 L 300 1150 275 1150 L 250 1150 250 1225 L 250 1300 500 1300 L 750 1300 750 1275 L 750 1250 775 1250 L 800 1250 800 1200 L 800 1150 775 1150 L 750 1150 750 1125 L 750 1100 525 1100 L 300 1100 300 1125" stroke="none" fill="#ffffff" fill-rule="evenodd"/><path d="M 750 125 L 750 150 725 150 L 700 150 700 175 L 700 200 725 200 L 750 200 750 225 L 750 250 725 250 L 700 250 700 300 L 700 350 650 350 L 600 350 600 300 L 600 250 550 250 L 500 250 500 300 L 500 350 525 350 L 550 350 550 450 L 550 550 500 550 L 450 550 450 500 L 450 450 425 450 L 400 450 400 425 L 400 400 350 400 L 300 400 300 350 L 300 300 250 300 L 200 300 200 350 L 200 400 225 400 L 250 400 250 525 L 250 650 300 650 L 350 650 350 675 L 350 700 550 700 L 750 700 750 675 L 750 650 775 650 L 800 650 800 625 L 800 600 825 600 L 850 600 850 500 L 850 400 825 400 L 800 400 800 250 L 800 100 775 100 L 750 100 750 125 M 350 825 L 350 850 325 850 L 300 850 300 900 L 300 950 525 950 L 750 950 750 925 L 750 900 775 900 L 800 900 800 875 L 800 850 775 850 L 750 850 750 825 L 750 800 550 800 L 350 800 350 825 M 300 1125 L 300 1150 275 1150 L 250 1150 250 1225 L 250 1300 500 1300 L 750 1300 750 1275 L 750 1250 775 1250 L 800 1250 800 1200 L 800 1150 775 1150 L 750 1150 750 1125 L 750 1100 525 1100 L 300 1100 300 1125" stroke="none" fill="#ffffff" fill-rule="evenodd"/><path d="M 800 350 L 800 400 825 400 L 850 400 850 500 L 850 600 825 600 L 800 600 800 625 L 800 650 775 650 L 750 650 750 675 L 750 700 550 700 L 350 700 350 675 L 350 650 325 650 L 300 650 300 700 L 300 750 550 750 L 800 750 800 725 L 800 700 825 700 L 850 700 850 675 L 850 650 875 650 L 900 650 900 500 L 900 350 875 350 L 850 350 850 325 L 850 300 825 300 L 800 300 800 350 M 300 375 L 300 400 350 400 L 400 400 400 425 L 400 450 425 450 L 450 450 450 400 L 450 350 375 350 L 300 350 300 375 M 300 825 L 300 850 275 850 L 250 850 250 900 L 250 950 275 950 L 300 950 300 975 L 300 1000 575 1000 L 850 1000 850 975 L 850 950 875 950 L 900 950 900 900 L 900 850 875 850 L 850 850 850 825 L 850 800 800 800 L 750 800 750 825 L 750 850 775 850 L 800 850 800 875 L 800 900 775 900 L 750 900 750 925 L 750 950 525 950 L 300 950 300 900 L 300 850 325 850 L 350 850 350 825 L 350 800 325 800 L 300 800 300 825 M 300 1075 L 300 1100 275 1100 L 250 1100 250 1125 L 250 1150 225 1150 L 200 1150 200 1225 L 200 1300 225 1300 L 250 1300 250 1325 L 250 1350 525 1350 L 800 1350 800 1325 L 800 1300 850 1300 L 900 1300 900 1200 L 900 1100 850 1100 L 800 1100 800 1075 L 800 1050 550 1050 L 300 1050 300 1075 M 300 1125 L 300 1150 275 1150 L 250 1150 250 1225 L 250 1300 500 1300 L 750 1300 750 1275 L 750 1250 775 1250 L 800 1250 800 1200 L 800 1150 775 1150 L 750 1150 750 1125 L 750 1100 525 1100 L 300 1100 300 1125" stroke="none" fill="#b4b4b4" fill-rule="evenodd"/><path d="M 800 350 L 800 400 825 400 L 850 400 850 500 L 850 600 825 600 L 800 600 800 625 L 800 650 775 650 L 750 650 750 675 L 750 700 550 700 L 350 700 350 675 L 350 650 325 650 L 300 650 300 700 L 300 750 550 750 L 800 750 800 725 L 800 700 825 700 L 850 700 850 675 L 850 650 875 650 L 900 650 900 500 L 900 350 875 350 L 850 350 850 325 L 850 300 825 300 L 800 300 800 350 M 300 375 L 300 400 350 400 L 400 400 400 425 L 400 450 425 450 L 450 450 450 400 L 450 350 375 350 L 300 350 300 375 M 300 825 L 300 850 275 850 L 250 850 250 900 L 250 950 275 950 L 300 950 300 975 L 300 1000 575 1000 L 850 1000 850 975 L 850 950 875 950 L 900 950 900 900 L 900 850 875 850 L 850 850 850 825 L 850 800 800 800 L 750 800 750 825 L 750 850 775 850 L 800 850 800 875 L 800 900 775 900 L 750 900 750 925 L 750 950 525 950 L 300 950 300 900 L 300 850 325 850 L 350 850 350 825 L 350 800 325 800 L 300 800 300 825 M 300 1075 L 300 1100 275 1100 L 250 1100 250 1125 L 250 1150 225 1150 L 200 1150 200 1225 L 200 1300 225 1300 L 250 1300 250 1325 L 250 1350 525 1350 L 800 1350 800 1325 L 800 1300 850 1300 L 900 1300 900 1200 L 900 1100 850 1100 L 800 1100 800 1075 L 800 1050 550 1050 L 300 1050 300 1075 M 300 1125 L 300 1150 275 1150 L 250 1150 250 1225 L 250 1300 500 1300 L 750 1300 750 1275 L 750 1250 775 1250 L 800 1250 800 1200 L 800 1150 775 1150 L 750 1150 750 1125 L 750 1100 525 1100 L 300 1100 300 1125" stroke="none" fill="#b4b4b4" fill-rule="evenodd"/><path d="M 800 350 L 800 400 825 400 L 850 400 850 500 L 850 600 825 600 L 800 600 800 625 L 800 650 775 650 L 750 650 750 675 L 750 700 550 700 L 350 700 350 675 L 350 650 325 650 L 300 650 300 700 L 300 750 550 750 L 800 750 800 725 L 800 700 825 700 L 850 700 850 675 L 850 650 875 650 L 900 650 900 500 L 900 350 875 350 L 850 350 850 325 L 850 300 825 300 L 800 300 800 350 M 300 375 L 300 400 350 400 L 400 400 400 425 L 400 450 425 450 L 450 450 450 400 L 450 350 375 350 L 300 350 300 375 M 300 825 L 300 850 275 850 L 250 850 250 900 L 250 950 275 950 L 300 950 300 975 L 300 1000 575 1000 L 850 1000 850 975 L 850 950 875 950 L 900 950 900 900 L 900 850 875 850 L 850 850 850 825 L 850 800 800 800 L 750 800 750 825 L 750 850 775 850 L 800 850 800 875 L 800 900 775 900 L 750 900 750 925 L 750 950 525 950 L 300 950 300 900 L 300 850 325 850 L 350 850 350 825 L 350 800 325 800 L 300 800 300 825 M 300 1075 L 300 1100 275 1100 L 250 1100 250 1125 L 250 1150 225 1150 L 200 1150 200 1225 L 200 1300 225 1300 L 250 1300 250 1325 L 250 1350 525 1350 L 800 1350 800 1325 L 800 1300 850 1300 L 900 1300 900 1200 L 900 1100 850 1100 L 800 1100 800 1075 L 800 1050 550 1050 L 300 1050 300 1075 M 300 1125 L 300 1150 275 1150 L 250 1150 250 1225 L 250 1300 500 1300 L 750 1300 750 1275 L 750 1250 775 1250 L 800 1250 800 1200 L 800 1150 775 1150 L 750 1150 750 1125 L 750 1100 525 1100 L 300 1100 300 1125" stroke="none" fill="#b4b4b4" fill-rule="evenodd"/><path d="M 800 200 L 800 300 825 300 L 850 300 850 325 L 850 350 875 350 L 900 350 900 500 L 900 650 875 650 L 850 650 850 675 L 850 700 825 700 L 800 700 800 725 L 800 750 575 750 L 350 750 350 775 L 350 800 600 800 L 850 800 850 825 L 850 850 875 850 L 900 850 900 900 L 900 950 875 950 L 850 950 850 975 L 850 1000 600 1000 L 350 1000 350 1025 L 350 1050 575 1050 L 800 1050 800 1075 L 800 1100 850 1100 L 900 1100 900 1200 L 900 1300 850 1300 L 800 1300 800 1325 L 800 1350 550 1350 L 300 1350 300 1375 L 300 1400 800 1400 L 1300 1400 1300 1375 L 1300 1350 1325 1350 L 1350 1350 1350 1325 L 1350 1300 1375 1300 L 1400 1300 1400 1225 L 1400 1150 1375 1150 L 1350 1150 1350 1125 L 1350 1100 1325 1100 L 1300 1100 1300 1075 L 1300 1050 1275 1050 L 1250 1050 1250 1025 L 1250 1000 1275 1000 L 1300 1000 1300 975 L 1300 950 1325 950 L 1350 950 1350 900 L 1350 850 1325 850 L 1300 850 1300 825 L 1300 800 1275 800 L 1250 800 1250 775 L 1250 750 1275 750 L 1300 750 1300 700 L 1300 650 1325 650 L 1350 650 1350 525 L 1350 400 1375 400 L 1400 400 1400 350 L 1400 300 1350 300 L 1300 300 1300 325 L 1300 350 1225 350 L 1150 350 1150 375 L 1150 400 1125 400 L 1100 400 1100 450 L 1100 500 1075 500 L 1050 500 1050 425 L 1050 350 1075 350 L 1100 350 1100 300 L 1100 250 1050 250 L 1000 250 1000 275 L 1000 300 950 300 L 900 300 900 275 L 900 250 875 250 L 850 250 850 225 L 850 200 875 200 L 900 200 900 175 L 900 150 875 150 L 850 150 850 125 L 850 100 825 100 L 800 100 800 200 M 600 325 L 600 350 650 350 L 700 350 700 325 L 700 300 650 300 L 600 300 600 325 M 450 475 L 450 550 500 550 L 550 550 550 525 L 550 500 525 500 L 500 500 500 450 L 500 400 475 400 L 450 400 450 475" stroke="none" fill="#292929" fill-rule="evenodd"/><path d="M 800 200 L 800 300 825 300 L 850 300 850 325 L 850 350 875 350 L 900 350 900 500 L 900 650 875 650 L 850 650 850 675 L 850 700 825 700 L 800 700 800 725 L 800 750 575 750 L 350 750 350 775 L 350 800 600 800 L 850 800 850 825 L 850 850 875 850 L 900 850 900 900 L 900 950 875 950 L 850 950 850 975 L 850 1000 600 1000 L 350 1000 350 1025 L 350 1050 575 1050 L 800 1050 800 1075 L 800 1100 850 1100 L 900 1100 900 1200 L 900 1300 850 1300 L 800 1300 800 1325 L 800 1350 550 1350 L 300 1350 300 1375 L 300 1400 800 1400 L 1300 1400 1300 1375 L 1300 1350 1325 1350 L 1350 1350 1350 1325 L 1350 1300 1375 1300 L 1400 1300 1400 1225 L 1400 1150 1375 1150 L 1350 1150 1350 1125 L 1350 1100 1325 1100 L 1300 1100 1300 1075 L 1300 1050 1275 1050 L 1250 1050 1250 1025 L 1250 1000 1275 1000 L 1300 1000 1300 975 L 1300 950 1325 950 L 1350 950 1350 900 L 1350 850 1325 850 L 1300 850 1300 825 L 1300 800 1275 800 L 1250 800 1250 775 L 1250 750 1275 750 L 1300 750 1300 700 L 1300 650 1325 650 L 1350 650 1350 525 L 1350 400 1375 400 L 1400 400 1400 350 L 1400 300 1350 300 L 1300 300 1300 325 L 1300 350 1225 350 L 1150 350 1150 375 L 1150 400 1125 400 L 1100 400 1100 450 L 1100 500 1075 500 L 1050 500 1050 425 L 1050 350 1075 350 L 1100 350 1100 300 L 1100 250 1050 250 L 1000 250 1000 275 L 1000 300 950 300 L 900 300 900 275 L 900 250 875 250 L 850 250 850 225 L 850 200 875 200 L 900 200 900 175 L 900 150 875 150 L 850 150 850 125 L 850 100 825 100 L 800 100 800 200 M 600 325 L 600 350 650 350 L 700 350 700 325 L 700 300 650 300 L 600 300 600 325 M 450 475 L 450 550 500 550 L 550 550 550 525 L 550 500 525 500 L 500 500 500 450 L 500 400 475 400 L 450 400 450 475" stroke="none" fill="#292929" fill-rule="evenodd"/><path d="M 800 200 L 800 300 825 300 L 850 300 850 325 L 850 350 875 350 L 900 350 900 500 L 900 650 875 650 L 850 650 850 675 L 850 700 825 700 L 800 700 800 725 L 800 750 575 750 L 350 750 350 775 L 350 800 600 800 L 850 800 850 825 L 850 850 875 850 L 900 850 900 900 L 900 950 875 950 L 850 950 850 975 L 850 1000 600 1000 L 350 1000 350 1025 L 350 1050 575 1050 L 800 1050 800 1075 L 800 1100 850 1100 L 900 1100 900 1200 L 900 1300 850 1300 L 800 1300 800 1325 L 800 1350 550 1350 L 300 1350 300 1375 L 300 1400 800 1400 L 1300 1400 1300 1375 L 1300 1350 1325 1350 L 1350 1350 1350 1325 L 1350 1300 1375 1300 L 1400 1300 1400 1225 L 1400 1150 1375 1150 L 1350 1150 1350 1125 L 1350 1100 1325 1100 L 1300 1100 1300 1075 L 1300 1050 1275 1050 L 1250 1050 1250 1025 L 1250 1000 1275 1000 L 1300 1000 1300 975 L 1300 950 1325 950 L 1350 950 1350 900 L 1350 850 1325 850 L 1300 850 1300 825 L 1300 800 1275 800 L 1250 800 1250 775 L 1250 750 1275 750 L 1300 750 1300 700 L 1300 650 1325 650 L 1350 650 1350 525 L 1350 400 1375 400 L 1400 400 1400 350 L 1400 300 1350 300 L 1300 300 1300 325 L 1300 350 1225 350 L 1150 350 1150 375 L 1150 400 1125 400 L 1100 400 1100 450 L 1100 500 1075 500 L 1050 500 1050 425 L 1050 350 1075 350 L 1100 350 1100 300 L 1100 250 1050 250 L 1000 250 1000 275 L 1000 300 950 300 L 900 300 900 275 L 900 250 875 250 L 850 250 850 225 L 850 200 875 200 L 900 200 900 175 L 900 150 875 150 L 850 150 850 125 L 850 100 825 100 L 800 100 800 200 M 600 325 L 600 350 650 350 L 700 350 700 325 L 700 300 650 300 L 600 300 600 325 M 450 475 L 450 550 500 550 L 550 550 550 525 L 550 500 525 500 L 500 500 500 450 L 500 400 475 400 L 450 400 450 475" stroke="none" fill="#292929" fill-rule="evenodd"/></svg>